KufamPro-Normal.ufo
<glyph name="exclam" format="1">
  <advance width="296"/>
  <unicode hex="0021"/>
  <outline>
    <contour>
      <point x="108" y="200" type="curve"/>
      <point x="184" y="200" type="line"/>
      <point x="184" y="200"/>
      <point x="192" y="299"/>
      <point x="192" y="416" type="curve" smooth="yes"/>
      <point x="192" y="566" type="line" smooth="yes"/>
      <point x="192" y="587"/>
      <point x="192" y="676"/>
      <point x="200" y="712" type="curve"/>
      <point x="198" y="720" type="line"/>
      <point x="100" y="720" type="line"/>
      <point x="100" y="416" type="line" smooth="yes"/>
      <point x="100" y="299"/>
      <point x="108" y="200"/>
    </contour>
    <contour>
      <point x="148" y="-8" type="curve" smooth="yes"/>
      <point x="184" y="-8"/>
      <point x="212" y="16"/>
      <point x="212" y="56" type="curve" smooth="yes" name="hr01"/>
      <point x="212" y="96"/>
      <point x="184" y="120"/>
      <point x="148" y="120" type="curve" smooth="yes"/>
      <point x="112" y="120"/>
      <point x="84" y="96"/>
      <point x="84" y="56" type="curve" smooth="yes"/>
      <point x="84" y="16"/>
      <point x="112" y="-8"/>
    </contour>
  </outline>
</glyph>
<glyph name="quotedbl" format="1">
  <advance width="336"/>
  <unicode hex="0022"/>
  <outline>
    <contour>
      <point x="208" y="484" type="line" name="hr00"/>
      <point x="284" y="484" type="line"/>
      <point x="288" y="720" type="line"/>
      <point x="204" y="720" type="line"/>
    </contour>
    <contour>
      <point x="52" y="484" type="line"/>
      <point x="128" y="484" type="line"/>
      <point x="132" y="720" type="line"/>
      <point x="48" y="720" type="line"/>
    </contour>
  </outline>
</glyph>
<glyph name="numbersign" format="1">
  <advance width="616"/>
  <unicode hex="0023"/>
  <outline>
    <contour>
      <point x="56" y="428" type="line" name="hr00"/>
      <point x="166" y="428" type="line"/>
      <point x="141" y="292" type="line"/>
      <point x="32" y="292" type="line"/>
      <point x="32" y="220" type="line"/>
      <point x="128" y="220" type="line"/>
      <point x="88" y="0" type="line"/>
      <point x="168" y="0" type="line"/>
      <point x="208" y="220" type="line"/>
      <point x="356" y="220" type="line"/>
      <point x="316" y="0" type="line"/>
      <point x="396" y="0" type="line"/>
      <point x="436" y="220" type="line"/>
      <point x="560" y="220" type="line"/>
      <point x="560" y="292" type="line"/>
      <point x="449" y="292" type="line"/>
      <point x="474" y="428" type="line"/>
      <point x="584" y="428" type="line"/>
      <point x="584" y="500" type="line"/>
      <point x="487" y="500" type="line"/>
      <point x="528" y="720" type="line"/>
      <point x="448" y="720" type="line"/>
      <point x="407" y="500" type="line"/>
      <point x="259" y="500" type="line"/>
      <point x="300" y="720" type="line"/>
      <point x="220" y="720" type="line"/>
      <point x="179" y="500" type="line"/>
      <point x="56" y="500" type="line"/>
    </contour>
    <contour>
      <point x="246" y="428" type="line"/>
      <point x="394" y="428" type="line"/>
      <point x="369" y="292" type="line"/>
      <point x="221" y="292" type="line"/>
    </contour>
  </outline>
</glyph>
<glyph name="dollar" format="1">
  <advance width="616"/>
  <unicode hex="0024"/>
  <outline>
    <contour>
      <point x="80" y="24" type="line"/>
      <point x="123" y="2"/>
      <point x="212" y="-11"/>
      <point x="280" y="-12" type="curve"/>
      <point x="280" y="-160" type="line" name="hr01"/>
      <point x="364" y="-160" type="line"/>
      <point x="364" y="-5" type="line"/>
      <point x="475" y="17"/>
      <point x="544" y="90"/>
      <point x="544" y="196" type="curve" smooth="yes"/>
      <point x="544" y="296"/>
      <point x="474" y="369"/>
      <point x="364" y="390" type="curve" smooth="yes"/>
      <point x="292" y="404" type="line" smooth="yes"/>
      <point x="215" y="419"/>
      <point x="172" y="440"/>
      <point x="172" y="516" type="curve" smooth="yes"/>
      <point x="172" y="612"/>
      <point x="256" y="644"/>
      <point x="376" y="644" type="curve" smooth="yes"/>
      <point x="432" y="644"/>
      <point x="486" y="633"/>
      <point x="516" y="620" type="curve"/>
      <point x="520" y="620" type="line"/>
      <point x="520" y="712" type="line"/>
      <point x="483" y="727"/>
      <point x="413" y="732"/>
      <point x="372" y="732" type="curve" smooth="yes"/>
      <point x="364" y="732" type="line"/>
      <point x="364" y="860" type="line" name="hr02"/>
      <point x="280" y="860" type="line"/>
      <point x="280" y="725" type="line"/>
      <point x="154" y="703"/>
      <point x="80" y="633"/>
      <point x="80" y="512" type="curve" smooth="yes"/>
      <point x="80" y="392"/>
      <point x="164" y="339"/>
      <point x="272" y="318" type="curve" smooth="yes"/>
      <point x="344" y="304" type="line" smooth="yes"/>
      <point x="417" y="290"/>
      <point x="450" y="252"/>
      <point x="450" y="192" type="curve" smooth="yes"/>
      <point x="450" y="116"/>
      <point x="384" y="76"/>
      <point x="288" y="76" type="curve" smooth="yes"/>
      <point x="207" y="76"/>
      <point x="127" y="96"/>
      <point x="84" y="122" type="curve"/>
      <point x="80" y="122" type="line"/>
    </contour>
  </outline>
</glyph>
<glyph name="percent" format="1">
  <advance width="956"/>
  <unicode hex="0025"/>
  <outline>
    <contour>
      <point x="199" y="379" type="curve"/>
      <point x="142" y="379"/>
      <point x="120" y="432"/>
      <point x="120" y="520" type="curve"/>
      <point x="120" y="607"/>
      <point x="142" y="661"/>
      <point x="199" y="661" type="curve"/>
      <point x="256" y="661"/>
      <point x="278" y="607"/>
      <point x="278" y="520" type="curve" smooth="yes"/>
      <point x="278" y="432"/>
      <point x="256" y="379"/>
    </contour>
    <contour>
      <point x="199" y="312" type="curve"/>
      <point x="314" y="312"/>
      <point x="361" y="401"/>
      <point x="361" y="520" type="curve" smooth="yes"/>
      <point x="361" y="639"/>
      <point x="314" y="728"/>
      <point x="199" y="728" type="curve"/>
      <point x="84" y="728"/>
      <point x="37" y="639"/>
      <point x="37" y="520" type="curve"/>
      <point x="37" y="401"/>
      <point x="84" y="312"/>
    </contour>
    <contour>
      <point x="290" y="0" type="line"/>
      <point x="754" y="720" type="line" name="hr01"/>
      <point x="666" y="720" type="line"/>
      <point x="202" y="0" type="line"/>
    </contour>
    <contour>
      <point x="757" y="59" type="curve" name="hr02"/>
      <point x="700" y="59"/>
      <point x="678" y="112"/>
      <point x="678" y="200" type="curve"/>
      <point x="678" y="287"/>
      <point x="700" y="341"/>
      <point x="757" y="341" type="curve"/>
      <point x="814" y="341"/>
      <point x="836" y="287"/>
      <point x="836" y="200" type="curve" smooth="yes"/>
      <point x="836" y="112"/>
      <point x="814" y="59"/>
    </contour>
    <contour>
      <point x="757" y="-8" type="curve"/>
      <point x="872" y="-8"/>
      <point x="919" y="81"/>
      <point x="919" y="200" type="curve" smooth="yes"/>
      <point x="919" y="319"/>
      <point x="872" y="408"/>
      <point x="757" y="408" type="curve"/>
      <point x="642" y="408"/>
      <point x="595" y="319"/>
      <point x="595" y="200" type="curve"/>
      <point x="595" y="81"/>
      <point x="642" y="-8"/>
    </contour>
  </outline>
</glyph>
<glyph name="ampersand" format="1">
  <advance width="644"/>
  <unicode hex="0026"/>
  <outline>
    <contour>
      <point x="68" y="180" type="curve" smooth="yes"/>
      <point x="68" y="32"/>
      <point x="188" y="-12"/>
      <point x="326" y="-12" type="curve" smooth="yes"/>
      <point x="396" y="-12"/>
      <point x="468" y="4"/>
      <point x="522" y="28" type="curve"/>
      <point x="524" y="36" type="line"/>
      <point x="516" y="72"/>
      <point x="516" y="160"/>
      <point x="516" y="200" type="curve" smooth="yes"/>
      <point x="516" y="300" type="line"/>
      <point x="596" y="300" type="line"/>
      <point x="596" y="384" type="line"/>
      <point x="292" y="384" type="line" smooth="yes"/>
      <point x="208" y="384"/>
      <point x="148" y="420"/>
      <point x="148" y="504" type="curve" smooth="yes"/>
      <point x="148" y="604"/>
      <point x="236" y="644"/>
      <point x="348" y="644" type="curve" smooth="yes"/>
      <point x="416" y="644"/>
      <point x="468" y="628"/>
      <point x="500" y="612" type="curve"/>
      <point x="508" y="612" type="line"/>
      <point x="508" y="704" type="line"/>
      <point x="472" y="720"/>
      <point x="408" y="732"/>
      <point x="352" y="732" type="curve" smooth="yes"/>
      <point x="172" y="732"/>
      <point x="52" y="660"/>
      <point x="52" y="500" type="curve" smooth="yes"/>
      <point x="52" y="423"/>
      <point x="91" y="366"/>
      <point x="149" y="333" type="curve"/>
      <point x="98" y="300"/>
      <point x="68" y="248"/>
    </contour>
    <contour>
      <point x="337" y="68" type="curve" smooth="yes"/>
      <point x="230" y="68"/>
      <point x="160" y="92"/>
      <point x="160" y="184" type="curve" smooth="yes" name="hr02"/>
      <point x="160" y="260"/>
      <point x="218" y="300"/>
      <point x="312" y="300" type="curve" smooth="yes"/>
      <point x="424" y="300" type="line"/>
      <point x="424" y="144" type="line" smooth="yes"/>
      <point x="424" y="121"/>
      <point x="425" y="99"/>
      <point x="427" y="80" type="curve"/>
      <point x="398" y="71"/>
      <point x="370" y="68"/>
    </contour>
  </outline>
</glyph>
<glyph name="quotesingle" format="1">
  <advance width="180"/>
  <unicode hex="0027"/>
  <outline>
    <contour>
      <point x="52" y="484" type="line" name="hr00"/>
      <point x="128" y="484" type="line"/>
      <point x="132" y="720" type="line"/>
      <point x="48" y="720" type="line"/>
    </contour>
  </outline>
</glyph>
<glyph name="parenleft" format="1">
  <advance width="356"/>
  <unicode hex="0028"/>
  <outline>
    <contour>
      <point x="220" y="-88" type="curve" name="hr00"/>
      <point x="316" y="-88" type="line"/>
      <point x="316" y="-84" type="line"/>
      <point x="220" y="20"/>
      <point x="160" y="160"/>
      <point x="160" y="336" type="curve" smooth="yes"/>
      <point x="160" y="512"/>
      <point x="220" y="652"/>
      <point x="316" y="756" type="curve"/>
      <point x="316" y="760" type="line"/>
      <point x="220" y="760" type="line"/>
      <point x="140" y="676"/>
      <point x="76" y="516"/>
      <point x="76" y="336" type="curve" smooth="yes"/>
      <point x="76" y="156"/>
      <point x="140" y="-4"/>
    </contour>
  </outline>
</glyph>
<glyph name="parenright" format="1">
  <advance width="356"/>
  <unicode hex="0029"/>
  <outline>
    <contour>
      <point x="40" y="-88" type="line" name="hr00"/>
      <point x="136" y="-88" type="line"/>
      <point x="216" y="-4"/>
      <point x="280" y="156"/>
      <point x="280" y="336" type="curve" smooth="yes"/>
      <point x="280" y="516"/>
      <point x="216" y="676"/>
      <point x="136" y="760" type="curve"/>
      <point x="40" y="760" type="line"/>
      <point x="40" y="756" type="line"/>
      <point x="136" y="652"/>
      <point x="196" y="512"/>
      <point x="196" y="336" type="curve" smooth="yes"/>
      <point x="196" y="160"/>
      <point x="136" y="20"/>
      <point x="40" y="-84" type="curve"/>
    </contour>
  </outline>
</glyph>
<glyph name="asterisk" format="1">
  <advance width="544"/>
  <unicode hex="002A"/>
  <outline>
    <contour>
      <point x="102" y="353" type="line" name="hr00"/>
      <point x="239" y="442" type="line"/>
      <point x="230" y="280" type="line"/>
      <point x="314" y="280" type="line"/>
      <point x="305" y="442" type="line"/>
      <point x="442" y="354" type="line"/>
      <point x="484" y="426" type="line"/>
      <point x="338" y="500" type="line"/>
      <point x="483" y="574" type="line"/>
      <point x="442" y="647" type="line"/>
      <point x="305" y="557" type="line"/>
      <point x="314" y="720" type="line"/>
      <point x="230" y="720" type="line"/>
      <point x="239" y="557" type="line"/>
      <point x="102" y="646" type="line"/>
      <point x="60" y="574" type="line"/>
      <point x="206" y="500" type="line"/>
      <point x="61" y="426" type="line"/>
    </contour>
  </outline>
</glyph>
<glyph name="plus" format="1">
  <advance width="616"/>
  <unicode hex="002B"/>
  <outline>
    <contour>
      <point x="64" y="276" type="line" name="hr00"/>
      <point x="268" y="276" type="line"/>
      <point x="268" y="64" type="line"/>
      <point x="348" y="64" type="line"/>
      <point x="348" y="276" type="line"/>
      <point x="552" y="276" type="line"/>
      <point x="552" y="356" type="line"/>
      <point x="348" y="356" type="line"/>
      <point x="348" y="568" type="line"/>
      <point x="268" y="568" type="line"/>
      <point x="268" y="356" type="line"/>
      <point x="64" y="356" type="line"/>
    </contour>
  </outline>
</glyph>
<glyph name="hyphen" format="1">
  <advance width="468"/>
  <unicode hex="002D"/>
  <outline>
    <contour>
      <point x="68" y="290" type="line" name="hr00"/>
      <point x="400" y="290" type="line"/>
      <point x="400" y="376" type="line"/>
      <point x="68" y="376" type="line"/>
    </contour>
  </outline>
</glyph>
<glyph name="period" format="1">
  <advance width="280"/>
  <unicode hex="002E"/>
  <outline>
    <contour>
      <point x="140" y="-8" type="curve" smooth="yes" name="hr00"/>
      <point x="176" y="-8"/>
      <point x="204" y="16"/>
      <point x="204" y="56" type="curve" smooth="yes"/>
      <point x="204" y="96"/>
      <point x="176" y="120"/>
      <point x="140" y="120" type="curve" smooth="yes"/>
      <point x="104" y="120"/>
      <point x="76" y="96"/>
      <point x="76" y="56" type="curve" smooth="yes"/>
      <point x="76" y="16"/>
      <point x="104" y="-8"/>
    </contour>
  </outline>
</glyph>
<glyph name="slash" format="1">
  <advance width="516"/>
  <unicode hex="002F"/>
  <outline>
    <contour>
      <point x="20" y="0" type="line" name="hr00"/>
      <point x="104" y="0" type="line"/>
      <point x="496" y="720" type="line"/>
      <point x="412" y="720" type="line"/>
    </contour>
  </outline>
</glyph>
<glyph name="zero" format="1">
  <advance width="616"/>
  <unicode hex="0030"/>
  <outline>
    <contour>
      <point x="308" y="-12" type="curve" smooth="yes" name="hr00"/>
      <point x="488" y="-12"/>
      <point x="564" y="144"/>
      <point x="564" y="360" type="curve" smooth="yes"/>
      <point x="564" y="576"/>
      <point x="488" y="732"/>
      <point x="308" y="732" type="curve" smooth="yes"/>
      <point x="128" y="732"/>
      <point x="52" y="576"/>
      <point x="52" y="360" type="curve" smooth="yes"/>
      <point x="52" y="144"/>
      <point x="128" y="-12"/>
    </contour>
    <contour>
      <point x="308" y="72" type="curve" smooth="yes"/>
      <point x="196" y="72"/>
      <point x="148" y="172"/>
      <point x="148" y="360" type="curve" smooth="yes"/>
      <point x="148" y="548"/>
      <point x="196" y="648"/>
      <point x="308" y="648" type="curve" smooth="yes"/>
      <point x="420" y="648"/>
      <point x="468" y="548"/>
      <point x="468" y="360" type="curve" smooth="yes"/>
      <point x="468" y="172"/>
      <point x="420" y="72"/>
    </contour>
  </outline>
</glyph>
<glyph name="one" format="1">
  <advance width="616"/>
  <unicode hex="0031"/>
  <outline>
    <contour>
      <point x="72" y="0" type="line" name="hr00"/>
      <point x="552" y="0" type="line"/>
      <point x="552" y="84" type="line"/>
      <point x="372" y="84" type="line"/>
      <point x="372" y="544" type="line" smooth="yes"/>
      <point x="372" y="584"/>
      <point x="372" y="668"/>
      <point x="380" y="704" type="curve"/>
      <point x="378" y="716" type="line"/>
      <point x="356" y="722"/>
      <point x="320" y="728"/>
      <point x="272" y="728" type="curve" smooth="yes"/>
      <point x="204" y="728"/>
      <point x="116" y="718"/>
      <point x="88" y="708" type="curve"/>
      <point x="88" y="640" type="line"/>
      <point x="280" y="640" type="line"/>
      <point x="278" y="624"/>
      <point x="276" y="580"/>
      <point x="276" y="556" type="curve" smooth="yes"/>
      <point x="276" y="84" type="line"/>
      <point x="72" y="84" type="line"/>
    </contour>
  </outline>
</glyph>
<glyph name="two" format="1">
  <advance width="616"/>
  <unicode hex="0032"/>
  <outline>
    <contour>
      <point x="76" y="0" type="curve" name="hr00"/>
      <point x="552" y="0" type="line"/>
      <point x="552" y="84" type="line"/>
      <point x="151" y="84" type="line"/>
      <point x="149" y="90"/>
      <point x="148" y="97"/>
      <point x="148" y="108" type="curve" smooth="yes"/>
      <point x="148" y="176"/>
      <point x="186" y="226"/>
      <point x="292" y="252" type="curve" smooth="yes"/>
      <point x="340" y="264" type="line" smooth="yes"/>
      <point x="451" y="292"/>
      <point x="532" y="368"/>
      <point x="532" y="504" type="curve" smooth="yes"/>
      <point x="532" y="632"/>
      <point x="452" y="732"/>
      <point x="260" y="732" type="curve" smooth="yes"/>
      <point x="188" y="732"/>
      <point x="124" y="716"/>
      <point x="84" y="700" type="curve"/>
      <point x="84" y="612" type="line"/>
      <point x="92" y="612" type="line"/>
      <point x="136" y="632"/>
      <point x="188" y="648"/>
      <point x="256" y="648" type="curve" smooth="yes"/>
      <point x="376" y="648"/>
      <point x="440" y="596"/>
      <point x="440" y="504" type="curve" smooth="yes"/>
      <point x="440" y="412"/>
      <point x="396" y="366"/>
      <point x="308" y="344" type="curve" smooth="yes"/>
      <point x="259" y="332" type="line" smooth="yes"/>
      <point x="109" y="295"/>
      <point x="60" y="207"/>
      <point x="60" y="96" type="curve" smooth="yes"/>
      <point x="60" y="72"/>
      <point x="64" y="24"/>
    </contour>
  </outline>
</glyph>
<glyph name="three" format="1">
  <advance width="616"/>
  <unicode hex="0033"/>
  <outline>
    <contour>
      <point x="84" y="640" type="line" name="hr00"/>
      <point x="396" y="640" type="line"/>
      <point x="180" y="384" type="line"/>
      <point x="196" y="344" type="line"/>
      <point x="268" y="344" type="line" smooth="yes"/>
      <point x="384" y="344"/>
      <point x="440" y="292"/>
      <point x="440" y="212" type="curve" smooth="yes"/>
      <point x="440" y="152"/>
      <point x="404" y="72"/>
      <point x="256" y="72" type="curve" smooth="yes"/>
      <point x="184" y="72"/>
      <point x="120" y="96"/>
      <point x="80" y="122" type="curve"/>
      <point x="72" y="122" type="line"/>
      <point x="72" y="28" type="line"/>
      <point x="116" y="4"/>
      <point x="184" y="-12"/>
      <point x="256" y="-12" type="curve" smooth="yes"/>
      <point x="428" y="-12"/>
      <point x="532" y="76"/>
      <point x="532" y="208" type="curve" smooth="yes"/>
      <point x="532" y="332"/>
      <point x="457" y="406"/>
      <point x="314" y="418" type="curve"/>
      <point x="460" y="582" type="line" smooth="yes"/>
      <point x="486" y="612"/>
      <point x="504" y="644"/>
      <point x="504" y="676" type="curve" smooth="yes"/>
      <point x="504" y="684"/>
      <point x="502" y="700"/>
      <point x="500" y="710" type="curve"/>
      <point x="488" y="720" type="line"/>
      <point x="84" y="720" type="line"/>
    </contour>
  </outline>
</glyph>
<glyph name="four" format="1">
  <advance width="616"/>
  <unicode hex="0034"/>
  <outline>
    <contour>
      <point x="36" y="196" type="line" name="hr00"/>
      <point x="400" y="196" type="line"/>
      <point x="400" y="0" type="line"/>
      <point x="496" y="0" type="line"/>
      <point x="496" y="196" type="line"/>
      <point x="604" y="196" type="line"/>
      <point x="604" y="280" type="line"/>
      <point x="496" y="280" type="line"/>
      <point x="496" y="540" type="line" smooth="yes"/>
      <point x="496" y="580"/>
      <point x="496" y="660"/>
      <point x="502" y="700" type="curve"/>
      <point x="500" y="712" type="line"/>
      <point x="470" y="722"/>
      <point x="426" y="728"/>
      <point x="376" y="728" type="curve" smooth="yes"/>
      <point x="220" y="728"/>
      <point x="158" y="634"/>
      <point x="106" y="480" type="curve" smooth="yes"/>
      <point x="36" y="272" type="line"/>
    </contour>
    <contour>
      <point x="196" y="468" type="line" smooth="yes"/>
      <point x="237" y="592"/>
      <point x="284" y="644"/>
      <point x="376" y="644" type="curve" smooth="yes"/>
      <point x="385" y="644"/>
      <point x="394" y="643"/>
      <point x="402" y="643" type="curve"/>
      <point x="400" y="627"/>
      <point x="400" y="610"/>
      <point x="400" y="592" type="curve" smooth="yes"/>
      <point x="400" y="280" type="line"/>
      <point x="134" y="280" type="line"/>
    </contour>
  </outline>
</glyph>
<glyph name="five" format="1">
  <advance width="616"/>
  <unicode hex="0035"/>
  <outline>
    <contour>
      <point x="64" y="28" type="line" name="hr00"/>
      <point x="108" y="4"/>
      <point x="180" y="-12"/>
      <point x="260" y="-12" type="curve" smooth="yes"/>
      <point x="436" y="-12"/>
      <point x="544" y="80"/>
      <point x="544" y="220" type="curve" smooth="yes"/>
      <point x="544" y="356"/>
      <point x="460" y="436"/>
      <point x="284" y="436" type="curve" smooth="yes"/>
      <point x="252" y="436"/>
      <point x="218" y="432"/>
      <point x="188" y="427" type="curve"/>
      <point x="188" y="588" type="line" smooth="yes"/>
      <point x="188" y="604"/>
      <point x="187" y="621"/>
      <point x="186" y="636" type="curve"/>
      <point x="512" y="636" type="line"/>
      <point x="512" y="720" type="line"/>
      <point x="232" y="720" type="line" smooth="yes"/>
      <point x="164" y="720"/>
      <point x="120" y="716"/>
      <point x="90" y="708" type="curve"/>
      <point x="88" y="700" type="line"/>
      <point x="96" y="664"/>
      <point x="96" y="572"/>
      <point x="96" y="532" type="curve" smooth="yes"/>
      <point x="96" y="332" type="line"/>
      <point x="104" y="328" type="line"/>
      <point x="140" y="336"/>
      <point x="194" y="356"/>
      <point x="280" y="356" type="curve" smooth="yes"/>
      <point x="392" y="356"/>
      <point x="448" y="308"/>
      <point x="448" y="220" type="curve" smooth="yes"/>
      <point x="448" y="148"/>
      <point x="408" y="72"/>
      <point x="260" y="72" type="curve" smooth="yes"/>
      <point x="176" y="72"/>
      <point x="108" y="100"/>
      <point x="72" y="122" type="curve"/>
      <point x="64" y="122" type="line"/>
    </contour>
  </outline>
</glyph>
<glyph name="six" format="1">
  <advance width="616"/>
  <unicode hex="0036"/>
  <outline>
    <contour>
      <point x="316" y="-12" type="curve" smooth="yes" name="hr00"/>
      <point x="476" y="-12"/>
      <point x="564" y="96"/>
      <point x="564" y="232" type="curve" smooth="yes"/>
      <point x="564" y="388"/>
      <point x="468" y="468"/>
      <point x="336" y="468" type="curve" smooth="yes"/>
      <point x="242" y="468"/>
      <point x="187" y="435"/>
      <point x="153" y="401" type="curve"/>
      <point x="165" y="558"/>
      <point x="238" y="648"/>
      <point x="384" y="648" type="curve" smooth="yes"/>
      <point x="444" y="648"/>
      <point x="476" y="636"/>
      <point x="504" y="624" type="curve"/>
      <point x="512" y="624" type="line"/>
      <point x="512" y="712" type="line"/>
      <point x="480" y="724"/>
      <point x="444" y="732"/>
      <point x="388" y="732" type="curve" smooth="yes"/>
      <point x="168" y="732"/>
      <point x="56" y="584"/>
      <point x="56" y="348" type="curve" smooth="yes"/>
      <point x="56" y="132"/>
      <point x="128" y="-12"/>
    </contour>
    <contour>
      <point x="320" y="68" type="curve" smooth="yes"/>
      <point x="201" y="68"/>
      <point x="158" y="150"/>
      <point x="152" y="312" type="curve"/>
      <point x="189" y="356"/>
      <point x="241" y="388"/>
      <point x="320" y="388" type="curve" smooth="yes"/>
      <point x="420" y="388"/>
      <point x="472" y="328"/>
      <point x="472" y="232" type="curve" smooth="yes"/>
      <point x="472" y="144"/>
      <point x="428" y="68"/>
    </contour>
  </outline>
</glyph>
<glyph name="seven" format="1">
  <advance width="616"/>
  <unicode hex="0037"/>
  <outline>
    <contour>
      <point x="76" y="636" type="line" name="hr00"/>
      <point x="464" y="636" type="line"/>
      <point x="156" y="6" type="line"/>
      <point x="156" y="0" type="line"/>
      <point x="256" y="0" type="line"/>
      <point x="520" y="556" type="line"/>
      <point x="536" y="592"/>
      <point x="548" y="634"/>
      <point x="548" y="672" type="curve" smooth="yes"/>
      <point x="548" y="684"/>
      <point x="546" y="696"/>
      <point x="544" y="710" type="curve"/>
      <point x="532" y="720" type="line"/>
      <point x="76" y="720" type="line"/>
    </contour>
  </outline>
</glyph>
<glyph name="nine" format="1">
  <advance width="616"/>
  <unicode hex="0039"/>
  <outline>
    <contour>
      <point x="104" y="8" type="line" name="hr00"/>
      <point x="136" y="-4"/>
      <point x="172" y="-12"/>
      <point x="228" y="-12" type="curve" smooth="yes"/>
      <point x="448" y="-12"/>
      <point x="560" y="136"/>
      <point x="560" y="372" type="curve" smooth="yes"/>
      <point x="560" y="588"/>
      <point x="488" y="732"/>
      <point x="300" y="732" type="curve" smooth="yes"/>
      <point x="140" y="732"/>
      <point x="52" y="624"/>
      <point x="52" y="488" type="curve" smooth="yes"/>
      <point x="52" y="332"/>
      <point x="148" y="252"/>
      <point x="280" y="252" type="curve" smooth="yes"/>
      <point x="374" y="252"/>
      <point x="429" y="284"/>
      <point x="462" y="319" type="curve"/>
      <point x="450" y="161"/>
      <point x="377" y="72"/>
      <point x="232" y="72" type="curve" smooth="yes"/>
      <point x="172" y="72"/>
      <point x="140" y="84"/>
      <point x="112" y="96" type="curve"/>
      <point x="104" y="96" type="line"/>
    </contour>
    <contour>
      <point x="296" y="652" type="curve" smooth="yes"/>
      <point x="414" y="652"/>
      <point x="458" y="569"/>
      <point x="463" y="408" type="curve"/>
      <point x="426" y="364"/>
      <point x="375" y="332"/>
      <point x="296" y="332" type="curve" smooth="yes"/>
      <point x="196" y="332"/>
      <point x="144" y="392"/>
      <point x="144" y="488" type="curve" smooth="yes"/>
      <point x="144" y="576"/>
      <point x="188" y="652"/>
    </contour>
  </outline>
</glyph>
<glyph name="colon" format="1">
  <advance width="280"/>
  <unicode hex="003A"/>
  <outline>
    <contour>
      <point x="140" y="-8" type="curve" smooth="yes" name="hr00"/>
      <point x="176" y="-8"/>
      <point x="204" y="16"/>
      <point x="204" y="56" type="curve" smooth="yes"/>
      <point x="204" y="96"/>
      <point x="176" y="120"/>
      <point x="140" y="120" type="curve" smooth="yes"/>
      <point x="104" y="120"/>
      <point x="76" y="96"/>
      <point x="76" y="56" type="curve" smooth="yes"/>
      <point x="76" y="16"/>
      <point x="104" y="-8"/>
    </contour>
    <contour>
      <point x="140" y="416" type="curve" smooth="yes"/>
      <point x="176" y="416"/>
      <point x="204" y="440"/>
      <point x="204" y="480" type="curve" smooth="yes"/>
      <point x="204" y="520"/>
      <point x="176" y="544"/>
      <point x="140" y="544" type="curve" smooth="yes"/>
      <point x="104" y="544"/>
      <point x="76" y="520"/>
      <point x="76" y="480" type="curve" smooth="yes"/>
      <point x="76" y="440"/>
      <point x="104" y="416"/>
    </contour>
  </outline>
</glyph>
<glyph name="semicolon" format="1">
  <advance width="279"/>
  <unicode hex="003B"/>
  <outline>
    <contour>
      <point x="139" y="416" type="curve" smooth="yes" name="hr00"/>
      <point x="175" y="416"/>
      <point x="203" y="440"/>
      <point x="203" y="480" type="curve" smooth="yes"/>
      <point x="203" y="520"/>
      <point x="175" y="544"/>
      <point x="139" y="544" type="curve" smooth="yes"/>
      <point x="103" y="544"/>
      <point x="75" y="520"/>
      <point x="75" y="480" type="curve" smooth="yes"/>
      <point x="75" y="440"/>
      <point x="103" y="416"/>
    </contour>
    <contour>
      <point x="117" y="-12" type="curve"/>
      <point x="48" y="-147" type="line"/>
      <point x="48" y="-155" type="line"/>
      <point x="124" y="-155" type="line"/>
      <point x="183" y="-24" type="line" smooth="yes"/>
      <point x="191" y="-6"/>
      <point x="203" y="20"/>
      <point x="203" y="52" type="curve" smooth="yes"/>
      <point x="203" y="100"/>
      <point x="175" y="120"/>
      <point x="139" y="120" type="curve" smooth="yes"/>
      <point x="103" y="120"/>
      <point x="75" y="96"/>
      <point x="75" y="52" type="curve" smooth="yes"/>
      <point x="75" y="16"/>
      <point x="99" y="-4"/>
    </contour>
  </outline>
</glyph>
<glyph name="less" format="1">
  <advance width="616"/>
  <unicode hex="003C"/>
  <outline>
    <contour>
      <point x="524" y="64" type="line" name="hr00"/>
      <point x="532" y="64" type="line"/>
      <point x="532" y="152" type="line"/>
      <point x="200" y="316" type="line"/>
      <point x="532" y="484" type="line"/>
      <point x="532" y="572" type="line"/>
      <point x="524" y="572" type="line"/>
      <point x="84" y="344" type="line"/>
      <point x="84" y="288" type="line"/>
    </contour>
  </outline>
</glyph>
<glyph name="equal" format="1">
  <advance width="616"/>
  <unicode hex="003D"/>
  <outline>
    <contour>
      <point x="64" y="376" type="line" name="hr00"/>
      <point x="552" y="376" type="line"/>
      <point x="552" y="456" type="line"/>
      <point x="64" y="456" type="line"/>
    </contour>
    <contour>
      <point x="64" y="176" type="line"/>
      <point x="552" y="176" type="line"/>
      <point x="552" y="256" type="line"/>
      <point x="64" y="256" type="line"/>
    </contour>
  </outline>
</glyph>
<glyph name="question" format="1">
  <advance width="500"/>
  <unicode hex="003F"/>
  <outline>
    <contour>
      <point x="148" y="188" type="line"/>
      <point x="240" y="188" type="line"/>
      <point x="240" y="256" type="line" smooth="yes"/>
      <point x="240" y="280"/>
      <point x="245" y="310"/>
      <point x="276" y="328" type="curve" smooth="yes"/>
      <point x="324" y="356" type="line" smooth="yes"/>
      <point x="357" y="375"/>
      <point x="452" y="432"/>
      <point x="452" y="540" type="curve" smooth="yes"/>
      <point x="452" y="672"/>
      <point x="368" y="732"/>
      <point x="228" y="732" type="curve" smooth="yes"/>
      <point x="160" y="732"/>
      <point x="104" y="720"/>
      <point x="56" y="696" type="curve"/>
      <point x="56" y="608" type="line"/>
      <point x="64" y="608" type="line"/>
      <point x="108" y="632"/>
      <point x="160" y="648"/>
      <point x="224" y="648" type="curve" smooth="yes"/>
      <point x="304" y="648"/>
      <point x="356" y="616"/>
      <point x="356" y="544" type="curve" smooth="yes"/>
      <point x="356" y="480"/>
      <point x="311" y="442"/>
      <point x="280" y="424" type="curve" smooth="yes"/>
      <point x="220" y="388" type="line" smooth="yes"/>
      <point x="167" y="356"/>
      <point x="148" y="316"/>
      <point x="148" y="260" type="curve" smooth="yes"/>
    </contour>
    <contour>
      <point x="132" y="56" type="curve" smooth="yes" name="hr01"/>
      <point x="132" y="16"/>
      <point x="160" y="-8"/>
      <point x="196" y="-8" type="curve" smooth="yes"/>
      <point x="232" y="-8"/>
      <point x="260" y="16"/>
      <point x="260" y="56" type="curve" smooth="yes"/>
      <point x="260" y="96"/>
      <point x="232" y="120"/>
      <point x="196" y="120" type="curve" smooth="yes"/>
      <point x="160" y="120"/>
      <point x="132" y="96"/>
    </contour>
  </outline>
</glyph>
<glyph name="at" format="1">
  <advance width="966"/>
  <unicode hex="0040"/>
  <outline>
    <contour>
      <point x="342" y="404" type="line" name="hr00"/>
      <point x="350" y="404" type="line"/>
      <point x="374" y="416"/>
      <point x="418" y="432"/>
      <point x="466" y="432" type="curve" smooth="yes"/>
      <point x="550" y="432"/>
      <point x="586" y="408"/>
      <point x="586" y="320" type="curve" smooth="yes"/>
      <point x="586" y="317" type="line"/>
      <point x="567" y="322"/>
      <point x="540" y="328"/>
      <point x="498" y="328" type="curve" smooth="yes"/>
      <point x="384" y="328"/>
      <point x="306" y="276"/>
      <point x="306" y="188" type="curve" smooth="yes"/>
      <point x="306" y="88"/>
      <point x="382" y="36"/>
      <point x="512" y="36" type="curve" smooth="yes"/>
      <point x="736" y="36"/>
      <point x="914" y="140"/>
      <point x="914" y="376" type="curve" smooth="yes"/>
      <point x="914" y="596"/>
      <point x="746" y="732"/>
      <point x="510" y="732" type="curve" smooth="yes"/>
      <point x="222" y="732"/>
      <point x="52" y="560"/>
      <point x="52" y="288" type="curve" smooth="yes"/>
      <point x="52" y="-16"/>
      <point x="244" y="-156"/>
      <point x="510" y="-156" type="curve" smooth="yes"/>
      <point x="576" y="-156"/>
      <point x="656" y="-144"/>
      <point x="692" y="-128" type="curve"/>
      <point x="692" y="-44" type="line"/>
      <point x="684" y="-44" type="line"/>
      <point x="648" y="-62"/>
      <point x="572" y="-76"/>
      <point x="510" y="-76" type="curve" smooth="yes"/>
      <point x="304" y="-76"/>
      <point x="144" y="24"/>
      <point x="144" y="288" type="curve" smooth="yes"/>
      <point x="144" y="540"/>
      <point x="294" y="648"/>
      <point x="510" y="648" type="curve" smooth="yes"/>
      <point x="690" y="648"/>
      <point x="826" y="556"/>
      <point x="826" y="376" type="curve" smooth="yes"/>
      <point x="826" y="244"/>
      <point x="766" y="167"/>
      <point x="668" y="131" type="curve"/>
      <point x="666" y="161"/>
      <point x="666" y="194"/>
      <point x="666" y="214" type="curve" smooth="yes"/>
      <point x="666" y="320" type="line" smooth="yes"/>
      <point x="666" y="468"/>
      <point x="586" y="508"/>
      <point x="474" y="508" type="curve" smooth="yes"/>
      <point x="426" y="508"/>
      <point x="378" y="496"/>
      <point x="342" y="482" type="curve"/>
    </contour>
    <contour>
      <point x="512" y="108" type="curve" smooth="yes"/>
      <point x="430" y="108"/>
      <point x="386" y="132"/>
      <point x="386" y="184" type="curve" smooth="yes"/>
      <point x="386" y="232"/>
      <point x="422" y="260"/>
      <point x="502" y="260" type="curve" smooth="yes"/>
      <point x="535" y="260"/>
      <point x="564" y="255"/>
      <point x="586" y="249" type="curve"/>
      <point x="586" y="173" type="line" smooth="yes"/>
      <point x="586" y="150"/>
      <point x="588" y="130"/>
      <point x="593" y="113" type="curve"/>
      <point x="567" y="110"/>
      <point x="540" y="108"/>
    </contour>
  </outline>
</glyph>
<glyph name="A" format="1">
  <advance width="662"/>
  <unicode hex="0041"/>
  <outline>
    <contour>
      <point x="470" y="0" type="line" name="hr00"/>
      <point x="566" y="0" type="line"/>
      <point x="566" y="540" type="line" smooth="yes"/>
      <point x="566" y="580"/>
      <point x="566" y="660"/>
      <point x="572" y="700" type="curve"/>
      <point x="570" y="712" type="line"/>
      <point x="518" y="724"/>
      <point x="470" y="728"/>
      <point x="422" y="728" type="curve" smooth="yes"/>
      <point x="222" y="728"/>
      <point x="155" y="640"/>
      <point x="128" y="480" type="curve" smooth="yes"/>
      <point x="48" y="0" type="line"/>
      <point x="146" y="0" type="line"/>
      <point x="182" y="220" type="line"/>
      <point x="470" y="220" type="line"/>
    </contour>
    <contour>
      <point x="226" y="480" type="line" smooth="yes"/>
      <point x="245" y="591"/>
      <point x="286" y="644"/>
      <point x="418" y="644" type="curve" smooth="yes"/>
      <point x="438" y="644"/>
      <point x="456" y="643"/>
      <point x="471" y="640" type="curve"/>
      <point x="470" y="625"/>
      <point x="470" y="609"/>
      <point x="470" y="592" type="curve" smooth="yes"/>
      <point x="470" y="304" type="line"/>
      <point x="196" y="304" type="line"/>
    </contour>
    <contour>
      <point x="388" y="720" type="move" name="top"/>
    </contour>
    <contour>
      <point x="520" y="0" type="move" name="bottom"/>
    </contour>
  </outline>
</glyph>
<glyph name="B" format="1">
  <advance width="640"/>
  <unicode hex="0042"/>
  <outline>
    <contour>
      <point x="96" y="0" type="line"/>
      <point x="380" y="0" type="line" smooth="yes"/>
      <point x="528" y="0"/>
      <point x="584" y="92"/>
      <point x="584" y="184" type="curve" smooth="yes"/>
      <point x="584" y="257"/>
      <point x="546" y="311"/>
      <point x="477" y="333" type="curve"/>
      <point x="540" y="376"/>
      <point x="572" y="451"/>
      <point x="572" y="524" type="curve" smooth="yes" name="hr01"/>
      <point x="572" y="656"/>
      <point x="496" y="720"/>
      <point x="348" y="720" type="curve" smooth="yes"/>
      <point x="96" y="720" type="line"/>
    </contour>
    <contour>
      <point x="348" y="636" type="line" smooth="yes"/>
      <point x="428" y="636"/>
      <point x="476" y="608"/>
      <point x="476" y="524" type="curve" smooth="yes"/>
      <point x="476" y="440"/>
      <point x="432" y="364"/>
      <point x="340" y="364" type="curve" smooth="yes"/>
      <point x="192" y="364" type="line"/>
      <point x="192" y="636" type="line"/>
    </contour>
    <contour>
      <point x="376" y="280" type="line" smooth="yes"/>
      <point x="440" y="280"/>
      <point x="488" y="256"/>
      <point x="488" y="184" type="curve" smooth="yes" name="hr02"/>
      <point x="488" y="108"/>
      <point x="436" y="84"/>
      <point x="376" y="84" type="curve" smooth="yes"/>
      <point x="192" y="84" type="line"/>
      <point x="192" y="280" type="line"/>
    </contour>
  </outline>
</glyph>
<glyph name="C" format="1">
  <advance width="648"/>
  <unicode hex="0043"/>
  <outline>
    <contour>
      <point x="56" y="360" type="curve" smooth="yes" name="hr00"/>
      <point x="56" y="128"/>
      <point x="188" y="-12"/>
      <point x="420" y="-12" type="curve" smooth="yes"/>
      <point x="488" y="-12"/>
      <point x="540" y="0"/>
      <point x="580" y="20" type="curve"/>
      <point x="580" y="112" type="line"/>
      <point x="572" y="112" type="line"/>
      <point x="532" y="88"/>
      <point x="480" y="76"/>
      <point x="420" y="76" type="curve" smooth="yes"/>
      <point x="260" y="76"/>
      <point x="156" y="168"/>
      <point x="156" y="360" type="curve" smooth="yes"/>
      <point x="156" y="552"/>
      <point x="260" y="644"/>
      <point x="420" y="644" type="curve" smooth="yes"/>
      <point x="480" y="644"/>
      <point x="532" y="632"/>
      <point x="572" y="608" type="curve"/>
      <point x="580" y="608" type="line"/>
      <point x="580" y="700" type="line"/>
      <point x="540" y="720"/>
      <point x="488" y="732"/>
      <point x="420" y="732" type="curve" smooth="yes"/>
      <point x="188" y="732"/>
      <point x="56" y="584"/>
    </contour>
    <contour>
      <point x="380" y="720" type="move" name="top"/>
    </contour>
    <contour>
      <point x="380" y="0" type="move" name="bottom"/>
    </contour>
  </outline>
</glyph>
<glyph name="D" format="1">
  <advance width="720"/>
  <unicode hex="0044"/>
  <outline>
    <contour>
      <point x="96" y="0" type="line" name="hr00"/>
      <point x="312" y="0" type="line" smooth="yes"/>
      <point x="572" y="0"/>
      <point x="664" y="200"/>
      <point x="664" y="400" type="curve" smooth="yes"/>
      <point x="664" y="612"/>
      <point x="548" y="720"/>
      <point x="336" y="720" type="curve" smooth="yes"/>
      <point x="96" y="720" type="line"/>
    </contour>
    <contour>
      <point x="336" y="636" type="line" smooth="yes"/>
      <point x="488" y="636"/>
      <point x="564" y="556"/>
      <point x="564" y="400" type="curve" smooth="yes"/>
      <point x="564" y="256"/>
      <point x="508" y="84"/>
      <point x="312" y="84" type="curve" smooth="yes"/>
      <point x="192" y="84" type="line"/>
      <point x="192" y="636" type="line"/>
    </contour>
    <contour>
      <point x="348" y="720" type="move" name="top"/>
    </contour>
    <contour>
      <point x="352" y="0" type="move" name="bottom"/>
    </contour>
  </outline>
</glyph>
<glyph name="E" format="1">
  <advance width="616"/>
  <unicode hex="0045"/>
  <outline>
    <contour>
      <point x="96" y="0" type="line" name="hr00"/>
      <point x="564" y="0" type="line"/>
      <point x="564" y="84" type="line"/>
      <point x="192" y="84" type="line"/>
      <point x="192" y="336" type="line"/>
      <point x="496" y="336" type="line"/>
      <point x="496" y="420" type="line"/>
      <point x="192" y="420" type="line"/>
      <point x="192" y="636" type="line"/>
      <point x="552" y="636" type="line"/>
      <point x="552" y="720" type="line"/>
      <point x="96" y="720" type="line"/>
    </contour>
    <contour>
      <point x="336" y="720" type="move" name="top"/>
    </contour>
    <contour>
      <point x="512" y="0" type="move" name="bottom"/>
    </contour>
  </outline>
</glyph>
<glyph name="F" format="1">
  <advance width="572"/>
  <unicode hex="0046"/>
  <outline>
    <contour>
      <point x="96" y="0" type="line" name="hr00"/>
      <point x="192" y="0" type="line"/>
      <point x="192" y="280" type="line"/>
      <point x="484" y="280" type="line"/>
      <point x="484" y="364" type="line"/>
      <point x="192" y="364" type="line"/>
      <point x="192" y="636" type="line"/>
      <point x="540" y="636" type="line"/>
      <point x="540" y="720" type="line"/>
      <point x="96" y="720" type="line"/>
    </contour>
  </outline>
</glyph>
<glyph name="G" format="1">
  <advance width="684"/>
  <unicode hex="0047"/>
  <outline>
    <contour>
      <point x="56" y="360" type="curve" smooth="yes" name="hr00"/>
      <point x="56" y="136"/>
      <point x="176" y="-12"/>
      <point x="420" y="-12" type="curve" smooth="yes"/>
      <point x="492" y="-12"/>
      <point x="560" y="4"/>
      <point x="604" y="28" type="curve"/>
      <point x="604" y="364" type="line"/>
      <point x="508" y="364" type="line"/>
      <point x="508" y="84" type="line"/>
      <point x="481" y="77"/>
      <point x="451" y="72"/>
      <point x="420" y="72" type="curve" smooth="yes"/>
      <point x="256" y="72"/>
      <point x="156" y="160"/>
      <point x="156" y="360" type="curve" smooth="yes"/>
      <point x="156" y="556"/>
      <point x="260" y="644"/>
      <point x="428" y="644" type="curve" smooth="yes"/>
      <point x="496" y="644"/>
      <point x="552" y="626"/>
      <point x="588" y="608" type="curve"/>
      <point x="596" y="608" type="line"/>
      <point x="596" y="700" type="line"/>
      <point x="556" y="720"/>
      <point x="500" y="732"/>
      <point x="428" y="732" type="curve" smooth="yes"/>
      <point x="192" y="732"/>
      <point x="56" y="584"/>
    </contour>
    <contour>
      <point x="380" y="720" type="move" name="top"/>
    </contour>
    <contour>
      <point x="380" y="-4" type="move" name="bottom"/>
    </contour>
  </outline>
</glyph>
<glyph name="H" format="1">
  <advance width="736"/>
  <unicode hex="0048"/>
  <outline>
    <contour>
      <point x="96" y="0" type="line" name="hr00"/>
      <point x="192" y="0" type="line"/>
      <point x="192" y="332" type="line"/>
      <point x="544" y="332" type="line"/>
      <point x="544" y="0" type="line"/>
      <point x="640" y="0" type="line"/>
      <point x="640" y="720" type="line"/>
      <point x="544" y="720" type="line"/>
      <point x="544" y="416" type="line"/>
      <point x="192" y="416" type="line"/>
      <point x="192" y="720" type="line"/>
      <point x="96" y="720" type="line"/>
    </contour>
    <contour>
      <point x="368" y="720" type="move" name="top"/>
    </contour>
    <contour>
      <point x="368" y="0" type="move" name="bottom"/>
    </contour>
  </outline>
</glyph>
<glyph name="I" format="1">
  <advance width="288"/>
  <unicode hex="0049"/>
  <outline>
    <contour>
      <point x="96" y="0" type="line" name="hr00"/>
      <point x="192" y="0" type="line"/>
      <point x="192" y="720" type="line"/>
      <point x="96" y="720" type="line"/>
    </contour>
    <contour>
      <point x="144" y="720" type="move" name="top"/>
    </contour>
    <contour>
      <point x="144" y="0" type="move" name="bottom"/>
    </contour>
  </outline>
</glyph>
<glyph name="J" format="1">
  <advance width="412"/>
  <unicode hex="004A"/>
  <outline>
    <contour>
      <point x="12" y="0" type="line" name="hr00"/>
      <point x="36" y="-6"/>
      <point x="76" y="-12"/>
      <point x="112" y="-12" type="curve" smooth="yes"/>
      <point x="256" y="-12"/>
      <point x="332" y="72"/>
      <point x="332" y="204" type="curve" smooth="yes"/>
      <point x="332" y="720" type="line"/>
      <point x="236" y="720" type="line"/>
      <point x="236" y="192" type="line" smooth="yes"/>
      <point x="236" y="116"/>
      <point x="192" y="72"/>
      <point x="112" y="72" type="curve" smooth="yes"/>
      <point x="84" y="72"/>
      <point x="36" y="78"/>
      <point x="20" y="84" type="curve"/>
      <point x="12" y="84" type="line"/>
    </contour>
    <contour>
      <point x="284" y="720" type="move" name="top"/>
    </contour>
  </outline>
</glyph>
<glyph name="K" format="1">
  <advance width="672"/>
  <unicode hex="004B"/>
  <outline>
    <contour>
      <point x="114" y="0" type="line" name="hr00"/>
      <point x="210" y="0" type="line"/>
      <point x="210" y="280" type="line"/>
      <point x="290" y="280" type="line" smooth="yes"/>
      <point x="311" y="280"/>
      <point x="330" y="283"/>
      <point x="349" y="289" type="curve"/>
      <point x="526" y="0" type="line"/>
      <point x="634" y="0" type="line"/>
      <point x="634" y="8" type="line"/>
      <point x="428" y="335" type="line"/>
      <point x="456" y="359"/>
      <point x="477" y="390"/>
      <point x="492" y="420" type="curve" smooth="yes"/>
      <point x="632" y="712" type="line"/>
      <point x="632" y="720" type="line"/>
      <point x="532" y="720" type="line"/>
      <point x="404" y="448" type="line" smooth="yes"/>
      <point x="382" y="400"/>
      <point x="352" y="364"/>
      <point x="284" y="364" type="curve" smooth="yes"/>
      <point x="210" y="364" type="line"/>
      <point x="210" y="720" type="line"/>
      <point x="114" y="720" type="line"/>
    </contour>
    <contour>
      <point x="350" y="0" type="move" name="bottom"/>
    </contour>
  </outline>
</glyph>
<glyph name="L" format="1">
  <advance width="532"/>
  <unicode hex="004C"/>
  <outline>
    <contour>
      <point x="96" y="0" type="line" name="hr00"/>
      <point x="500" y="0" type="line"/>
      <point x="500" y="84" type="line"/>
      <point x="192" y="84" type="line"/>
      <point x="192" y="720" type="line"/>
      <point x="96" y="720" type="line"/>
    </contour>
    <contour>
      <point x="144" y="720" type="move" name="top"/>
    </contour>
    <contour>
      <point x="300" y="0" type="move" name="bottom"/>
    </contour>
  </outline>
</glyph>
<glyph name="M" format="1">
  <advance width="820"/>
  <unicode hex="004D"/>
  <outline>
    <contour>
      <point x="96" y="0" type="line" name="hr00"/>
      <point x="192" y="0" type="line"/>
      <point x="192" y="525" type="line"/>
      <point x="372" y="248" type="line"/>
      <point x="448" y="248" type="line"/>
      <point x="628" y="525" type="line"/>
      <point x="628" y="0" type="line"/>
      <point x="724" y="0" type="line"/>
      <point x="724" y="720" type="line"/>
      <point x="644" y="720" type="line"/>
      <point x="410" y="356" type="line"/>
      <point x="176" y="720" type="line"/>
      <point x="96" y="720" type="line"/>
    </contour>
  </outline>
</glyph>
<glyph name="N" format="1">
  <advance width="736"/>
  <unicode hex="004E"/>
  <outline>
    <contour>
      <point x="96" y="0" type="line" name="hr00"/>
      <point x="192" y="0" type="line"/>
      <point x="192" y="568" type="line"/>
      <point x="544" y="196" type="line"/>
      <point x="544" y="0" type="line"/>
      <point x="640" y="0" type="line"/>
      <point x="640" y="720" type="line"/>
      <point x="544" y="720" type="line"/>
      <point x="544" y="331" type="line"/>
      <point x="176" y="720" type="line"/>
      <point x="96" y="720" type="line"/>
    </contour>
    <contour>
      <point x="368" y="720" type="move" name="top"/>
    </contour>
    <contour>
      <point x="368" y="0" type="move" name="bottom"/>
    </contour>
  </outline>
</glyph>
<glyph name="O" format="1">
  <advance width="784"/>
  <unicode hex="004F"/>
  <outline>
    <contour>
      <point x="56" y="360" type="curve" smooth="yes" name="hr00"/>
      <point x="56" y="140"/>
      <point x="182" y="-12"/>
      <point x="392" y="-12" type="curve" smooth="yes"/>
      <point x="600" y="-12"/>
      <point x="728" y="140"/>
      <point x="728" y="360" type="curve" smooth="yes"/>
      <point x="728" y="580"/>
      <point x="600" y="732"/>
      <point x="392" y="732" type="curve" smooth="yes"/>
      <point x="184" y="732"/>
      <point x="56" y="580"/>
    </contour>
    <contour>
      <point x="156" y="360" type="curve" smooth="yes"/>
      <point x="156" y="544"/>
      <point x="248" y="644"/>
      <point x="392" y="644" type="curve" smooth="yes"/>
      <point x="536" y="644"/>
      <point x="628" y="544"/>
      <point x="628" y="360" type="curve" smooth="yes"/>
      <point x="628" y="176"/>
      <point x="536" y="76"/>
      <point x="392" y="76" type="curve" smooth="yes"/>
      <point x="248" y="76"/>
      <point x="156" y="176"/>
    </contour>
    <contour>
      <point x="392" y="720" type="move" name="top"/>
    </contour>
  </outline>
</glyph>
<glyph name="P" format="1">
  <advance width="620"/>
  <unicode hex="0050"/>
  <outline>
    <contour>
      <point x="96" y="0" type="line" name="hr00"/>
      <point x="192" y="0" type="line"/>
      <point x="192" y="240" type="line"/>
      <point x="308" y="240" type="line" smooth="yes"/>
      <point x="500" y="240"/>
      <point x="580" y="380"/>
      <point x="580" y="512" type="curve" smooth="yes"/>
      <point x="580" y="652"/>
      <point x="488" y="720"/>
      <point x="352" y="720" type="curve" smooth="yes"/>
      <point x="96" y="720" type="line"/>
    </contour>
    <contour>
      <point x="348" y="636" type="line" smooth="yes"/>
      <point x="428" y="636"/>
      <point x="480" y="604"/>
      <point x="480" y="512" type="curve" smooth="yes"/>
      <point x="480" y="408"/>
      <point x="428" y="324"/>
      <point x="308" y="324" type="curve" smooth="yes"/>
      <point x="192" y="324" type="line"/>
      <point x="192" y="636" type="line"/>
    </contour>
  </outline>
</glyph>
<glyph name="Q" format="1">
  <advance width="784"/>
  <unicode hex="0051"/>
  <outline>
    <contour>
      <point x="56" y="360" type="curve" smooth="yes"/>
      <point x="56" y="140"/>
      <point x="182" y="-12"/>
      <point x="392" y="-12" type="curve" smooth="yes"/>
      <point x="413" y="-12"/>
      <point x="434" y="-10"/>
      <point x="453" y="-7" type="curve"/>
      <point x="632" y="-158" type="line" name="hr01"/>
      <point x="764" y="-158" type="line"/>
      <point x="764" y="-150" type="line"/>
      <point x="552" y="25" type="line"/>
      <point x="664" y="83"/>
      <point x="728" y="204"/>
      <point x="728" y="360" type="curve" smooth="yes"/>
      <point x="728" y="580"/>
      <point x="600" y="732"/>
      <point x="392" y="732" type="curve" smooth="yes"/>
      <point x="184" y="732"/>
      <point x="56" y="580"/>
    </contour>
    <contour>
      <point x="156" y="360" type="curve" smooth="yes"/>
      <point x="156" y="544"/>
      <point x="248" y="644"/>
      <point x="392" y="644" type="curve" smooth="yes"/>
      <point x="536" y="644"/>
      <point x="628" y="544"/>
      <point x="628" y="360" type="curve" smooth="yes"/>
      <point x="628" y="176"/>
      <point x="536" y="76"/>
      <point x="392" y="76" type="curve" smooth="yes"/>
      <point x="248" y="76"/>
      <point x="156" y="176"/>
    </contour>
  </outline>
</glyph>
<glyph name="R" format="1">
  <advance width="660"/>
  <unicode hex="0052"/>
  <outline>
    <contour>
      <point x="96" y="0" type="line" name="hr00"/>
      <point x="192" y="0" type="line"/>
      <point x="192" y="216" type="line"/>
      <point x="320" y="216" type="line" smooth="yes"/>
      <point x="332" y="216"/>
      <point x="343" y="217"/>
      <point x="355" y="218" type="curve"/>
      <point x="524" y="0" type="line"/>
      <point x="636" y="0" type="line"/>
      <point x="636" y="4" type="line"/>
      <point x="447" y="244" type="line"/>
      <point x="546" y="294"/>
      <point x="592" y="401"/>
      <point x="592" y="496" type="curve" smooth="yes"/>
      <point x="592" y="640"/>
      <point x="500" y="720"/>
      <point x="356" y="720" type="curve" smooth="yes"/>
      <point x="96" y="720" type="line"/>
    </contour>
    <contour>
      <point x="352" y="636" type="line" smooth="yes"/>
      <point x="436" y="636"/>
      <point x="492" y="592"/>
      <point x="492" y="496" type="curve" smooth="yes"/>
      <point x="492" y="396"/>
      <point x="436" y="304"/>
      <point x="324" y="304" type="curve" smooth="yes"/>
      <point x="192" y="304" type="line"/>
      <point x="192" y="636" type="line"/>
    </contour>
    <contour>
      <point x="324" y="720" type="move" name="top"/>
    </contour>
    <contour>
      <point x="340" y="0" type="move" name="bottom"/>
    </contour>
  </outline>
</glyph>
<glyph name="S" format="1">
  <advance width="584"/>
  <unicode hex="0053"/>
  <outline>
    <contour>
      <point x="64" y="24" type="line" name="hr00"/>
      <point x="116" y="4"/>
      <point x="188" y="-12"/>
      <point x="272" y="-12" type="curve" smooth="yes"/>
      <point x="428" y="-12"/>
      <point x="534" y="52"/>
      <point x="534" y="184" type="curve" smooth="yes"/>
      <point x="534" y="292"/>
      <point x="465" y="346"/>
      <point x="364" y="364" type="curve" smooth="yes"/>
      <point x="276" y="380" type="line" smooth="yes"/>
      <point x="199" y="394"/>
      <point x="152" y="420"/>
      <point x="152" y="504" type="curve" smooth="yes"/>
      <point x="152" y="604"/>
      <point x="240" y="644"/>
      <point x="352" y="644" type="curve" smooth="yes"/>
      <point x="420" y="644"/>
      <point x="468" y="628"/>
      <point x="500" y="612" type="curve"/>
      <point x="508" y="612" type="line"/>
      <point x="508" y="704" type="line"/>
      <point x="472" y="720"/>
      <point x="412" y="732"/>
      <point x="356" y="732" type="curve" smooth="yes"/>
      <point x="176" y="732"/>
      <point x="56" y="660"/>
      <point x="56" y="500" type="curve" smooth="yes"/>
      <point x="56" y="372"/>
      <point x="139" y="314"/>
      <point x="240" y="296" type="curve" smooth="yes"/>
      <point x="328" y="280" type="line" smooth="yes"/>
      <point x="401" y="267"/>
      <point x="438" y="244"/>
      <point x="438" y="180" type="curve" smooth="yes"/>
      <point x="438" y="100"/>
      <point x="368" y="76"/>
      <point x="272" y="76" type="curve" smooth="yes"/>
      <point x="188" y="76"/>
      <point x="120" y="92"/>
      <point x="72" y="118" type="curve"/>
      <point x="64" y="118" type="line"/>
    </contour>
    <contour>
      <point x="308" y="720" type="move" name="top"/>
    </contour>
    <contour>
      <point x="284" y="0" type="move" name="bottom"/>
    </contour>
  </outline>
</glyph>
<glyph name="T" format="1">
  <advance width="584"/>
  <unicode hex="0054"/>
  <outline>
    <contour>
      <point x="12" y="636" type="line" name="hr00"/>
      <point x="244" y="636" type="line"/>
      <point x="244" y="0" type="line"/>
      <point x="340" y="0" type="line"/>
      <point x="340" y="636" type="line"/>
      <point x="572" y="636" type="line"/>
      <point x="572" y="720" type="line"/>
      <point x="12" y="720" type="line"/>
    </contour>
    <contour>
      <point x="292" y="720" type="move" name="top"/>
    </contour>
    <contour>
      <point x="292" y="0" type="move" name="bottom"/>
    </contour>
  </outline>
</glyph>
<glyph name="U" format="1">
  <advance width="704"/>
  <unicode hex="0055"/>
  <outline>
    <contour>
      <point x="88" y="268" type="line" smooth="yes" name="hr00"/>
      <point x="88" y="84"/>
      <point x="176" y="-12"/>
      <point x="352" y="-12" type="curve" smooth="yes"/>
      <point x="524" y="-12"/>
      <point x="616" y="84"/>
      <point x="616" y="268" type="curve" smooth="yes"/>
      <point x="616" y="720" type="line"/>
      <point x="520" y="720" type="line"/>
      <point x="520" y="268" type="line" smooth="yes"/>
      <point x="520" y="128"/>
      <point x="464" y="76"/>
      <point x="352" y="76" type="curve" smooth="yes"/>
      <point x="240" y="76"/>
      <point x="184" y="128"/>
      <point x="184" y="268" type="curve" smooth="yes"/>
      <point x="184" y="720" type="line"/>
      <point x="88" y="720" type="line"/>
    </contour>
    <contour>
      <point x="352" y="720" type="move" name="top"/>
    </contour>
    <contour>
      <point x="408" y="0" type="move" name="bottom"/>
    </contour>
  </outline>
</glyph>
<glyph name="V" format="1">
  <advance width="646"/>
  <unicode hex="0056"/>
  <outline>
    <contour>
      <point x="90" y="16" type="curve" name="hr00"/>
      <point x="92" y="4" type="line"/>
      <point x="144" y="-8"/>
      <point x="188" y="-12"/>
      <point x="236" y="-12" type="curve" smooth="yes"/>
      <point x="436" y="-12"/>
      <point x="502" y="76"/>
      <point x="526" y="236" type="curve" smooth="yes"/>
      <point x="598" y="720" type="line"/>
      <point x="500" y="720" type="line"/>
      <point x="428" y="232" type="line" smooth="yes"/>
      <point x="413" y="133"/>
      <point x="372" y="72"/>
      <point x="240" y="72" type="curve" smooth="yes"/>
      <point x="220" y="72"/>
      <point x="204" y="73"/>
      <point x="190" y="75" type="curve"/>
      <point x="191" y="90"/>
      <point x="192" y="107"/>
      <point x="192" y="124" type="curve" smooth="yes"/>
      <point x="192" y="720" type="line"/>
      <point x="96" y="720" type="line"/>
      <point x="96" y="176" type="line" smooth="yes"/>
      <point x="96" y="136"/>
      <point x="96" y="56"/>
    </contour>
  </outline>
</glyph>
<glyph name="W" format="1">
  <advance width="1044"/>
  <unicode hex="0057"/>
  <outline>
    <contour>
      <point x="124" y="16" type="curve" name="hr00"/>
      <point x="126" y="4" type="line"/>
      <point x="178" y="-8"/>
      <point x="214" y="-12"/>
      <point x="262" y="-12" type="curve" smooth="yes"/>
      <point x="418" y="-12"/>
      <point x="463" y="77"/>
      <point x="496" y="236" type="curve" smooth="yes"/>
      <point x="506" y="283" type="line"/>
      <point x="518" y="176" type="line" smooth="yes"/>
      <point x="523" y="136"/>
      <point x="526" y="56"/>
      <point x="524" y="16" type="curve"/>
      <point x="526" y="4" type="line"/>
      <point x="578" y="-8"/>
      <point x="614" y="-12"/>
      <point x="662" y="-12" type="curve" smooth="yes"/>
      <point x="826" y="-12"/>
      <point x="880" y="77"/>
      <point x="912" y="236" type="curve" smooth="yes"/>
      <point x="1008" y="720" type="line"/>
      <point x="910" y="720" type="line"/>
      <point x="814" y="232" type="line" smooth="yes"/>
      <point x="795" y="134"/>
      <point x="762" y="72"/>
      <point x="666" y="72" type="curve" smooth="yes"/>
      <point x="642" y="72"/>
      <point x="629" y="74"/>
      <point x="616" y="77" type="curve"/>
      <point x="616" y="111"/>
      <point x="615" y="151"/>
      <point x="612" y="176" type="curve" smooth="yes"/>
      <point x="554" y="720" type="line"/>
      <point x="456" y="720" type="line"/>
      <point x="477" y="535" type="line"/>
      <point x="414" y="232" type="line" smooth="yes"/>
      <point x="394" y="134"/>
      <point x="362" y="72"/>
      <point x="266" y="72" type="curve" smooth="yes"/>
      <point x="242" y="72"/>
      <point x="229" y="74"/>
      <point x="216" y="77" type="curve"/>
      <point x="216" y="111"/>
      <point x="215" y="151"/>
      <point x="212" y="176" type="curve" smooth="yes"/>
      <point x="154" y="720" type="line"/>
      <point x="56" y="720" type="line"/>
      <point x="118" y="176" type="line" smooth="yes"/>
      <point x="123" y="136"/>
      <point x="126" y="56"/>
    </contour>
    <contour>
      <point x="516" y="720" type="move" name="top"/>
    </contour>
  </outline>
</glyph>
<glyph name="X" format="1">
  <advance width="656"/>
  <unicode hex="0058"/>
  <outline>
    <contour>
      <point x="32" y="0" type="line" name="hr00"/>
      <point x="136" y="0" type="line"/>
      <point x="324" y="280" type="line"/>
      <point x="516" y="0" type="line"/>
      <point x="624" y="0" type="line"/>
      <point x="624" y="8" type="line"/>
      <point x="380" y="363" type="line"/>
      <point x="620" y="712" type="line"/>
      <point x="620" y="720" type="line"/>
      <point x="516" y="720" type="line"/>
      <point x="328" y="440" type="line"/>
      <point x="136" y="720" type="line"/>
      <point x="28" y="720" type="line"/>
      <point x="28" y="712" type="line"/>
      <point x="271" y="357" type="line"/>
      <point x="32" y="8" type="line"/>
    </contour>
  </outline>
</glyph>
<glyph name="Y" format="1">
  <advance width="612"/>
  <unicode hex="0059"/>
  <outline>
    <contour>
      <point x="260" y="0" type="line" name="hr00"/>
      <point x="356" y="0" type="line"/>
      <point x="356" y="306" type="line"/>
      <point x="604" y="712" type="line"/>
      <point x="604" y="720" type="line"/>
      <point x="500" y="720" type="line"/>
      <point x="309" y="395" type="line"/>
      <point x="116" y="720" type="line"/>
      <point x="8" y="720" type="line"/>
      <point x="8" y="712" type="line"/>
      <point x="260" y="300" type="line"/>
    </contour>
    <contour>
      <point x="306" y="720" type="move" name="top"/>
    </contour>
  </outline>
</glyph>
<glyph name="Z" format="1">
  <advance width="586"/>
  <unicode hex="005A"/>
  <outline>
    <contour>
      <point x="54" y="0" type="line" name="hr00"/>
      <point x="546" y="0" type="line"/>
      <point x="546" y="84" type="line"/>
      <point x="173" y="84" type="line"/>
      <point x="510" y="632" type="line" smooth="yes"/>
      <point x="524" y="655"/>
      <point x="531" y="671"/>
      <point x="534" y="683" type="curve" smooth="yes"/>
      <point x="537" y="696"/>
      <point x="536" y="705"/>
      <point x="534" y="712" type="curve"/>
      <point x="526" y="720" type="line"/>
      <point x="50" y="720" type="line"/>
      <point x="50" y="636" type="line"/>
      <point x="406" y="636" type="line"/>
      <point x="70" y="88" type="line" smooth="yes"/>
      <point x="56" y="66"/>
      <point x="49" y="49"/>
      <point x="46" y="37" type="curve"/>
      <point x="44" y="24"/>
      <point x="45" y="16"/>
      <point x="46" y="8" type="curve"/>
    </contour>
    <contour>
      <point x="295" y="720" type="move" name="top"/>
    </contour>
    <contour>
      <point x="296" y="0" type="move" name="bottom"/>
    </contour>
  </outline>
</glyph>
<glyph name="bracketleft" format="1">
  <advance width="344"/>
  <unicode hex="005B"/>
  <outline>
    <contour>
      <point x="112" y="-88" type="line"/>
      <point x="320" y="-88" type="line"/>
      <point x="320" y="-12" type="line"/>
      <point x="196" y="-12" type="line" name="hr01"/>
      <point x="196" y="684" type="line"/>
      <point x="320" y="684" type="line" name="hr02"/>
      <point x="320" y="760" type="line"/>
      <point x="112" y="760" type="line"/>
    </contour>
  </outline>
</glyph>
<glyph name="bracketright" format="1">
  <advance width="344"/>
  <unicode hex="005D"/>
  <outline>
    <contour>
      <point x="24" y="-88" type="line"/>
      <point x="232" y="-88" type="line"/>
      <point x="232" y="760" type="line"/>
      <point x="24" y="760" type="line"/>
      <point x="24" y="684" type="line"/>
      <point x="148" y="684" type="line" name="hr01"/>
      <point x="148" y="-12" type="line"/>
      <point x="24" y="-12" type="line" name="hr02"/>
    </contour>
  </outline>
</glyph>
<glyph name="asciicircum" format="1">
  <advance width="616"/>
  <unicode hex="005E"/>
  <outline>
    <contour>
      <point x="173" y="400" type="line" name="hr00"/>
      <point x="308" y="620" type="line"/>
      <point x="443" y="400" type="line"/>
      <point x="531" y="400" type="line"/>
      <point x="531" y="408" type="line"/>
      <point x="336" y="732" type="line"/>
      <point x="280" y="732" type="line"/>
      <point x="85" y="408" type="line"/>
      <point x="85" y="400" type="line"/>
    </contour>
  </outline>
</glyph>
<glyph name="underscore" format="1">
  <advance width="500"/>
  <unicode hex="005F"/>
  <outline>
    <contour>
      <point x="16" y="-12" type="line" name="hr00"/>
      <point x="16" y="-90" type="line"/>
      <point x="484" y="-90" type="line"/>
      <point x="484" y="-12" type="line"/>
    </contour>
  </outline>
</glyph>
<glyph name="grave" format="1">
  <advance width="612"/>
  <unicode hex="0060"/>
  <outline>
    <contour>
      <point x="356" y="604" type="line" name="hr00"/>
      <point x="356" y="608" type="line"/>
      <point x="265" y="760" type="line"/>
      <point x="149" y="760" type="line"/>
      <point x="149" y="756" type="line"/>
      <point x="280" y="604" type="line"/>
    </contour>
    <contour>
      <point x="306" y="544" type="move" name="_top"/>
    </contour>
  </outline>
</glyph>
<glyph name="a" format="1">
  <advance width="590"/>
  <unicode hex="0061"/>
  <outline>
    <contour>
      <point x="52" y="160" type="curve" smooth="yes" name="hr00"/>
      <point x="52" y="276"/>
      <point x="142" y="332"/>
      <point x="286" y="332" type="curve" smooth="yes"/>
      <point x="339" y="332"/>
      <point x="385" y="321"/>
      <point x="410" y="313" type="curve"/>
      <point x="410" y="328" type="line" smooth="yes"/>
      <point x="410" y="456"/>
      <point x="358" y="476"/>
      <point x="254" y="476" type="curve" smooth="yes"/>
      <point x="202" y="476"/>
      <point x="142" y="460"/>
      <point x="110" y="444" type="curve"/>
      <point x="102" y="444" type="line"/>
      <point x="102" y="526" type="line"/>
      <point x="150" y="546"/>
      <point x="214" y="556"/>
      <point x="266" y="556" type="curve" smooth="yes"/>
      <point x="398" y="556"/>
      <point x="502" y="520"/>
      <point x="502" y="332" type="curve" smooth="yes"/>
      <point x="502" y="200" type="line" smooth="yes"/>
      <point x="502" y="160"/>
      <point x="502" y="72"/>
      <point x="510" y="36" type="curve"/>
      <point x="508" y="28" type="line"/>
      <point x="442" y="4"/>
      <point x="346" y="-12"/>
      <point x="286" y="-12" type="curve" smooth="yes"/>
      <point x="130" y="-12"/>
      <point x="52" y="44"/>
    </contour>
    <contour>
      <point x="414" y="81" type="curve"/>
      <point x="411" y="100"/>
      <point x="410" y="123"/>
      <point x="410" y="148" type="curve" smooth="yes"/>
      <point x="410" y="241" type="line"/>
      <point x="382" y="248"/>
      <point x="344" y="256"/>
      <point x="302" y="256" type="curve" smooth="yes"/>
      <point x="194" y="256"/>
      <point x="142" y="232"/>
      <point x="142" y="160" type="curve" smooth="yes"/>
      <point x="142" y="92"/>
      <point x="194" y="64"/>
      <point x="290" y="64" type="curve" smooth="yes"/>
      <point x="334" y="64"/>
      <point x="376" y="70"/>
    </contour>
    <contour>
      <point x="282" y="544" type="move" name="top"/>
    </contour>
    <contour>
      <point x="410" y="0" type="move" name="bottom"/>
    </contour>
  </outline>
</glyph>
<glyph name="b" format="1">
  <advance width="618"/>
  <unicode hex="0062"/>
  <outline>
    <contour>
      <point x="90" y="24" type="line" name="hr00"/>
      <point x="142" y="4"/>
      <point x="216" y="-12"/>
      <point x="284" y="-12" type="curve" smooth="yes"/>
      <point x="460" y="-12"/>
      <point x="566" y="96"/>
      <point x="566" y="276" type="curve" smooth="yes"/>
      <point x="566" y="448"/>
      <point x="464" y="556"/>
      <point x="292" y="556" type="curve" smooth="yes"/>
      <point x="253" y="556"/>
      <point x="214" y="548"/>
      <point x="188" y="540" type="curve"/>
      <point x="188" y="760" type="line"/>
      <point x="90" y="760" type="line"/>
      <point x="88" y="752" type="line"/>
      <point x="96" y="716"/>
      <point x="96" y="628"/>
      <point x="96" y="588" type="curve" smooth="yes"/>
      <point x="96" y="196" type="line" smooth="yes"/>
      <point x="96" y="156"/>
      <point x="96" y="68"/>
      <point x="88" y="32" type="curve"/>
    </contour>
    <contour>
      <point x="188" y="148" type="curve"/>
      <point x="188" y="463" type="line"/>
      <point x="207" y="469"/>
      <point x="239" y="476"/>
      <point x="284" y="476" type="curve" smooth="yes"/>
      <point x="408" y="476"/>
      <point x="472" y="400"/>
      <point x="472" y="276" type="curve" smooth="yes"/>
      <point x="472" y="140"/>
      <point x="412" y="68"/>
      <point x="284" y="68" type="curve" smooth="yes"/>
      <point x="248" y="68"/>
      <point x="213" y="74"/>
      <point x="184" y="82" type="curve"/>
      <point x="187" y="101"/>
      <point x="188" y="124"/>
    </contour>
  </outline>
</glyph>
<glyph name="c" format="1">
  <advance width="504"/>
  <unicode hex="0063"/>
  <outline>
    <contour>
      <point x="52" y="274" type="curve" smooth="yes" name="hr00"/>
      <point x="52" y="96"/>
      <point x="160" y="-8"/>
      <point x="344" y="-8" type="curve" smooth="yes"/>
      <point x="392" y="-8"/>
      <point x="436" y="0"/>
      <point x="468" y="14" type="curve"/>
      <point x="468" y="96" type="line"/>
      <point x="460" y="96" type="line"/>
      <point x="432" y="82"/>
      <point x="392" y="72"/>
      <point x="344" y="72" type="curve" smooth="yes"/>
      <point x="224" y="72"/>
      <point x="146" y="140"/>
      <point x="146" y="274" type="curve" smooth="yes"/>
      <point x="146" y="408"/>
      <point x="224" y="476"/>
      <point x="344" y="476" type="curve" smooth="yes"/>
      <point x="392" y="476"/>
      <point x="432" y="466"/>
      <point x="460" y="452" type="curve"/>
      <point x="468" y="452" type="line"/>
      <point x="468" y="534" type="line"/>
      <point x="436" y="548"/>
      <point x="392" y="556"/>
      <point x="344" y="556" type="curve" smooth="yes"/>
      <point x="164" y="556"/>
      <point x="52" y="452"/>
    </contour>
    <contour>
      <point x="312" y="544" type="move" name="top"/>
    </contour>
    <contour>
      <point x="304" y="0" type="move" name="bottom"/>
    </contour>
  </outline>
</glyph>
<glyph name="d" format="1">
  <advance width="618"/>
  <unicode hex="0064"/>
  <outline>
    <contour>
      <point x="52" y="274" type="curve" smooth="yes" name="hr00"/>
      <point x="52" y="96"/>
      <point x="152" y="-12"/>
      <point x="332" y="-12" type="curve" smooth="yes"/>
      <point x="408" y="-12"/>
      <point x="472" y="6"/>
      <point x="528" y="28" type="curve"/>
      <point x="530" y="36" type="line"/>
      <point x="522" y="72"/>
      <point x="522" y="160"/>
      <point x="522" y="200" type="curve" smooth="yes"/>
      <point x="522" y="760" type="line"/>
      <point x="424" y="760" type="line"/>
      <point x="422" y="752" type="line"/>
      <point x="430" y="716"/>
      <point x="430" y="628"/>
      <point x="430" y="588" type="curve" smooth="yes"/>
      <point x="430" y="544" type="line"/>
      <point x="407" y="551"/>
      <point x="376" y="556"/>
      <point x="340" y="556" type="curve" smooth="yes"/>
      <point x="168" y="556"/>
      <point x="52" y="452"/>
    </contour>
    <contour>
      <point x="434" y="83" type="curve"/>
      <point x="408" y="74"/>
      <point x="377" y="68"/>
      <point x="340" y="68" type="curve" smooth="yes"/>
      <point x="214" y="68"/>
      <point x="146" y="132"/>
      <point x="146" y="274" type="curve" smooth="yes"/>
      <point x="146" y="404"/>
      <point x="216" y="476"/>
      <point x="346" y="476" type="curve" smooth="yes"/>
      <point x="384" y="476"/>
      <point x="412" y="469"/>
      <point x="430" y="463" type="curve"/>
      <point x="430" y="152" type="line" smooth="yes"/>
      <point x="430" y="127"/>
      <point x="431" y="103"/>
    </contour>
    <contour>
      <point x="324" y="0" type="move" name="bottom"/>
    </contour>
  </outline>
</glyph>
<glyph name="e" format="1">
  <advance width="597"/>
  <unicode hex="0065"/>
  <outline>
    <contour>
      <point x="543" y="240" type="line" name="hr00"/>
      <point x="544" y="268" type="line" smooth="yes"/>
      <point x="550" y="440"/>
      <point x="480" y="556"/>
      <point x="304" y="556" type="curve" smooth="yes"/>
      <point x="152" y="556"/>
      <point x="52" y="444"/>
      <point x="52" y="274" type="curve" smooth="yes"/>
      <point x="52" y="92"/>
      <point x="148" y="-8"/>
      <point x="352" y="-8" type="curve" smooth="yes"/>
      <point x="424" y="-8"/>
      <point x="476" y="6"/>
      <point x="508" y="22" type="curve"/>
      <point x="508" y="104" type="line"/>
      <point x="500" y="104" type="line"/>
      <point x="472" y="88"/>
      <point x="424" y="72"/>
      <point x="356" y="72" type="curve" smooth="yes"/>
      <point x="233" y="72"/>
      <point x="157" y="120"/>
      <point x="147" y="240" type="curve"/>
    </contour>
    <contour>
      <point x="304" y="476" type="curve" smooth="yes"/>
      <point x="400" y="476"/>
      <point x="448" y="424"/>
      <point x="448" y="324" type="curve" smooth="yes"/>
      <point x="448" y="316" type="line"/>
      <point x="147" y="316" type="line"/>
      <point x="155" y="427"/>
      <point x="219" y="476"/>
    </contour>
    <contour>
      <point x="308" y="544" type="move" name="top"/>
    </contour>
    <contour>
      <point x="396" y="-4" type="move" name="bottom"/>
    </contour>
  </outline>
</glyph>
<glyph name="f" format="1">
  <advance width="336"/>
  <unicode hex="0066"/>
  <outline>
    <contour>
      <point x="16" y="464" type="line" name="hr00"/>
      <point x="100" y="464" type="line"/>
      <point x="100" y="0" type="line"/>
      <point x="192" y="0" type="line"/>
      <point x="192" y="464" type="line"/>
      <point x="344" y="464" type="line"/>
      <point x="344" y="544" type="line"/>
      <point x="192" y="544" type="line"/>
      <point x="192" y="560" type="line" smooth="yes"/>
      <point x="192" y="644"/>
      <point x="224" y="680"/>
      <point x="296" y="680" type="curve" smooth="yes"/>
      <point x="328" y="680"/>
      <point x="344" y="676"/>
      <point x="364" y="668" type="curve"/>
      <point x="372" y="668" type="line"/>
      <point x="372" y="748" type="line"/>
      <point x="352" y="756"/>
      <point x="328" y="760"/>
      <point x="296" y="760" type="curve" smooth="yes"/>
      <point x="152" y="760"/>
      <point x="100" y="668"/>
      <point x="100" y="560" type="curve" smooth="yes"/>
      <point x="100" y="544" type="line"/>
      <point x="16" y="544" type="line"/>
    </contour>
  </outline>
</glyph>
<glyph name="g" format="1">
  <advance width="618"/>
  <unicode hex="0067"/>
  <outline>
    <contour>
      <point x="100" y="-132" type="line" name="hr00"/>
      <point x="100" y="-214" type="line"/>
      <point x="140" y="-232"/>
      <point x="204" y="-240"/>
      <point x="252" y="-240" type="curve" smooth="yes"/>
      <point x="424" y="-240"/>
      <point x="522" y="-144"/>
      <point x="522" y="8" type="curve" smooth="yes"/>
      <point x="522" y="348" type="line" smooth="yes"/>
      <point x="522" y="388"/>
      <point x="522" y="476"/>
      <point x="530" y="512" type="curve"/>
      <point x="528" y="520" type="line"/>
      <point x="476" y="540"/>
      <point x="404" y="556"/>
      <point x="344" y="556" type="curve" smooth="yes"/>
      <point x="160" y="556"/>
      <point x="52" y="448"/>
      <point x="52" y="276" type="curve" smooth="yes"/>
      <point x="52" y="96"/>
      <point x="168" y="4"/>
      <point x="340" y="4" type="curve" smooth="yes"/>
      <point x="372" y="4"/>
      <point x="405" y="9"/>
      <point x="430" y="16" type="curve"/>
      <point x="430" y="4" type="line" smooth="yes"/>
      <point x="430" y="-104"/>
      <point x="376" y="-160"/>
      <point x="252" y="-160" type="curve" smooth="yes"/>
      <point x="209" y="-160"/>
      <point x="152" y="-152"/>
      <point x="108" y="-132" type="curve"/>
    </contour>
    <contour>
      <point x="344" y="84" type="curve" smooth="yes"/>
      <point x="212" y="84"/>
      <point x="146" y="148"/>
      <point x="146" y="276" type="curve" smooth="yes"/>
      <point x="146" y="408"/>
      <point x="212" y="476"/>
      <point x="344" y="476" type="curve" smooth="yes"/>
      <point x="378" y="476"/>
      <point x="408" y="470"/>
      <point x="433" y="463" type="curve"/>
      <point x="431" y="444"/>
      <point x="430" y="423"/>
      <point x="430" y="400" type="curve" smooth="yes"/>
      <point x="430" y="97" type="line"/>
      <point x="411" y="90"/>
      <point x="381" y="84"/>
    </contour>
    <contour>
      <point x="320" y="544" type="move" name="top"/>
    </contour>
  </outline>
</glyph>
<glyph name="h" format="1">
  <advance width="640"/>
  <unicode hex="0068"/>
  <outline>
    <contour>
      <point x="456" y="0" type="line" name="hr00"/>
      <point x="548" y="0" type="line"/>
      <point x="548" y="320" type="line" smooth="yes"/>
      <point x="548" y="508"/>
      <point x="440" y="556"/>
      <point x="328" y="556" type="curve" smooth="yes"/>
      <point x="271" y="556"/>
      <point x="226" y="543"/>
      <point x="188" y="527" type="curve"/>
      <point x="188" y="760" type="line"/>
      <point x="90" y="760" type="line"/>
      <point x="88" y="752" type="line"/>
      <point x="96" y="716"/>
      <point x="96" y="628"/>
      <point x="96" y="588" type="curve" smooth="yes"/>
      <point x="96" y="0" type="line"/>
      <point x="188" y="0" type="line"/>
      <point x="188" y="447" type="line"/>
      <point x="222" y="460"/>
      <point x="265" y="472"/>
      <point x="308" y="472" type="curve" smooth="yes"/>
      <point x="396" y="472"/>
      <point x="456" y="440"/>
      <point x="456" y="308" type="curve" smooth="yes"/>
    </contour>
    <contour>
      <point x="144" y="760" type="move" name="top"/>
    </contour>
    <contour>
      <point x="322" y="0" type="move" name="bottom"/>
    </contour>
  </outline>
</glyph>
<glyph name="i" format="1">
  <advance width="284"/>
  <unicode hex="0069"/>
  <outline>
    <contour>
      <point x="140" y="640" type="curve" smooth="yes"/>
      <point x="174" y="640"/>
      <point x="200" y="664"/>
      <point x="200" y="700" type="curve" smooth="yes"/>
      <point x="200" y="736"/>
      <point x="174" y="760"/>
      <point x="140" y="760" type="curve" smooth="yes"/>
      <point x="106" y="760"/>
      <point x="80" y="736"/>
      <point x="80" y="700" type="curve" smooth="yes"/>
      <point x="80" y="664"/>
      <point x="106" y="640"/>
    </contour>
    <contour>
      <point x="96" y="0" type="line" name="hr01"/>
      <point x="188" y="0" type="line"/>
      <point x="188" y="544" type="line"/>
      <point x="90" y="544" type="line"/>
      <point x="88" y="536" type="line"/>
      <point x="96" y="500"/>
      <point x="96" y="412"/>
      <point x="96" y="372" type="curve" smooth="yes"/>
    </contour>
    <contour>
      <point x="142" y="0" type="move" name="bottom"/>
    </contour>
  </outline>
</glyph>
<glyph name="j" format="1">
  <advance width="284"/>
  <unicode hex="006A"/>
  <outline>
    <contour>
      <point x="140" y="640" type="curve" smooth="yes"/>
      <point x="174" y="640"/>
      <point x="200" y="664"/>
      <point x="200" y="700" type="curve" smooth="yes"/>
      <point x="200" y="736"/>
      <point x="174" y="760"/>
      <point x="140" y="760" type="curve" smooth="yes"/>
      <point x="106" y="760"/>
      <point x="80" y="736"/>
      <point x="80" y="700" type="curve" smooth="yes"/>
      <point x="80" y="664"/>
      <point x="106" y="640"/>
    </contour>
    <contour>
      <point x="96" y="-52" type="line" smooth="yes" name="hr01"/>
      <point x="96" y="-124"/>
      <point x="56" y="-160"/>
      <point x="-8" y="-160" type="curve" smooth="yes"/>
      <point x="-36" y="-160"/>
      <point x="-56" y="-154"/>
      <point x="-72" y="-148" type="curve"/>
      <point x="-80" y="-148" type="line"/>
      <point x="-80" y="-228" type="line"/>
      <point x="-64" y="-234"/>
      <point x="-40" y="-240"/>
      <point x="-4" y="-240" type="curve" smooth="yes"/>
      <point x="132" y="-240"/>
      <point x="188" y="-148"/>
      <point x="188" y="-48" type="curve" smooth="yes"/>
      <point x="188" y="544" type="line"/>
      <point x="90" y="544" type="line"/>
      <point x="88" y="536" type="line"/>
      <point x="96" y="500"/>
      <point x="96" y="412"/>
      <point x="96" y="372" type="curve" smooth="yes"/>
    </contour>
  </outline>
</glyph>
<glyph name="k" format="1">
  <advance width="540"/>
  <unicode hex="006B"/>
  <outline>
    <contour>
      <point x="96" y="0" type="line" name="hr00"/>
      <point x="188" y="0" type="line"/>
      <point x="188" y="270" type="line"/>
      <point x="424" y="0" type="line"/>
      <point x="532" y="0" type="line"/>
      <point x="532" y="12" type="line"/>
      <point x="514" y="28"/>
      <point x="478" y="71"/>
      <point x="452" y="100" type="curve" smooth="yes"/>
      <point x="284" y="288" type="line"/>
      <point x="452" y="460" type="line" smooth="yes"/>
      <point x="480" y="488"/>
      <point x="508" y="516"/>
      <point x="528" y="532" type="curve"/>
      <point x="528" y="544" type="line"/>
      <point x="424" y="544" type="line"/>
      <point x="188" y="296" type="line"/>
      <point x="188" y="760" type="line"/>
      <point x="90" y="760" type="line"/>
      <point x="88" y="752" type="line"/>
      <point x="96" y="716"/>
      <point x="96" y="628"/>
      <point x="96" y="588" type="curve" smooth="yes"/>
    </contour>
    <contour>
      <point x="300" y="0" type="move" name="bottom"/>
    </contour>
  </outline>
</glyph>
<glyph name="l" format="1">
  <advance width="284"/>
  <unicode hex="006C"/>
  <outline>
    <contour>
      <point x="96" y="0" type="line" name="hr00"/>
      <point x="188" y="0" type="line"/>
      <point x="188" y="760" type="line"/>
      <point x="90" y="760" type="line"/>
      <point x="88" y="752" type="line"/>
      <point x="96" y="716"/>
      <point x="96" y="628"/>
      <point x="96" y="588" type="curve" smooth="yes"/>
    </contour>
    <contour>
      <point x="142" y="760" type="move" name="top"/>
    </contour>
    <contour>
      <point x="142" y="0" type="move" name="bottom"/>
    </contour>
  </outline>
</glyph>
<glyph name="m" format="1">
  <advance width="956"/>
  <unicode hex="006D"/>
  <outline>
    <contour>
      <point x="96" y="0" type="line" name="hr00"/>
      <point x="188" y="0" type="line"/>
      <point x="188" y="400" type="line" smooth="yes"/>
      <point x="188" y="421"/>
      <point x="187" y="442"/>
      <point x="185" y="460" type="curve"/>
      <point x="216" y="469"/>
      <point x="254" y="476"/>
      <point x="288" y="476" type="curve" smooth="yes"/>
      <point x="388" y="476"/>
      <point x="440" y="444"/>
      <point x="440" y="312" type="curve" smooth="yes"/>
      <point x="440" y="0" type="line"/>
      <point x="532" y="0" type="line"/>
      <point x="532" y="320" type="line" smooth="yes"/>
      <point x="532" y="375"/>
      <point x="523" y="419"/>
      <point x="507" y="452" type="curve"/>
      <point x="541" y="466"/>
      <point x="581" y="476"/>
      <point x="620" y="476" type="curve" smooth="yes"/>
      <point x="720" y="476"/>
      <point x="772" y="444"/>
      <point x="772" y="312" type="curve" smooth="yes"/>
      <point x="772" y="0" type="line"/>
      <point x="864" y="0" type="line"/>
      <point x="864" y="320" type="line" smooth="yes"/>
      <point x="864" y="508"/>
      <point x="764" y="556"/>
      <point x="632" y="556" type="curve" smooth="yes"/>
      <point x="575" y="556"/>
      <point x="506" y="539"/>
      <point x="453" y="517" type="curve"/>
      <point x="413" y="546"/>
      <point x="360" y="556"/>
      <point x="300" y="556" type="curve" smooth="yes"/>
      <point x="248" y="556"/>
      <point x="142" y="536"/>
      <point x="90" y="516" type="curve"/>
      <point x="88" y="508" type="line"/>
      <point x="96" y="472"/>
      <point x="96" y="384"/>
      <point x="96" y="344" type="curve" smooth="yes"/>
    </contour>
  </outline>
</glyph>
<glyph name="n" format="1">
  <advance width="640"/>
  <unicode hex="006E"/>
  <outline>
    <contour>
      <point x="96" y="0" type="line" name="hr00"/>
      <point x="188" y="0" type="line"/>
      <point x="188" y="396" type="line" smooth="yes"/>
      <point x="188" y="419"/>
      <point x="187" y="441"/>
      <point x="185" y="459" type="curve"/>
      <point x="219" y="468"/>
      <point x="261" y="476"/>
      <point x="296" y="476" type="curve" smooth="yes"/>
      <point x="396" y="476"/>
      <point x="456" y="444"/>
      <point x="456" y="312" type="curve" smooth="yes"/>
      <point x="456" y="0" type="line"/>
      <point x="548" y="0" type="line"/>
      <point x="548" y="320" type="line" smooth="yes"/>
      <point x="548" y="508"/>
      <point x="440" y="556"/>
      <point x="308" y="556" type="curve" smooth="yes"/>
      <point x="256" y="556"/>
      <point x="142" y="536"/>
      <point x="90" y="516" type="curve"/>
      <point x="88" y="508" type="line"/>
      <point x="96" y="472"/>
      <point x="96" y="384"/>
      <point x="96" y="344" type="curve" smooth="yes"/>
    </contour>
    <contour>
      <point x="312" y="544" type="move" name="top"/>
    </contour>
    <contour>
      <point x="310" y="0" type="move" name="bottom"/>
    </contour>
  </outline>
</glyph>
<glyph name="o" format="1">
  <advance width="604"/>
  <unicode hex="006F"/>
  <outline>
    <contour>
      <point x="52" y="274" type="curve" smooth="yes" name="hr00"/>
      <point x="52" y="96"/>
      <point x="150" y="-8"/>
      <point x="302" y="-8" type="curve" smooth="yes"/>
      <point x="450" y="-8"/>
      <point x="552" y="96"/>
      <point x="552" y="274" type="curve" smooth="yes"/>
      <point x="552" y="452"/>
      <point x="450" y="556"/>
      <point x="302" y="556" type="curve" smooth="yes"/>
      <point x="154" y="556"/>
      <point x="52" y="452"/>
    </contour>
    <contour>
      <point x="146" y="274" type="curve" smooth="yes"/>
      <point x="146" y="408"/>
      <point x="202" y="476"/>
      <point x="302" y="476" type="curve" smooth="yes"/>
      <point x="402" y="476"/>
      <point x="458" y="408"/>
      <point x="458" y="274" type="curve" smooth="yes"/>
      <point x="458" y="140"/>
      <point x="402" y="72"/>
      <point x="302" y="72" type="curve" smooth="yes"/>
      <point x="202" y="72"/>
      <point x="146" y="140"/>
    </contour>
    <contour>
      <point x="302" y="544" type="move" name="top"/>
    </contour>
  </outline>
</glyph>
<glyph name="p" format="1">
  <advance width="618"/>
  <unicode hex="0070"/>
  <outline>
    <contour>
      <point x="96" y="-232" type="line" name="hr00"/>
      <point x="188" y="-232" type="line"/>
      <point x="188" y="1" type="line"/>
      <point x="213" y="-5"/>
      <point x="248" y="-12"/>
      <point x="280" y="-12" type="curve" smooth="yes"/>
      <point x="456" y="-12"/>
      <point x="566" y="96"/>
      <point x="566" y="274" type="curve" smooth="yes"/>
      <point x="566" y="452"/>
      <point x="460" y="556"/>
      <point x="292" y="556" type="curve" smooth="yes"/>
      <point x="224" y="556"/>
      <point x="142" y="540"/>
      <point x="90" y="520" type="curve"/>
      <point x="88" y="512" type="line"/>
      <point x="96" y="476"/>
      <point x="96" y="388"/>
      <point x="96" y="348" type="curve" smooth="yes"/>
    </contour>
    <contour>
      <point x="284" y="476" type="curve" smooth="yes"/>
      <point x="404" y="476"/>
      <point x="472" y="408"/>
      <point x="472" y="274" type="curve" smooth="yes"/>
      <point x="472" y="140"/>
      <point x="408" y="68"/>
      <point x="280" y="68" type="curve" smooth="yes"/>
      <point x="235" y="68"/>
      <point x="206" y="74"/>
      <point x="188" y="81" type="curve"/>
      <point x="188" y="400" type="line" smooth="yes"/>
      <point x="188" y="422"/>
      <point x="187" y="444"/>
      <point x="185" y="462" type="curve"/>
      <point x="213" y="470"/>
      <point x="248" y="476"/>
    </contour>
  </outline>
</glyph>
<glyph name="q" format="1">
  <advance width="618"/>
  <unicode hex="0071"/>
  <outline>
    <contour>
      <point x="430" y="-232" type="line" name="hr00"/>
      <point x="522" y="-232" type="line"/>
      <point x="522" y="348" type="line" smooth="yes"/>
      <point x="522" y="388"/>
      <point x="522" y="476"/>
      <point x="530" y="512" type="curve"/>
      <point x="528" y="520" type="line"/>
      <point x="476" y="540"/>
      <point x="404" y="556"/>
      <point x="340" y="556" type="curve" smooth="yes"/>
      <point x="168" y="556"/>
      <point x="52" y="452"/>
      <point x="52" y="274" type="curve" smooth="yes"/>
      <point x="52" y="96"/>
      <point x="152" y="-12"/>
      <point x="332" y="-12" type="curve" smooth="yes"/>
      <point x="367" y="-12"/>
      <point x="404" y="-7"/>
      <point x="430" y="0" type="curve"/>
    </contour>
    <contour>
      <point x="340" y="68" type="curve" smooth="yes"/>
      <point x="214" y="68"/>
      <point x="146" y="132"/>
      <point x="146" y="274" type="curve" smooth="yes"/>
      <point x="146" y="404"/>
      <point x="216" y="476"/>
      <point x="344" y="476" type="curve" smooth="yes"/>
      <point x="378" y="476"/>
      <point x="408" y="470"/>
      <point x="433" y="463" type="curve"/>
      <point x="431" y="444"/>
      <point x="430" y="423"/>
      <point x="430" y="400" type="curve" smooth="yes"/>
      <point x="430" y="81" type="line"/>
      <point x="410" y="74"/>
      <point x="378" y="68"/>
    </contour>
  </outline>
</glyph>
<glyph name="r" format="1">
  <advance width="384"/>
  <unicode hex="0072"/>
  <outline>
    <contour>
      <point x="96" y="0" type="line" name="hr00"/>
      <point x="188" y="0" type="line"/>
      <point x="188" y="396" type="line" smooth="yes"/>
      <point x="188" y="418"/>
      <point x="187" y="439"/>
      <point x="185" y="457" type="curve"/>
      <point x="216" y="463"/>
      <point x="254" y="468"/>
      <point x="288" y="468" type="curve" smooth="yes"/>
      <point x="308" y="468"/>
      <point x="335" y="467"/>
      <point x="352" y="464" type="curve"/>
      <point x="360" y="464" type="line"/>
      <point x="360" y="544" type="line"/>
      <point x="346" y="546"/>
      <point x="328" y="548"/>
      <point x="296" y="548" type="curve" smooth="yes"/>
      <point x="244" y="548"/>
      <point x="142" y="536"/>
      <point x="90" y="516" type="curve"/>
      <point x="88" y="508" type="line"/>
      <point x="96" y="472"/>
      <point x="96" y="384"/>
      <point x="96" y="344" type="curve" smooth="yes"/>
    </contour>
    <contour>
      <point x="240" y="544" type="move" name="top"/>
    </contour>
    <contour>
      <point x="140" y="-4" type="move" name="bottom"/>
    </contour>
  </outline>
</glyph>
<glyph name="s" format="1">
  <advance width="500"/>
  <unicode hex="0073"/>
  <outline>
    <contour>
      <point x="52" y="20" type="line" name="hr00"/>
      <point x="100" y="4"/>
      <point x="160" y="-8"/>
      <point x="228" y="-8" type="curve" smooth="yes"/>
      <point x="388" y="-8"/>
      <point x="464" y="48"/>
      <point x="464" y="156" type="curve" smooth="yes"/>
      <point x="464" y="248"/>
      <point x="388" y="291"/>
      <point x="296" y="306" type="curve" smooth="yes"/>
      <point x="248" y="314" type="line" smooth="yes"/>
      <point x="180" y="325"/>
      <point x="140" y="340"/>
      <point x="140" y="387" type="curve" smooth="yes"/>
      <point x="140" y="448"/>
      <point x="196" y="472"/>
      <point x="288" y="472" type="curve" smooth="yes"/>
      <point x="340" y="472"/>
      <point x="376" y="464"/>
      <point x="420" y="448" type="curve"/>
      <point x="428" y="448" type="line"/>
      <point x="428" y="530" type="line"/>
      <point x="396" y="542"/>
      <point x="344" y="552"/>
      <point x="292" y="552" type="curve" smooth="yes"/>
      <point x="116" y="552"/>
      <point x="52" y="472"/>
      <point x="52" y="384" type="curve" smooth="yes"/>
      <point x="52" y="300"/>
      <point x="106" y="257"/>
      <point x="219" y="238" type="curve" smooth="yes"/>
      <point x="267" y="230" type="line" smooth="yes"/>
      <point x="335" y="219"/>
      <point x="376" y="204"/>
      <point x="376" y="156" type="curve" smooth="yes"/>
      <point x="376" y="71"/>
      <point x="268" y="72"/>
      <point x="232" y="72" type="curve" smooth="yes"/>
      <point x="172" y="72"/>
      <point x="108" y="86"/>
      <point x="60" y="108" type="curve"/>
      <point x="52" y="108" type="line"/>
    </contour>
    <contour>
      <point x="260" y="544" type="move" name="top"/>
    </contour>
    <contour>
      <point x="252" y="0" type="move" name="bottom"/>
    </contour>
  </outline>
</glyph>
<glyph name="t" format="1">
  <advance width="404"/>
  <unicode hex="0074"/>
  <outline>
    <contour>
      <point x="20" y="464" type="line" name="hr00"/>
      <point x="104" y="464" type="line"/>
      <point x="104" y="172" type="line" smooth="yes"/>
      <point x="104" y="64"/>
      <point x="156" y="-8"/>
      <point x="296" y="-8" type="curve" smooth="yes"/>
      <point x="332" y="-8"/>
      <point x="364" y="0"/>
      <point x="384" y="10" type="curve"/>
      <point x="384" y="88" type="line"/>
      <point x="376" y="88" type="line"/>
      <point x="356" y="78"/>
      <point x="328" y="72"/>
      <point x="300" y="72" type="curve" smooth="yes"/>
      <point x="228" y="72"/>
      <point x="196" y="104"/>
      <point x="196" y="180" type="curve" smooth="yes"/>
      <point x="196" y="464" type="line"/>
      <point x="352" y="464" type="line"/>
      <point x="352" y="544" type="line"/>
      <point x="196" y="544" type="line"/>
      <point x="196" y="692" type="line"/>
      <point x="104" y="692" type="line"/>
      <point x="104" y="544" type="line"/>
      <point x="20" y="544" type="line"/>
    </contour>
    <contour>
      <point x="240" y="4" type="move" name="bottom"/>
    </contour>
  </outline>
</glyph>
<glyph name="u" format="1">
  <advance width="632"/>
  <unicode hex="0075"/>
  <outline>
    <contour>
      <point x="84" y="224" type="line" smooth="yes" name="hr00"/>
      <point x="84" y="36"/>
      <point x="192" y="-12"/>
      <point x="332" y="-12" type="curve" smooth="yes"/>
      <point x="384" y="-12"/>
      <point x="490" y="4"/>
      <point x="542" y="24" type="curve"/>
      <point x="544" y="32" type="line"/>
      <point x="536" y="68"/>
      <point x="536" y="156"/>
      <point x="536" y="196" type="curve" smooth="yes"/>
      <point x="536" y="544" type="line"/>
      <point x="438" y="544" type="line"/>
      <point x="436" y="536" type="line"/>
      <point x="444" y="500"/>
      <point x="444" y="412"/>
      <point x="444" y="372" type="curve" smooth="yes"/>
      <point x="444" y="140" type="line" smooth="yes"/>
      <point x="444" y="119"/>
      <point x="444" y="98"/>
      <point x="446" y="81" type="curve"/>
      <point x="415" y="74"/>
      <point x="377" y="68"/>
      <point x="343" y="68" type="curve" smooth="yes"/>
      <point x="236" y="68"/>
      <point x="176" y="100"/>
      <point x="176" y="232" type="curve" smooth="yes"/>
      <point x="176" y="544" type="line"/>
      <point x="78" y="544" type="line"/>
      <point x="76" y="536" type="line"/>
      <point x="84" y="500"/>
      <point x="84" y="412"/>
      <point x="84" y="372" type="curve" smooth="yes"/>
    </contour>
    <contour>
      <point x="318" y="544" type="move" name="top"/>
    </contour>
    <contour>
      <point x="444" y="0" type="move" name="bottom"/>
    </contour>
  </outline>
</glyph>
<glyph name="v" format="1">
  <advance width="536"/>
  <unicode hex="0076"/>
  <outline>
    <contour>
      <point x="204" y="0" type="line" name="hr00"/>
      <point x="324" y="0" type="line"/>
      <point x="524" y="532" type="line"/>
      <point x="524" y="544" type="line"/>
      <point x="432" y="544" type="line"/>
      <point x="268" y="82" type="line"/>
      <point x="108" y="544" type="line"/>
      <point x="12" y="544" type="line"/>
      <point x="12" y="532" type="line"/>
    </contour>
  </outline>
</glyph>
<glyph name="w" format="1">
  <advance width="772"/>
  <unicode hex="0077"/>
  <outline>
    <contour>
      <point x="156" y="0" type="line" name="hr00"/>
      <point x="264" y="0" type="line"/>
      <point x="384" y="378" type="line"/>
      <point x="500" y="0" type="line"/>
      <point x="608" y="0" type="line"/>
      <point x="760" y="532" type="line"/>
      <point x="760" y="544" type="line"/>
      <point x="668" y="544" type="line"/>
      <point x="551" y="91" type="line"/>
      <point x="416" y="544" type="line"/>
      <point x="356" y="544" type="line"/>
      <point x="216" y="93" type="line"/>
      <point x="104" y="544" type="line"/>
      <point x="12" y="544" type="line"/>
      <point x="12" y="532" type="line"/>
    </contour>
    <contour>
      <point x="386" y="544" type="move" name="top"/>
    </contour>
  </outline>
</glyph>
<glyph name="x" format="1">
  <advance width="532"/>
  <unicode hex="0078"/>
  <outline>
    <contour>
      <point x="408" y="0" type="line" name="hr00"/>
      <point x="508" y="0" type="line"/>
      <point x="508" y="8" type="line"/>
      <point x="317" y="271" type="line"/>
      <point x="512" y="536" type="line"/>
      <point x="512" y="544" type="line"/>
      <point x="418" y="544" type="line"/>
      <point x="270" y="336" type="line"/>
      <point x="120" y="544" type="line"/>
      <point x="20" y="544" type="line"/>
      <point x="20" y="536" type="line"/>
      <point x="217" y="263" type="line"/>
      <point x="30" y="8" type="line"/>
      <point x="30" y="0" type="line"/>
      <point x="124" y="0" type="line"/>
      <point x="265" y="198" type="line"/>
    </contour>
  </outline>
</glyph>
<glyph name="y" format="1">
  <advance width="536"/>
  <unicode hex="0079"/>
  <outline>
    <contour>
      <point x="132" y="-232" type="line" name="hr00"/>
      <point x="220" y="-232" type="line"/>
      <point x="524" y="532" type="line"/>
      <point x="524" y="544" type="line"/>
      <point x="432" y="544" type="line"/>
      <point x="270" y="122" type="line"/>
      <point x="108" y="544" type="line"/>
      <point x="12" y="544" type="line"/>
      <point x="12" y="532" type="line"/>
      <point x="223" y="2" type="line"/>
      <point x="132" y="-220" type="line"/>
    </contour>
    <contour>
      <point x="272" y="540" type="move" name="top"/>
    </contour>
  </outline>
</glyph>
<glyph name="z" format="1">
  <advance width="520"/>
  <unicode hex="007A"/>
  <outline>
    <contour>
      <point x="368" y="466" type="line" name="hr00"/>
      <point x="359" y="446"/>
      <point x="334" y="419"/>
      <point x="316" y="400" type="curve" smooth="yes"/>
      <point x="116" y="188" type="line" smooth="yes"/>
      <point x="90" y="160"/>
      <point x="40" y="112"/>
      <point x="40" y="48" type="curve" smooth="yes"/>
      <point x="40" y="40"/>
      <point x="42" y="24"/>
      <point x="45" y="10" type="curve"/>
      <point x="53" y="0" type="line"/>
      <point x="480" y="0" type="line"/>
      <point x="480" y="78" type="line"/>
      <point x="135" y="78" type="line"/>
      <point x="145" y="98"/>
      <point x="170" y="124"/>
      <point x="188" y="144" type="curve" smooth="yes"/>
      <point x="388" y="356" type="line" smooth="yes"/>
      <point x="414" y="384"/>
      <point x="464" y="432"/>
      <point x="464" y="496" type="curve" smooth="yes"/>
      <point x="464" y="504"/>
      <point x="462" y="520"/>
      <point x="459" y="534" type="curve"/>
      <point x="451" y="544" type="line"/>
      <point x="52" y="544" type="line"/>
      <point x="52" y="466" type="line"/>
    </contour>
    <contour>
      <point x="260" y="544" type="move" name="top"/>
    </contour>
    <contour>
      <point x="256" y="4" type="move" name="bottom"/>
    </contour>
  </outline>
</glyph>
<glyph name="braceleft" format="1">
  <advance width="372"/>
  <unicode hex="007B"/>
  <outline>
    <contour>
      <point x="128" y="60" type="line"/>
      <point x="128" y="-32"/>
      <point x="176" y="-88"/>
      <point x="276" y="-88" type="curve" smooth="yes"/>
      <point x="348" y="-88" type="line"/>
      <point x="348" y="-12" type="line"/>
      <point x="272" y="-12" type="line" smooth="yes"/>
      <point x="232" y="-12"/>
      <point x="212" y="8"/>
      <point x="212" y="52" type="curve" smooth="yes" name="hr01"/>
      <point x="212" y="216" type="line" smooth="yes"/>
      <point x="212" y="288"/>
      <point x="172" y="325"/>
      <point x="120" y="335" type="curve"/>
      <point x="120" y="337" type="line"/>
      <point x="172" y="347"/>
      <point x="212" y="384"/>
      <point x="212" y="456" type="curve" smooth="yes"/>
      <point x="212" y="620" type="line" smooth="yes"/>
      <point x="212" y="664"/>
      <point x="232" y="684"/>
      <point x="272" y="684" type="curve" smooth="yes"/>
      <point x="348" y="684" type="line" name="hr02"/>
      <point x="348" y="760" type="line"/>
      <point x="276" y="760" type="line" smooth="yes"/>
      <point x="176" y="760"/>
      <point x="128" y="704"/>
      <point x="128" y="612" type="curve" smooth="yes"/>
      <point x="128" y="452" type="line" smooth="yes"/>
      <point x="128" y="412"/>
      <point x="108" y="380"/>
      <point x="60" y="380" type="curve" smooth="yes"/>
      <point x="12" y="380" type="line" name="hr03"/>
      <point x="12" y="292" type="line"/>
      <point x="60" y="292" type="line" smooth="yes"/>
      <point x="108" y="292"/>
      <point x="128" y="260"/>
      <point x="128" y="220" type="curve" smooth="yes" name="hr04"/>
    </contour>
  </outline>
</glyph>
<glyph name="bar" format="1">
  <advance width="308"/>
  <unicode hex="007C"/>
  <outline>
    <contour>
      <point x="112" y="-240" type="line" name="hr00"/>
      <point x="196" y="-240" type="line"/>
      <point x="196" y="760" type="line"/>
      <point x="112" y="760" type="line"/>
    </contour>
  </outline>
</glyph>
<glyph name="braceright" format="1">
  <advance width="372"/>
  <unicode hex="007D"/>
  <outline>
    <contour>
      <point x="24" y="-12" type="line"/>
      <point x="24" y="-88" type="line"/>
      <point x="96" y="-88" type="line" smooth="yes"/>
      <point x="196" y="-88"/>
      <point x="244" y="-32"/>
      <point x="244" y="60" type="curve" smooth="yes"/>
      <point x="244" y="220" type="line" smooth="yes"/>
      <point x="244" y="260"/>
      <point x="264" y="292"/>
      <point x="312" y="292" type="curve" smooth="yes"/>
      <point x="360" y="292" type="line" name="hr01"/>
      <point x="360" y="380" type="line"/>
      <point x="312" y="380" type="line" smooth="yes"/>
      <point x="264" y="380"/>
      <point x="244" y="412"/>
      <point x="244" y="452" type="curve" smooth="yes" name="hr02"/>
      <point x="244" y="612" type="line" smooth="yes"/>
      <point x="244" y="704"/>
      <point x="196" y="760"/>
      <point x="96" y="760" type="curve" smooth="yes"/>
      <point x="24" y="760" type="line"/>
      <point x="24" y="684" type="line"/>
      <point x="100" y="684" type="line" smooth="yes"/>
      <point x="140" y="684"/>
      <point x="160" y="664"/>
      <point x="160" y="620" type="curve" smooth="yes" name="hr03"/>
      <point x="160" y="456" type="line" smooth="yes"/>
      <point x="160" y="384"/>
      <point x="200" y="347"/>
      <point x="252" y="337" type="curve"/>
      <point x="252" y="335" type="line"/>
      <point x="200" y="325"/>
      <point x="160" y="288"/>
      <point x="160" y="216" type="curve" smooth="yes"/>
      <point x="160" y="52" type="line" smooth="yes" name="hr04"/>
      <point x="160" y="8"/>
      <point x="140" y="-12"/>
      <point x="100" y="-12" type="curve" smooth="yes"/>
    </contour>
  </outline>
</glyph>
<glyph name="asciitilde" format="1">
  <advance width="616"/>
  <unicode hex="007E"/>
  <outline>
    <contour>
      <point x="464" y="408" type="line" name="hr00"/>
      <point x="460" y="358"/>
      <point x="450" y="304"/>
      <point x="404" y="304" type="curve" smooth="yes"/>
      <point x="376" y="304"/>
      <point x="353" y="330"/>
      <point x="324" y="356" type="curve" smooth="yes"/>
      <point x="295" y="382"/>
      <point x="259" y="408"/>
      <point x="206" y="408" type="curve" smooth="yes"/>
      <point x="104" y="408"/>
      <point x="68" y="315"/>
      <point x="64" y="224" type="curve"/>
      <point x="144" y="224" type="line"/>
      <point x="148" y="274"/>
      <point x="158" y="328"/>
      <point x="204" y="328" type="curve" smooth="yes"/>
      <point x="232" y="328"/>
      <point x="255" y="302"/>
      <point x="284" y="276" type="curve" smooth="yes"/>
      <point x="313" y="250"/>
      <point x="349" y="224"/>
      <point x="402" y="224" type="curve" smooth="yes"/>
      <point x="504" y="224"/>
      <point x="540" y="317"/>
      <point x="544" y="408" type="curve"/>
    </contour>
  </outline>
</glyph>
<glyph name="exclamdown" format="1">
  <advance width="296"/>
  <unicode hex="00A1"/>
  <outline>
    <contour>
      <point x="188" y="344" type="curve"/>
      <point x="112" y="344" type="line"/>
      <point x="112" y="344"/>
      <point x="104" y="245"/>
      <point x="104" y="128" type="curve" smooth="yes"/>
      <point x="104" y="-22" type="line" smooth="yes"/>
      <point x="104" y="-43"/>
      <point x="104" y="-132"/>
      <point x="96" y="-168" type="curve"/>
      <point x="98" y="-176" type="line"/>
      <point x="196" y="-176" type="line"/>
      <point x="196" y="128" type="line" smooth="yes"/>
      <point x="196" y="245"/>
      <point x="188" y="344"/>
    </contour>
    <contour>
      <point x="148" y="552" type="curve" smooth="yes"/>
      <point x="112" y="552"/>
      <point x="84" y="528"/>
      <point x="84" y="488" type="curve" smooth="yes" name="hr01"/>
      <point x="84" y="448"/>
      <point x="112" y="424"/>
      <point x="148" y="424" type="curve" smooth="yes"/>
      <point x="184" y="424"/>
      <point x="212" y="448"/>
      <point x="212" y="488" type="curve" smooth="yes"/>
      <point x="212" y="528"/>
      <point x="184" y="552"/>
    </contour>
  </outline>
</glyph>
<glyph name="cent" format="1">
  <advance width="616"/>
  <unicode hex="00A2"/>
  <outline>
    <contour>
      <point x="76" y="374" type="curve" smooth="yes"/>
      <point x="76" y="223"/>
      <point x="159" y="126"/>
      <point x="296" y="99" type="curve"/>
      <point x="296" y="-64" type="line"/>
      <point x="380" y="-64" type="line"/>
      <point x="380" y="92" type="line" name="hr01"/>
      <point x="423" y="92"/>
      <point x="476" y="104"/>
      <point x="496" y="112" type="curve"/>
      <point x="496" y="196" type="line"/>
      <point x="488" y="196" type="line"/>
      <point x="464" y="184"/>
      <point x="424" y="176"/>
      <point x="376" y="176" type="curve" smooth="yes"/>
      <point x="256" y="176"/>
      <point x="170" y="240"/>
      <point x="170" y="374" type="curve" smooth="yes"/>
      <point x="170" y="508"/>
      <point x="256" y="572"/>
      <point x="376" y="572" type="curve" smooth="yes"/>
      <point x="424" y="572"/>
      <point x="464" y="564"/>
      <point x="488" y="552" type="curve"/>
      <point x="496" y="552" type="line"/>
      <point x="496" y="636" type="line"/>
      <point x="476" y="644"/>
      <point x="427" y="655"/>
      <point x="380" y="656" type="curve"/>
      <point x="380" y="800" type="line" name="hr02"/>
      <point x="296" y="800" type="line"/>
      <point x="296" y="648" type="line"/>
      <point x="161" y="621"/>
      <point x="76" y="524"/>
    </contour>
  </outline>
</glyph>
<glyph name="sterling" format="1">
  <advance width="616"/>
  <unicode hex="00A3"/>
  <outline>
    <contour>
      <point x="60" y="340" type="line" name="hr00"/>
      <point x="188" y="340" type="line"/>
      <point x="188" y="78" type="line"/>
      <point x="52" y="78" type="line"/>
      <point x="52" y="0" type="line"/>
      <point x="556" y="0" type="line"/>
      <point x="556" y="78" type="line"/>
      <point x="280" y="78" type="line"/>
      <point x="280" y="340" type="line"/>
      <point x="480" y="340" type="line"/>
      <point x="480" y="420" type="line"/>
      <point x="280" y="420" type="line"/>
      <point x="280" y="472" type="line" smooth="yes"/>
      <point x="280" y="584"/>
      <point x="328" y="652"/>
      <point x="436" y="652" type="curve" smooth="yes"/>
      <point x="488" y="652"/>
      <point x="520" y="642"/>
      <point x="548" y="630" type="curve"/>
      <point x="552" y="630" type="line"/>
      <point x="552" y="712" type="line"/>
      <point x="520" y="724"/>
      <point x="488" y="732"/>
      <point x="436" y="732" type="curve" smooth="yes"/>
      <point x="268" y="732"/>
      <point x="188" y="612"/>
      <point x="188" y="472" type="curve" smooth="yes"/>
      <point x="188" y="420" type="line"/>
      <point x="60" y="420" type="line"/>
    </contour>
  </outline>
</glyph>
<glyph name="currency" format="1">
  <advance width="616"/>
  <unicode hex="00A4"/>
  <outline>
    <contour>
      <point x="149" y="152" type="line"/>
      <point x="196" y="199" type="line"/>
      <point x="225" y="181"/>
      <point x="261" y="170"/>
      <point x="304" y="170" type="curve" smooth="yes" name="hr01"/>
      <point x="349" y="170"/>
      <point x="386" y="182"/>
      <point x="415" y="202" type="curve"/>
      <point x="466" y="152" type="line" name="hr02"/>
      <point x="516" y="201" type="line"/>
      <point x="462" y="254" type="line"/>
      <point x="479" y="283"/>
      <point x="488" y="320"/>
      <point x="488" y="360" type="curve" smooth="yes"/>
      <point x="488" y="400"/>
      <point x="479" y="436"/>
      <point x="462" y="465" type="curve"/>
      <point x="516" y="519" type="line"/>
      <point x="466" y="569" type="line"/>
      <point x="415" y="518" type="line"/>
      <point x="386" y="538"/>
      <point x="348" y="550"/>
      <point x="304" y="550" type="curve" smooth="yes" name="hr03"/>
      <point x="261" y="550"/>
      <point x="225" y="538"/>
      <point x="196" y="520" type="curve"/>
      <point x="149" y="569" type="line" name="hr04"/>
      <point x="99" y="519" type="line"/>
      <point x="148" y="469" type="line"/>
      <point x="129" y="439"/>
      <point x="119" y="402"/>
      <point x="119" y="360" type="curve" smooth="yes"/>
      <point x="119" y="318"/>
      <point x="129" y="281"/>
      <point x="148" y="250" type="curve"/>
      <point x="99" y="201" type="line"/>
    </contour>
    <contour>
      <point x="304" y="241" type="curve" smooth="yes" name="hr05"/>
      <point x="237" y="241"/>
      <point x="196" y="289"/>
      <point x="196" y="360" type="curve" smooth="yes"/>
      <point x="196" y="430"/>
      <point x="237" y="478"/>
      <point x="304" y="478" type="curve" smooth="yes"/>
      <point x="370" y="478"/>
      <point x="412" y="430"/>
      <point x="412" y="360" type="curve" smooth="yes"/>
      <point x="412" y="289"/>
      <point x="370" y="241"/>
    </contour>
  </outline>
</glyph>
<glyph name="yen" format="1">
  <advance width="616"/>
  <unicode hex="00A5"/>
  <outline>
    <contour>
      <point x="114" y="342" type="line" name="hr00"/>
      <point x="261" y="342" type="line"/>
      <point x="262" y="340" type="line"/>
      <point x="262" y="268" type="line"/>
      <point x="114" y="268" type="line"/>
      <point x="114" y="190" type="line"/>
      <point x="262" y="190" type="line"/>
      <point x="262" y="0" type="line"/>
      <point x="358" y="0" type="line"/>
      <point x="358" y="190" type="line"/>
      <point x="506" y="190" type="line"/>
      <point x="506" y="268" type="line"/>
      <point x="358" y="268" type="line"/>
      <point x="358" y="342" type="line"/>
      <point x="506" y="342" type="line"/>
      <point x="506" y="420" type="line"/>
      <point x="403" y="420" type="line"/>
      <point x="582" y="712" type="line"/>
      <point x="582" y="720" type="line"/>
      <point x="482" y="720" type="line"/>
      <point x="311" y="427" type="line"/>
      <point x="138" y="720" type="line"/>
      <point x="34" y="720" type="line"/>
      <point x="34" y="712" type="line"/>
      <point x="213" y="420" type="line"/>
      <point x="114" y="420" type="line"/>
    </contour>
  </outline>
</glyph>
<glyph name="brokenbar" format="1">
  <advance width="308"/>
  <unicode hex="00A6"/>
  <outline>
    <contour>
      <point x="112" y="424" type="line" name="hr00"/>
      <point x="196" y="424" type="line"/>
      <point x="196" y="760" type="line"/>
      <point x="112" y="760" type="line"/>
    </contour>
    <contour>
      <point x="112" y="88" type="line"/>
      <point x="112" y="-248" type="line"/>
      <point x="196" y="-248" type="line"/>
      <point x="196" y="88" type="line"/>
    </contour>
  </outline>
</glyph>
<glyph name="section" format="1">
  <advance width="600"/>
  <unicode hex="00A7"/>
  <outline>
    <contour>
      <point x="80" y="-116" type="line"/>
      <point x="80" y="-208" type="line"/>
      <point x="116" y="-224"/>
      <point x="164" y="-232"/>
      <point x="208" y="-232" type="curve" smooth="yes"/>
      <point x="380" y="-232"/>
      <point x="480" y="-164"/>
      <point x="480" y="-24" type="curve" smooth="yes"/>
      <point x="480" y="26"/>
      <point x="464" y="63"/>
      <point x="437" y="90" type="curve"/>
      <point x="485" y="123"/>
      <point x="520" y="174"/>
      <point x="520" y="240" type="curve" smooth="yes" name="hr01"/>
      <point x="520" y="336"/>
      <point x="459" y="386"/>
      <point x="360" y="412" type="curve" smooth="yes"/>
      <point x="300" y="428" type="line" smooth="yes"/>
      <point x="225" y="448"/>
      <point x="188" y="464"/>
      <point x="188" y="532" type="curve" smooth="yes"/>
      <point x="188" y="612"/>
      <point x="256" y="644"/>
      <point x="356" y="644" type="curve" smooth="yes"/>
      <point x="416" y="644"/>
      <point x="452" y="632"/>
      <point x="488" y="616" type="curve"/>
      <point x="496" y="616" type="line"/>
      <point x="496" y="708" type="line"/>
      <point x="460" y="724"/>
      <point x="412" y="732"/>
      <point x="368" y="732" type="curve" smooth="yes"/>
      <point x="196" y="732"/>
      <point x="96" y="664"/>
      <point x="96" y="524" type="curve" smooth="yes"/>
      <point x="96" y="473"/>
      <point x="111" y="437"/>
      <point x="138" y="409" type="curve"/>
      <point x="90" y="377"/>
      <point x="56" y="326"/>
      <point x="56" y="260" type="curve" smooth="yes" name="hr02"/>
      <point x="56" y="164"/>
      <point x="117" y="114"/>
      <point x="216" y="88" type="curve" smooth="yes"/>
      <point x="276" y="72" type="line" smooth="yes"/>
      <point x="351" y="52"/>
      <point x="388" y="36"/>
      <point x="388" y="-32" type="curve" smooth="yes"/>
      <point x="388" y="-112"/>
      <point x="320" y="-144"/>
      <point x="220" y="-144" type="curve" smooth="yes"/>
      <point x="160" y="-144"/>
      <point x="124" y="-132"/>
      <point x="88" y="-116" type="curve"/>
    </contour>
    <contour>
      <point x="268" y="344" type="curve"/>
      <point x="328" y="328" type="line" smooth="yes"/>
      <point x="400" y="309"/>
      <point x="426" y="284"/>
      <point x="426" y="228" type="curve" smooth="yes" name="hr03"/>
      <point x="426" y="188"/>
      <point x="402" y="155"/>
      <point x="365" y="137" type="curve"/>
      <point x="348" y="144"/>
      <point x="328" y="150"/>
      <point x="308" y="156" type="curve" smooth="yes"/>
      <point x="248" y="172" type="line" smooth="yes"/>
      <point x="176" y="191"/>
      <point x="150" y="216"/>
      <point x="150" y="272" type="curve" smooth="yes"/>
      <point x="150" y="311"/>
      <point x="174" y="344"/>
      <point x="210" y="363" type="curve"/>
      <point x="228" y="355"/>
      <point x="247" y="349"/>
    </contour>
  </outline>
</glyph>
<glyph name="dieresis" format="1">
  <advance width="612"/>
  <unicode hex="00A8"/>
  <outline>
    <contour>
      <point x="404" y="624" type="curve" smooth="yes" name="hr00"/>
      <point x="438" y="624"/>
      <point x="464" y="646"/>
      <point x="464" y="684" type="curve" smooth="yes"/>
      <point x="464" y="721"/>
      <point x="438" y="744"/>
      <point x="404" y="744" type="curve" smooth="yes"/>
      <point x="370" y="744"/>
      <point x="344" y="721"/>
      <point x="344" y="684" type="curve" smooth="yes"/>
      <point x="344" y="646"/>
      <point x="370" y="624"/>
    </contour>
    <contour>
      <point x="208" y="624" type="curve" smooth="yes"/>
      <point x="242" y="624"/>
      <point x="268" y="646"/>
      <point x="268" y="684" type="curve" smooth="yes"/>
      <point x="268" y="721"/>
      <point x="242" y="744"/>
      <point x="208" y="744" type="curve" smooth="yes"/>
      <point x="174" y="744"/>
      <point x="148" y="721"/>
      <point x="148" y="684" type="curve" smooth="yes"/>
      <point x="148" y="646"/>
      <point x="174" y="624"/>
    </contour>
    <contour>
      <point x="306" y="544" type="move" name="_top"/>
    </contour>
  </outline>
</glyph>
<glyph name="ordfeminine" format="1">
  <advance width="451"/>
  <unicode hex="00AA"/>
  <outline>
    <contour>
      <point x="50" y="437" type="curve" smooth="yes" name="hr00"/>
      <point x="50" y="351"/>
      <point x="109" y="312"/>
      <point x="227" y="312" type="curve" smooth="yes"/>
      <point x="275" y="312"/>
      <point x="345" y="323"/>
      <point x="393" y="340" type="curve"/>
      <point x="394" y="346" type="line"/>
      <point x="388" y="372"/>
      <point x="388" y="435"/>
      <point x="388" y="464" type="curve" smooth="yes"/>
      <point x="388" y="560" type="line" smooth="yes"/>
      <point x="388" y="699"/>
      <point x="310" y="727"/>
      <point x="207" y="727" type="curve" smooth="yes"/>
      <point x="166" y="727"/>
      <point x="120" y="720"/>
      <point x="85" y="707" type="curve"/>
      <point x="85" y="637" type="line"/>
      <point x="92" y="637" type="line"/>
      <point x="115" y="648"/>
      <point x="157" y="659"/>
      <point x="197" y="659" type="curve" smooth="yes"/>
      <point x="268" y="659"/>
      <point x="305" y="644"/>
      <point x="305" y="560" type="curve" smooth="yes"/>
      <point x="305" y="552" type="line"/>
      <point x="289" y="557"/>
      <point x="257" y="563"/>
      <point x="221" y="563" type="curve" smooth="yes"/>
      <point x="118" y="563"/>
      <point x="50" y="524"/>
    </contour>
    <contour>
      <point x="309" y="386" type="curve"/>
      <point x="284" y="379"/>
      <point x="256" y="375"/>
      <point x="228" y="375" type="curve" smooth="yes"/>
      <point x="164" y="375"/>
      <point x="130" y="393"/>
      <point x="130" y="438" type="curve" smooth="yes"/>
      <point x="130" y="486"/>
      <point x="163" y="502"/>
      <point x="235" y="502" type="curve" smooth="yes"/>
      <point x="262" y="502"/>
      <point x="287" y="497"/>
      <point x="305" y="493" type="curve"/>
      <point x="305" y="438" type="line" smooth="yes"/>
      <point x="305" y="418"/>
      <point x="306" y="400"/>
    </contour>
  </outline>
</glyph>
<glyph name="guillemotleft" format="1">
  <advance width="564"/>
  <unicode hex="00AB"/>
  <outline>
    <contour>
      <point x="496" y="72" type="line" name="hr00"/>
      <point x="504" y="72" type="line"/>
      <point x="504" y="168" type="line"/>
      <point x="348" y="308" type="line"/>
      <point x="504" y="448" type="line"/>
      <point x="504" y="544" type="line"/>
      <point x="496" y="544" type="line"/>
      <point x="256" y="324" type="line"/>
      <point x="256" y="292" type="line"/>
    </contour>
    <contour>
      <point x="276" y="72" type="line"/>
      <point x="284" y="72" type="line"/>
      <point x="284" y="168" type="line"/>
      <point x="128" y="308" type="line"/>
      <point x="284" y="448" type="line"/>
      <point x="284" y="544" type="line"/>
      <point x="276" y="544" type="line"/>
      <point x="36" y="324" type="line"/>
      <point x="36" y="292" type="line"/>
    </contour>
  </outline>
</glyph>
<glyph name="logicalnot" format="1">
  <advance width="616"/>
  <unicode hex="00AC"/>
  <outline>
    <contour>
      <point x="64" y="276" type="line" name="hr00"/>
      <point x="472" y="276" type="line"/>
      <point x="472" y="64" type="line"/>
      <point x="552" y="64" type="line"/>
      <point x="552" y="356" type="line"/>
      <point x="64" y="356" type="line"/>
    </contour>
  </outline>
</glyph>
<glyph name="registered" format="1">
  <advance width="792"/>
  <unicode hex="00AE"/>
  <outline>
    <contour>
      <point x="48" y="360" type="curve" smooth="yes"/>
      <point x="48" y="128"/>
      <point x="188" y="-12"/>
      <point x="396" y="-12" type="curve" smooth="yes"/>
      <point x="604" y="-12"/>
      <point x="744" y="128"/>
      <point x="744" y="360" type="curve" smooth="yes"/>
      <point x="744" y="592"/>
      <point x="604" y="732"/>
      <point x="396" y="732" type="curve" smooth="yes"/>
      <point x="188" y="732"/>
      <point x="48" y="592"/>
    </contour>
    <contour>
      <point x="120" y="360" type="curve" smooth="yes"/>
      <point x="120" y="568"/>
      <point x="232" y="668"/>
      <point x="396" y="668" type="curve" smooth="yes"/>
      <point x="560" y="668"/>
      <point x="672" y="564"/>
      <point x="672" y="360" type="curve" smooth="yes"/>
      <point x="672" y="156"/>
      <point x="560" y="52"/>
      <point x="396" y="52" type="curve" smooth="yes"/>
      <point x="232" y="52"/>
      <point x="120" y="152"/>
    </contour>
    <contour>
      <point x="256" y="168" type="line"/>
      <point x="318" y="168" type="line"/>
      <point x="318" y="280" type="line" name="hr01"/>
      <point x="394" y="280" type="line" smooth="yes"/>
      <point x="402" y="280"/>
      <point x="410" y="280"/>
      <point x="418" y="281" type="curve"/>
      <point x="516" y="168" type="line" name="hr02"/>
      <point x="584" y="168" type="line"/>
      <point x="584" y="176" type="line"/>
      <point x="478" y="299" type="line"/>
      <point x="532" y="327"/>
      <point x="556" y="382"/>
      <point x="556" y="436" type="curve" smooth="yes"/>
      <point x="556" y="519"/>
      <point x="508" y="562"/>
      <point x="416" y="562" type="curve" smooth="yes"/>
      <point x="256" y="562" type="line"/>
    </contour>
    <contour>
      <point x="414" y="508" type="line" smooth="yes"/>
      <point x="464" y="508"/>
      <point x="494" y="489"/>
      <point x="494" y="436" type="curve" smooth="yes"/>
      <point x="494" y="380"/>
      <point x="461" y="332"/>
      <point x="394" y="332" type="curve" smooth="yes"/>
      <point x="318" y="332" type="line"/>
      <point x="318" y="508" type="line"/>
    </contour>
  </outline>
</glyph>
<glyph name="macron" format="1">
  <advance width="612"/>
  <unicode hex="00AF"/>
  <outline>
    <contour>
      <point x="144" y="646" type="line" name="hr00"/>
      <point x="468" y="646" type="line"/>
      <point x="468" y="720" type="line"/>
      <point x="144" y="720" type="line"/>
    </contour>
    <contour>
      <point x="306" y="544" type="move" name="_top"/>
    </contour>
  </outline>
</glyph>
<glyph name="degree" format="1">
  <advance width="392"/>
  <unicode hex="00B0"/>
  <outline>
    <contour>
      <point x="196" y="480" type="curve" smooth="yes" name="hr00"/>
      <point x="272" y="480"/>
      <point x="332" y="528"/>
      <point x="332" y="608" type="curve" smooth="yes"/>
      <point x="332" y="688"/>
      <point x="272" y="736"/>
      <point x="196" y="736" type="curve" smooth="yes"/>
      <point x="120" y="736"/>
      <point x="60" y="688"/>
      <point x="60" y="608" type="curve" smooth="yes"/>
      <point x="60" y="528"/>
      <point x="120" y="480"/>
    </contour>
    <contour>
      <point x="196" y="532" type="curve" smooth="yes"/>
      <point x="150" y="532"/>
      <point x="120" y="560"/>
      <point x="120" y="608" type="curve" smooth="yes"/>
      <point x="120" y="656"/>
      <point x="150" y="684"/>
      <point x="196" y="684" type="curve" smooth="yes"/>
      <point x="242" y="684"/>
      <point x="272" y="656"/>
      <point x="272" y="608" type="curve" smooth="yes"/>
      <point x="272" y="560"/>
      <point x="242" y="532"/>
    </contour>
  </outline>
</glyph>
<glyph name="plusminus" format="1">
  <advance width="616"/>
  <unicode hex="00B1"/>
  <outline>
    <contour>
      <point x="64" y="360" type="line" name="hr00"/>
      <point x="268" y="360" type="line"/>
      <point x="268" y="148" type="line"/>
      <point x="348" y="148" type="line"/>
      <point x="348" y="360" type="line"/>
      <point x="552" y="360" type="line"/>
      <point x="552" y="440" type="line"/>
      <point x="348" y="440" type="line"/>
      <point x="348" y="652" type="line"/>
      <point x="268" y="652" type="line"/>
      <point x="268" y="440" type="line"/>
      <point x="64" y="440" type="line"/>
    </contour>
    <contour>
      <point x="64" y="0" type="line"/>
      <point x="552" y="0" type="line"/>
      <point x="552" y="80" type="line"/>
      <point x="64" y="80" type="line"/>
    </contour>
  </outline>
</glyph>
<glyph name="mu" format="1">
  <advance width="644"/>
  <unicode hex="00B5"/>
  <outline>
    <contour>
      <point x="96" y="-250" type="line" name="hr00"/>
      <point x="194" y="-250" type="line"/>
      <point x="196" y="-242" type="line"/>
      <point x="188" y="-206"/>
      <point x="188" y="-118"/>
      <point x="188" y="-78" type="curve" smooth="yes"/>
      <point x="188" y="22" type="line"/>
      <point x="230" y="-3"/>
      <point x="284" y="-12"/>
      <point x="344" y="-12" type="curve" smooth="yes"/>
      <point x="396" y="-12"/>
      <point x="502" y="4"/>
      <point x="554" y="24" type="curve"/>
      <point x="556" y="32" type="line"/>
      <point x="548" y="68"/>
      <point x="548" y="156"/>
      <point x="548" y="196" type="curve" smooth="yes"/>
      <point x="548" y="544" type="line"/>
      <point x="450" y="544" type="line"/>
      <point x="448" y="536" type="line"/>
      <point x="456" y="500"/>
      <point x="456" y="412"/>
      <point x="456" y="372" type="curve" smooth="yes"/>
      <point x="456" y="140" type="line" smooth="yes"/>
      <point x="456" y="119"/>
      <point x="456" y="98"/>
      <point x="458" y="81" type="curve"/>
      <point x="427" y="74"/>
      <point x="389" y="68"/>
      <point x="355" y="68" type="curve" smooth="yes"/>
      <point x="248" y="68"/>
      <point x="188" y="100"/>
      <point x="188" y="232" type="curve" smooth="yes"/>
      <point x="188" y="544" type="line"/>
      <point x="90" y="544" type="line"/>
      <point x="88" y="536" type="line"/>
      <point x="96" y="500"/>
      <point x="96" y="412"/>
      <point x="96" y="372" type="curve" smooth="yes"/>
    </contour>
  </outline>
</glyph>
<glyph name="paragraph" format="1">
  <advance width="692"/>
  <unicode hex="00B6"/>
  <outline>
    <contour>
      <point x="296" y="248" type="curve" name="hr00"/>
      <point x="312" y="248" type="line"/>
      <point x="312" y="-250" type="line"/>
      <point x="396" y="-250" type="line"/>
      <point x="396" y="644" type="line"/>
      <point x="512" y="644" type="line"/>
      <point x="512" y="-250" type="line"/>
      <point x="596" y="-250" type="line"/>
      <point x="596" y="720" type="line"/>
      <point x="296" y="720" type="line" smooth="yes"/>
      <point x="169" y="720"/>
      <point x="60" y="636"/>
      <point x="60" y="484" type="curve" smooth="yes"/>
      <point x="60" y="332"/>
      <point x="169" y="248"/>
    </contour>
  </outline>
</glyph>
<glyph name="periodcentered" format="1">
  <advance width="280"/>
  <unicode hex="00B7"/>
  <outline>
    <contour>
      <point x="140" y="301" type="curve" smooth="yes" name="hr00"/>
      <point x="176" y="301"/>
      <point x="204" y="325"/>
      <point x="204" y="365" type="curve" smooth="yes"/>
      <point x="204" y="405"/>
      <point x="176" y="429"/>
      <point x="140" y="429" type="curve" smooth="yes"/>
      <point x="104" y="429"/>
      <point x="76" y="405"/>
      <point x="76" y="365" type="curve" smooth="yes"/>
      <point x="76" y="325"/>
      <point x="104" y="301"/>
    </contour>
  </outline>
</glyph>
<glyph name="cedilla" format="1">
  <advance width="612"/>
  <unicode hex="00B8"/>
  <outline>
    <contour>
      <point x="272" y="24" type="line"/>
      <point x="272" y="-92" type="line"/>
      <point x="336" y="-92"/>
      <point x="372" y="-108"/>
      <point x="372" y="-144" type="curve" smooth="yes"/>
      <point x="372" y="-168"/>
      <point x="352" y="-184"/>
      <point x="304" y="-184" type="curve" smooth="yes"/>
      <point x="272" y="-184"/>
      <point x="248" y="-180"/>
      <point x="224" y="-172" type="curve"/>
      <point x="220" y="-172" type="line" name="hr01"/>
      <point x="220" y="-236" type="line"/>
      <point x="244" y="-244"/>
      <point x="276" y="-248"/>
      <point x="304" y="-248" type="curve" smooth="yes"/>
      <point x="384" y="-248"/>
      <point x="440" y="-212"/>
      <point x="440" y="-140" type="curve" smooth="yes"/>
      <point x="440" y="-84"/>
      <point x="404" y="-48"/>
      <point x="336" y="-40" type="curve" name="hr02"/>
      <point x="336" y="24" type="line"/>
    </contour>
    <contour>
      <point x="306" y="0" type="move" name="_bottom"/>
    </contour>
  </outline>
</glyph>
<glyph name="ordmasculine" format="1">
  <advance width="455"/>
  <unicode hex="00BA"/>
  <outline>
    <contour>
      <point x="38" y="520" type="curve" smooth="yes" name="hr00"/>
      <point x="38" y="387"/>
      <point x="113" y="313"/>
      <point x="227" y="313" type="curve" smooth="yes"/>
      <point x="339" y="313"/>
      <point x="416" y="387"/>
      <point x="416" y="520" type="curve" smooth="yes"/>
      <point x="416" y="653"/>
      <point x="339" y="727"/>
      <point x="227" y="727" type="curve" smooth="yes"/>
      <point x="116" y="727"/>
      <point x="38" y="653"/>
    </contour>
    <contour>
      <point x="124" y="520" type="curve" smooth="yes"/>
      <point x="124" y="612"/>
      <point x="161" y="658"/>
      <point x="227" y="658" type="curve" smooth="yes"/>
      <point x="294" y="658"/>
      <point x="330" y="612"/>
      <point x="330" y="520" type="curve" smooth="yes"/>
      <point x="330" y="428"/>
      <point x="294" y="382"/>
      <point x="227" y="382" type="curve" smooth="yes"/>
      <point x="161" y="382"/>
      <point x="124" y="428"/>
    </contour>
  </outline>
</glyph>
<glyph name="guillemotright" format="1">
  <advance width="564"/>
  <unicode hex="00BB"/>
  <outline>
    <contour>
      <point x="280" y="72" type="line" name="hr00"/>
      <point x="288" y="72" type="line"/>
      <point x="528" y="292" type="line"/>
      <point x="528" y="324" type="line"/>
      <point x="288" y="544" type="line"/>
      <point x="280" y="544" type="line"/>
      <point x="280" y="448" type="line"/>
      <point x="436" y="308" type="line"/>
      <point x="280" y="168" type="line"/>
    </contour>
    <contour>
      <point x="60" y="72" type="line"/>
      <point x="68" y="72" type="line"/>
      <point x="308" y="292" type="line"/>
      <point x="308" y="324" type="line"/>
      <point x="68" y="544" type="line"/>
      <point x="60" y="544" type="line"/>
      <point x="60" y="448" type="line"/>
      <point x="216" y="308" type="line"/>
      <point x="60" y="168" type="line"/>
    </contour>
  </outline>
</glyph>
<glyph name="questiondown" format="1">
  <advance width="500"/>
  <unicode hex="00BF"/>
  <outline>
    <contour>
      <point x="304" y="422" type="curve" smooth="yes"/>
      <point x="340" y="422"/>
      <point x="368" y="446"/>
      <point x="368" y="486" type="curve" smooth="yes"/>
      <point x="368" y="526"/>
      <point x="340" y="550"/>
      <point x="304" y="550" type="curve" smooth="yes"/>
      <point x="268" y="550"/>
      <point x="240" y="526"/>
      <point x="240" y="486" type="curve" smooth="yes"/>
      <point x="240" y="446"/>
      <point x="268" y="422"/>
    </contour>
    <contour>
      <point x="48" y="2" type="curve" smooth="yes"/>
      <point x="48" y="-130"/>
      <point x="132" y="-190"/>
      <point x="272" y="-190" type="curve" smooth="yes"/>
      <point x="340" y="-190"/>
      <point x="396" y="-178"/>
      <point x="444" y="-154" type="curve"/>
      <point x="444" y="-66" type="line"/>
      <point x="436" y="-66" type="line"/>
      <point x="392" y="-90"/>
      <point x="340" y="-106"/>
      <point x="276" y="-106" type="curve" smooth="yes"/>
      <point x="196" y="-106"/>
      <point x="144" y="-74"/>
      <point x="144" y="-2" type="curve" smooth="yes"/>
      <point x="144" y="62"/>
      <point x="189" y="100"/>
      <point x="220" y="118" type="curve" smooth="yes"/>
      <point x="280" y="154" type="line" smooth="yes"/>
      <point x="333" y="186"/>
      <point x="352" y="226"/>
      <point x="352" y="282" type="curve" smooth="yes" name="hr01"/>
      <point x="352" y="354" type="line"/>
      <point x="260" y="354" type="line"/>
      <point x="260" y="286" type="line" smooth="yes"/>
      <point x="260" y="262"/>
      <point x="255" y="232"/>
      <point x="224" y="214" type="curve" smooth="yes"/>
      <point x="176" y="186" type="line" smooth="yes"/>
      <point x="143" y="167"/>
      <point x="48" y="110"/>
    </contour>
  </outline>
</glyph>
<glyph name="AE" format="1">
  <advance width="990"/>
  <unicode hex="00C6"/>
  <outline>
    <contour>
      <point x="470" y="0" type="line"/>
      <point x="938" y="0" type="line"/>
      <point x="938" y="84" type="line"/>
      <point x="566" y="84" type="line"/>
      <point x="566" y="336" type="line"/>
      <point x="870" y="336" type="line"/>
      <point x="870" y="420" type="line"/>
      <point x="566" y="420" type="line"/>
      <point x="566" y="540" type="line" smooth="yes"/>
      <point x="566" y="563"/>
      <point x="566" y="601"/>
      <point x="567" y="636" type="curve"/>
      <point x="926" y="636" type="line"/>
      <point x="926" y="720" type="line"/>
      <point x="528" y="720" type="line"/>
      <point x="491" y="725"/>
      <point x="457" y="728"/>
      <point x="422" y="728" type="curve" smooth="yes" name="hr01"/>
      <point x="222" y="728"/>
      <point x="155" y="640"/>
      <point x="128" y="480" type="curve" smooth="yes"/>
      <point x="48" y="0" type="line"/>
      <point x="146" y="0" type="line"/>
      <point x="182" y="220" type="line"/>
      <point x="470" y="220" type="line"/>
    </contour>
    <contour>
      <point x="226" y="484" type="line" smooth="yes"/>
      <point x="242" y="583"/>
      <point x="286" y="644"/>
      <point x="418" y="644" type="curve" smooth="yes"/>
      <point x="438" y="644"/>
      <point x="456" y="643"/>
      <point x="471" y="640" type="curve"/>
      <point x="470" y="625"/>
      <point x="470" y="609"/>
      <point x="470" y="592" type="curve" smooth="yes"/>
      <point x="470" y="304" type="line"/>
      <point x="196" y="304" type="line"/>
    </contour>
    <contour>
      <point x="513" y="728" type="move" name="top"/>
    </contour>
  </outline>
</glyph>
<glyph name="Ccedilla" format="1">
  <advance width="648"/>
  <unicode hex="00C7"/>
  <outline>
    <contour>
      <point x="56" y="360" type="curve" smooth="yes"/>
      <point x="56" y="154"/>
      <point x="160" y="20"/>
      <point x="346" y="-7" type="curve"/>
      <point x="346" y="-92" type="line"/>
      <point x="410" y="-92"/>
      <point x="446" y="-108"/>
      <point x="446" y="-144" type="curve" smooth="yes" name="hr01"/>
      <point x="446" y="-168"/>
      <point x="426" y="-184"/>
      <point x="378" y="-184" type="curve" smooth="yes"/>
      <point x="346" y="-184"/>
      <point x="322" y="-180"/>
      <point x="298" y="-172" type="curve"/>
      <point x="294" y="-172" type="line" name="hr02"/>
      <point x="294" y="-236" type="line"/>
      <point x="318" y="-244"/>
      <point x="350" y="-248"/>
      <point x="378" y="-248" type="curve" smooth="yes"/>
      <point x="458" y="-248"/>
      <point x="514" y="-212"/>
      <point x="514" y="-140" type="curve" smooth="yes"/>
      <point x="514" y="-84"/>
      <point x="478" y="-48"/>
      <point x="410" y="-40" type="curve"/>
      <point x="410" y="-11" type="line"/>
      <point x="413" y="-11"/>
      <point x="416" y="-12"/>
      <point x="420" y="-12" type="curve" smooth="yes" name="hr03"/>
      <point x="488" y="-12"/>
      <point x="540" y="0"/>
      <point x="580" y="20" type="curve"/>
      <point x="580" y="112" type="line"/>
      <point x="572" y="112" type="line"/>
      <point x="532" y="88"/>
      <point x="480" y="76"/>
      <point x="420" y="76" type="curve" smooth="yes"/>
      <point x="260" y="76"/>
      <point x="156" y="168"/>
      <point x="156" y="360" type="curve" smooth="yes"/>
      <point x="156" y="552"/>
      <point x="260" y="644"/>
      <point x="420" y="644" type="curve" smooth="yes"/>
      <point x="480" y="644"/>
      <point x="532" y="632"/>
      <point x="572" y="608" type="curve"/>
      <point x="580" y="608" type="line"/>
      <point x="580" y="700" type="line"/>
      <point x="540" y="720"/>
      <point x="488" y="732"/>
      <point x="420" y="732" type="curve" smooth="yes"/>
      <point x="188" y="732"/>
      <point x="56" y="584"/>
    </contour>
  </outline>
</glyph>
<glyph name="Eth" format="1">
  <advance width="720"/>
  <unicode hex="00D0"/>
  <outline>
    <contour>
      <point x="12" y="336" type="line" name="hr00"/>
      <point x="96" y="336" type="line"/>
      <point x="96" y="0" type="line"/>
      <point x="312" y="0" type="line" smooth="yes"/>
      <point x="572" y="0"/>
      <point x="664" y="200"/>
      <point x="664" y="400" type="curve" smooth="yes"/>
      <point x="664" y="612"/>
      <point x="548" y="720"/>
      <point x="336" y="720" type="curve" smooth="yes"/>
      <point x="96" y="720" type="line"/>
      <point x="96" y="408" type="line"/>
      <point x="12" y="408" type="line"/>
    </contour>
    <contour>
      <point x="336" y="636" type="line" smooth="yes"/>
      <point x="488" y="636"/>
      <point x="564" y="556"/>
      <point x="564" y="400" type="curve" smooth="yes"/>
      <point x="564" y="256"/>
      <point x="508" y="84"/>
      <point x="312" y="84" type="curve" smooth="yes"/>
      <point x="192" y="84" type="line"/>
      <point x="192" y="336" type="line"/>
      <point x="308" y="336" type="line"/>
      <point x="308" y="408" type="line"/>
      <point x="192" y="408" type="line"/>
      <point x="192" y="636" type="line"/>
    </contour>
  </outline>
</glyph>
<glyph name="multiply" format="1">
  <advance width="616"/>
  <unicode hex="00D7"/>
  <outline>
    <contour>
      <point x="148" y="103" type="line" name="hr00"/>
      <point x="308" y="263" type="line"/>
      <point x="468" y="103" type="line"/>
      <point x="521" y="156" type="line"/>
      <point x="361" y="316" type="line"/>
      <point x="521" y="476" type="line"/>
      <point x="468" y="529" type="line"/>
      <point x="308" y="369" type="line"/>
      <point x="148" y="529" type="line"/>
      <point x="95" y="476" type="line"/>
      <point x="255" y="316" type="line"/>
      <point x="95" y="156" type="line"/>
    </contour>
  </outline>
</glyph>
<glyph name="Oslash" format="1">
  <advance width="784"/>
  <unicode hex="00D8"/>
  <outline>
    <contour>
      <point x="56" y="360" type="curve" smooth="yes" name="hr00"/>
      <point x="56" y="216"/>
      <point x="109" y="102"/>
      <point x="205" y="40" type="curve"/>
      <point x="154" y="-72" type="line"/>
      <point x="234" y="-72" type="line"/>
      <point x="270" y="7" type="line"/>
      <point x="307" y="-5"/>
      <point x="347" y="-12"/>
      <point x="392" y="-12" type="curve" smooth="yes"/>
      <point x="600" y="-12"/>
      <point x="728" y="140"/>
      <point x="728" y="360" type="curve" smooth="yes"/>
      <point x="728" y="503"/>
      <point x="674" y="617"/>
      <point x="578" y="680" type="curve"/>
      <point x="630" y="792" type="line"/>
      <point x="550" y="792" type="line"/>
      <point x="513" y="712" type="line"/>
      <point x="477" y="725"/>
      <point x="436" y="732"/>
      <point x="392" y="732" type="curve" smooth="yes"/>
      <point x="184" y="732"/>
      <point x="56" y="580"/>
    </contour>
    <contour>
      <point x="628" y="360" type="curve" smooth="yes"/>
      <point x="628" y="176"/>
      <point x="536" y="76"/>
      <point x="392" y="76" type="curve" smooth="yes"/>
      <point x="361" y="76"/>
      <point x="333" y="80"/>
      <point x="308" y="89" type="curve"/>
      <point x="539" y="595" type="line"/>
      <point x="595" y="548"/>
      <point x="628" y="469"/>
    </contour>
    <contour>
      <point x="156" y="360" type="curve" smooth="yes"/>
      <point x="156" y="544"/>
      <point x="248" y="644"/>
      <point x="392" y="644" type="curve" smooth="yes"/>
      <point x="422" y="644"/>
      <point x="450" y="639"/>
      <point x="476" y="630" type="curve"/>
      <point x="244" y="125" type="line"/>
      <point x="188" y="172"/>
      <point x="156" y="251"/>
    </contour>
    <contour>
      <point x="392" y="720" type="move" name="top"/>
    </contour>
  </outline>
</glyph>
<glyph name="Thorn" format="1">
  <advance width="596"/>
  <unicode hex="00DE"/>
  <outline>
    <contour>
      <point x="96" y="0" type="line" name="hr00"/>
      <point x="192" y="0" type="line"/>
      <point x="192" y="124" type="line"/>
      <point x="284" y="124" type="line" smooth="yes"/>
      <point x="476" y="124"/>
      <point x="556" y="264"/>
      <point x="556" y="396" type="curve" smooth="yes"/>
      <point x="556" y="536"/>
      <point x="464" y="604"/>
      <point x="328" y="604" type="curve" smooth="yes"/>
      <point x="192" y="604" type="line"/>
      <point x="192" y="720" type="line"/>
      <point x="96" y="720" type="line"/>
    </contour>
    <contour>
      <point x="324" y="520" type="line" smooth="yes"/>
      <point x="404" y="520"/>
      <point x="456" y="488"/>
      <point x="456" y="396" type="curve" smooth="yes"/>
      <point x="456" y="292"/>
      <point x="404" y="208"/>
      <point x="284" y="208" type="curve" smooth="yes"/>
      <point x="192" y="208" type="line"/>
      <point x="192" y="520" type="line"/>
    </contour>
  </outline>
</glyph>
<glyph name="germandbls" format="1">
  <advance width="584"/>
  <unicode hex="00DF"/>
  <outline>
    <contour>
      <point x="16" y="466" type="line"/>
      <point x="100" y="466" type="line" name="hr01"/>
      <point x="100" y="0" type="line"/>
      <point x="192" y="0" type="line"/>
      <point x="192" y="564" type="line" smooth="yes"/>
      <point x="192" y="640"/>
      <point x="228" y="680"/>
      <point x="300" y="680" type="curve" smooth="yes"/>
      <point x="364" y="680"/>
      <point x="392" y="644"/>
      <point x="392" y="592" type="curve" smooth="yes"/>
      <point x="392" y="504"/>
      <point x="312" y="484"/>
      <point x="312" y="384" type="curve" smooth="yes" name="hr02"/>
      <point x="312" y="316"/>
      <point x="350" y="284"/>
      <point x="388" y="256" type="curve" smooth="yes"/>
      <point x="404" y="244" type="line" smooth="yes"/>
      <point x="436" y="220"/>
      <point x="464" y="194"/>
      <point x="464" y="148" type="curve" smooth="yes"/>
      <point x="464" y="92"/>
      <point x="428" y="68"/>
      <point x="372" y="68" type="curve" smooth="yes"/>
      <point x="332" y="68"/>
      <point x="304" y="76"/>
      <point x="284" y="84" type="curve"/>
      <point x="276" y="84" type="line"/>
      <point x="276" y="4" type="line"/>
      <point x="310" y="-5"/>
      <point x="328" y="-8"/>
      <point x="376" y="-8" type="curve" smooth="yes"/>
      <point x="480" y="-8"/>
      <point x="552" y="52"/>
      <point x="552" y="148" type="curve" smooth="yes"/>
      <point x="552" y="225"/>
      <point x="509" y="265"/>
      <point x="468" y="296" type="curve" smooth="yes"/>
      <point x="452" y="308" type="line" smooth="yes"/>
      <point x="422" y="330"/>
      <point x="400" y="353"/>
      <point x="400" y="388" type="curve" smooth="yes"/>
      <point x="400" y="472"/>
      <point x="480" y="480"/>
      <point x="480" y="596" type="curve" smooth="yes" name="hr03"/>
      <point x="480" y="684"/>
      <point x="424" y="760"/>
      <point x="304" y="760" type="curve" smooth="yes"/>
      <point x="156" y="760"/>
      <point x="100" y="668"/>
      <point x="100" y="568" type="curve" smooth="yes"/>
      <point x="100" y="544" type="line"/>
      <point x="16" y="544" type="line" name="hr04"/>
    </contour>
  </outline>
</glyph>
<glyph name="ae" format="1">
  <advance width="953"/>
  <unicode hex="00E6"/>
  <outline>
    <contour>
      <point x="102" y="444" type="line"/>
      <point x="110" y="444" type="line"/>
      <point x="142" y="460"/>
      <point x="202" y="476"/>
      <point x="254" y="476" type="curve" smooth="yes"/>
      <point x="358" y="476"/>
      <point x="410" y="456"/>
      <point x="410" y="328" type="curve" smooth="yes"/>
      <point x="410" y="313" type="line"/>
      <point x="385" y="321"/>
      <point x="339" y="332"/>
      <point x="286" y="332" type="curve" smooth="yes"/>
      <point x="142" y="332"/>
      <point x="52" y="276"/>
      <point x="52" y="160" type="curve" smooth="yes"/>
      <point x="52" y="44"/>
      <point x="130" y="-12"/>
      <point x="282" y="-12" type="curve" smooth="yes"/>
      <point x="371" y="-12"/>
      <point x="445" y="15"/>
      <point x="499" y="49" type="curve"/>
      <point x="548" y="12"/>
      <point x="617" y="-8"/>
      <point x="708" y="-8" type="curve" smooth="yes" name="hr01"/>
      <point x="780" y="-8"/>
      <point x="832" y="6"/>
      <point x="864" y="22" type="curve"/>
      <point x="864" y="104" type="line"/>
      <point x="856" y="104" type="line"/>
      <point x="828" y="88"/>
      <point x="780" y="72"/>
      <point x="712" y="72" type="curve" smooth="yes" name="hr02"/>
      <point x="589" y="72"/>
      <point x="513" y="120"/>
      <point x="503" y="240" type="curve"/>
      <point x="899" y="240" type="line"/>
      <point x="900" y="268" type="line" smooth="yes"/>
      <point x="906" y="440"/>
      <point x="836" y="556"/>
      <point x="660" y="556" type="curve" smooth="yes"/>
      <point x="580" y="556"/>
      <point x="515" y="525"/>
      <point x="471" y="471" type="curve"/>
      <point x="430" y="539"/>
      <point x="355" y="556"/>
      <point x="266" y="556" type="curve" smooth="yes"/>
      <point x="214" y="556"/>
      <point x="150" y="546"/>
      <point x="102" y="526" type="curve"/>
    </contour>
    <contour>
      <point x="447" y="108" type="curve"/>
      <point x="406" y="83"/>
      <point x="353" y="66"/>
      <point x="282" y="66" type="curve" smooth="yes"/>
      <point x="194" y="66"/>
      <point x="142" y="92"/>
      <point x="142" y="160" type="curve" smooth="yes"/>
      <point x="142" y="232"/>
      <point x="194" y="256"/>
      <point x="302" y="256" type="curve" smooth="yes" name="hr03"/>
      <point x="343" y="256"/>
      <point x="381" y="249"/>
      <point x="409" y="241" type="curve"/>
      <point x="412" y="189"/>
      <point x="425" y="145"/>
    </contour>
    <contour>
      <point x="660" y="476" type="curve" smooth="yes"/>
      <point x="756" y="476"/>
      <point x="804" y="424"/>
      <point x="804" y="324" type="curve" smooth="yes"/>
      <point x="804" y="316" type="line" name="hr04"/>
      <point x="503" y="316" type="line"/>
      <point x="511" y="427"/>
      <point x="575" y="476"/>
    </contour>
    <contour>
      <point x="462" y="544" type="move" name="top"/>
    </contour>
  </outline>
</glyph>
<glyph name="ccedilla" format="1">
  <advance width="512"/>
  <unicode hex="00E7"/>
  <outline>
    <contour>
      <point x="56" y="274" type="curve" smooth="yes"/>
      <point x="56" y="121"/>
      <point x="135" y="23"/>
      <point x="274" y="-1" type="curve"/>
      <point x="274" y="-92" type="line"/>
      <point x="338" y="-92"/>
      <point x="374" y="-108"/>
      <point x="374" y="-144" type="curve" smooth="yes"/>
      <point x="374" y="-168"/>
      <point x="354" y="-184"/>
      <point x="306" y="-184" type="curve" smooth="yes"/>
      <point x="274" y="-184"/>
      <point x="250" y="-180"/>
      <point x="226" y="-172" type="curve"/>
      <point x="222" y="-172" type="line" name="hr01"/>
      <point x="222" y="-236" type="line"/>
      <point x="246" y="-244"/>
      <point x="278" y="-248"/>
      <point x="306" y="-248" type="curve" smooth="yes"/>
      <point x="386" y="-248"/>
      <point x="442" y="-212"/>
      <point x="442" y="-140" type="curve" smooth="yes"/>
      <point x="442" y="-84"/>
      <point x="406" y="-48"/>
      <point x="338" y="-40" type="curve" name="hr02"/>
      <point x="338" y="-8" type="line"/>
      <point x="348" y="-8" type="line" smooth="yes"/>
      <point x="396" y="-8"/>
      <point x="440" y="0"/>
      <point x="472" y="14" type="curve"/>
      <point x="472" y="96" type="line"/>
      <point x="464" y="96" type="line"/>
      <point x="436" y="82"/>
      <point x="396" y="72"/>
      <point x="348" y="72" type="curve" smooth="yes"/>
      <point x="228" y="72"/>
      <point x="150" y="140"/>
      <point x="150" y="274" type="curve" smooth="yes"/>
      <point x="150" y="408"/>
      <point x="228" y="476"/>
      <point x="348" y="476" type="curve" smooth="yes"/>
      <point x="396" y="476"/>
      <point x="436" y="466"/>
      <point x="464" y="452" type="curve"/>
      <point x="472" y="452" type="line"/>
      <point x="472" y="534" type="line"/>
      <point x="440" y="548"/>
      <point x="396" y="556"/>
      <point x="348" y="556" type="curve" smooth="yes"/>
      <point x="168" y="556"/>
      <point x="56" y="452"/>
    </contour>
  </outline>
</glyph>
<glyph name="eth" format="1">
  <advance width="612"/>
  <unicode hex="00F0"/>
  <outline>
    <contour>
      <point x="48" y="228" type="curve" smooth="yes" name="hr00"/>
      <point x="48" y="96"/>
      <point x="128" y="-12"/>
      <point x="288" y="-12" type="curve" smooth="yes"/>
      <point x="476" y="-12"/>
      <point x="556" y="132"/>
      <point x="556" y="348" type="curve" smooth="yes"/>
      <point x="556" y="495"/>
      <point x="512" y="607"/>
      <point x="427" y="671" type="curve"/>
      <point x="492" y="736" type="line"/>
      <point x="448" y="780" type="line"/>
      <point x="372" y="704" type="line"/>
      <point x="331" y="722"/>
      <point x="282" y="732"/>
      <point x="228" y="732" type="curve" smooth="yes"/>
      <point x="172" y="732"/>
      <point x="132" y="724"/>
      <point x="100" y="712" type="curve"/>
      <point x="100" y="624" type="line"/>
      <point x="108" y="624" type="line"/>
      <point x="136" y="636"/>
      <point x="172" y="648"/>
      <point x="228" y="648" type="curve" smooth="yes"/>
      <point x="256" y="648"/>
      <point x="282" y="644"/>
      <point x="305" y="637" type="curve"/>
      <point x="248" y="580" type="line"/>
      <point x="292" y="536" type="line"/>
      <point x="365" y="609" type="line"/>
      <point x="419" y="569"/>
      <point x="450" y="500"/>
      <point x="458" y="406" type="curve"/>
      <point x="427" y="439"/>
      <point x="373" y="468"/>
      <point x="284" y="468" type="curve" smooth="yes"/>
      <point x="152" y="468"/>
      <point x="48" y="388"/>
    </contour>
    <contour>
      <point x="300" y="388" type="curve" smooth="yes"/>
      <point x="370" y="388"/>
      <point x="425" y="353"/>
      <point x="459" y="312" type="curve"/>
      <point x="454" y="150"/>
      <point x="410" y="68"/>
      <point x="292" y="68" type="curve" smooth="yes"/>
      <point x="184" y="68"/>
      <point x="140" y="144"/>
      <point x="140" y="232" type="curve" smooth="yes"/>
      <point x="140" y="328"/>
      <point x="192" y="388"/>
    </contour>
  </outline>
</glyph>
<glyph name="divide" format="1">
  <advance width="616"/>
  <unicode hex="00F7"/>
  <outline>
    <contour>
      <point x="308" y="420" type="curve" smooth="yes" name="hr00"/>
      <point x="342" y="420"/>
      <point x="368" y="442"/>
      <point x="368" y="480" type="curve" smooth="yes"/>
      <point x="368" y="517"/>
      <point x="342" y="540"/>
      <point x="308" y="540" type="curve" smooth="yes"/>
      <point x="274" y="540"/>
      <point x="248" y="517"/>
      <point x="248" y="480" type="curve" smooth="yes"/>
      <point x="248" y="442"/>
      <point x="274" y="420"/>
    </contour>
    <contour>
      <point x="248" y="152" type="curve" smooth="yes"/>
      <point x="248" y="114"/>
      <point x="274" y="92"/>
      <point x="308" y="92" type="curve" smooth="yes"/>
      <point x="342" y="92"/>
      <point x="368" y="114"/>
      <point x="368" y="152" type="curve" smooth="yes"/>
      <point x="368" y="189"/>
      <point x="342" y="212"/>
      <point x="308" y="212" type="curve" smooth="yes"/>
      <point x="274" y="212"/>
      <point x="248" y="189"/>
    </contour>
    <contour>
      <point x="64" y="276" type="line"/>
      <point x="552" y="276" type="line"/>
      <point x="552" y="356" type="line"/>
      <point x="64" y="356" type="line"/>
    </contour>
  </outline>
</glyph>
<glyph name="oslash" format="1">
  <advance width="606"/>
  <unicode hex="00F8"/>
  <outline>
    <contour>
      <point x="53" y="274" type="curve" smooth="yes" name="hr00"/>
      <point x="53" y="166"/>
      <point x="89" y="86"/>
      <point x="151" y="39" type="curve"/>
      <point x="89" y="-86" type="line"/>
      <point x="161" y="-86" type="line"/>
      <point x="207" y="8" type="line"/>
      <point x="236" y="-2"/>
      <point x="268" y="-8"/>
      <point x="303" y="-8" type="curve" smooth="yes"/>
      <point x="451" y="-8"/>
      <point x="553" y="96"/>
      <point x="553" y="274" type="curve" smooth="yes"/>
      <point x="553" y="381"/>
      <point x="516" y="461"/>
      <point x="454" y="508" type="curve"/>
      <point x="517" y="634" type="line"/>
      <point x="445" y="634" type="line"/>
      <point x="398" y="539" type="line"/>
      <point x="369" y="550"/>
      <point x="337" y="556"/>
      <point x="303" y="556" type="curve" smooth="yes"/>
      <point x="155" y="556"/>
      <point x="53" y="452"/>
    </contour>
    <contour>
      <point x="147" y="274" type="curve" smooth="yes"/>
      <point x="147" y="408"/>
      <point x="203" y="476"/>
      <point x="303" y="476" type="curve" smooth="yes"/>
      <point x="325" y="476"/>
      <point x="344" y="473"/>
      <point x="362" y="466" type="curve"/>
      <point x="190" y="119" type="line"/>
      <point x="162" y="152"/>
      <point x="147" y="204"/>
    </contour>
    <contour>
      <point x="459" y="274" type="curve" smooth="yes"/>
      <point x="459" y="140"/>
      <point x="403" y="72"/>
      <point x="303" y="72" type="curve" smooth="yes"/>
      <point x="281" y="72"/>
      <point x="261" y="75"/>
      <point x="244" y="81" type="curve"/>
      <point x="415" y="429" type="line"/>
      <point x="444" y="395"/>
      <point x="459" y="343"/>
    </contour>
    <contour>
      <point x="303" y="544" type="move" name="top"/>
    </contour>
  </outline>
</glyph>
<glyph name="thorn" format="1">
  <advance width="618"/>
  <unicode hex="00FE"/>
  <outline>
    <contour>
      <point x="96" y="-250" type="line" name="hr00"/>
      <point x="188" y="-250" type="line"/>
      <point x="188" y="1" type="line"/>
      <point x="213" y="-5"/>
      <point x="248" y="-12"/>
      <point x="280" y="-12" type="curve" smooth="yes"/>
      <point x="456" y="-12"/>
      <point x="566" y="96"/>
      <point x="566" y="274" type="curve" smooth="yes"/>
      <point x="566" y="452"/>
      <point x="460" y="556"/>
      <point x="292" y="556" type="curve" smooth="yes"/>
      <point x="251" y="556"/>
      <point x="216" y="550"/>
      <point x="188" y="540" type="curve"/>
      <point x="188" y="760" type="line"/>
      <point x="90" y="760" type="line"/>
      <point x="88" y="752" type="line"/>
      <point x="96" y="716"/>
      <point x="96" y="628"/>
      <point x="96" y="588" type="curve" smooth="yes"/>
    </contour>
    <contour>
      <point x="284" y="476" type="curve" smooth="yes"/>
      <point x="404" y="476"/>
      <point x="472" y="408"/>
      <point x="472" y="274" type="curve" smooth="yes"/>
      <point x="472" y="140"/>
      <point x="408" y="68"/>
      <point x="280" y="68" type="curve" smooth="yes"/>
      <point x="235" y="68"/>
      <point x="206" y="74"/>
      <point x="188" y="81" type="curve"/>
      <point x="188" y="463" type="line"/>
      <point x="216" y="470"/>
      <point x="249" y="476"/>
    </contour>
  </outline>
</glyph>
<glyph name="Aogonek" format="1">
  <advance width="662"/>
  <unicode hex="0104"/>
  <outline>
    <contour>
      <point x="470" y="0" type="line"/>
      <point x="496" y="0" type="line"/>
      <point x="460" y="-42"/>
      <point x="423" y="-88"/>
      <point x="423" y="-156" type="curve" smooth="yes" name="hr01"/>
      <point x="423" y="-212"/>
      <point x="457" y="-248"/>
      <point x="520" y="-248" type="curve" smooth="yes"/>
      <point x="538" y="-248"/>
      <point x="554" y="-246"/>
      <point x="567" y="-240" type="curve"/>
      <point x="567" y="-176" type="line"/>
      <point x="565" y="-176" type="line"/>
      <point x="554" y="-182"/>
      <point x="542" y="-184"/>
      <point x="530" y="-184" type="curve" smooth="yes"/>
      <point x="505" y="-184"/>
      <point x="493" y="-164"/>
      <point x="493" y="-140" type="curve" smooth="yes"/>
      <point x="493" y="-104"/>
      <point x="515" y="-62"/>
      <point x="566" y="0" type="curve" name="hr02"/>
      <point x="566" y="540" type="line" smooth="yes"/>
      <point x="566" y="580"/>
      <point x="566" y="660"/>
      <point x="572" y="700" type="curve"/>
      <point x="570" y="712" type="line"/>
      <point x="518" y="724"/>
      <point x="470" y="728"/>
      <point x="422" y="728" type="curve" smooth="yes"/>
      <point x="222" y="728"/>
      <point x="155" y="640"/>
      <point x="128" y="480" type="curve" smooth="yes"/>
      <point x="48" y="0" type="line"/>
      <point x="146" y="0" type="line"/>
      <point x="182" y="220" type="line"/>
      <point x="470" y="220" type="line"/>
    </contour>
    <contour>
      <point x="226" y="480" type="line" smooth="yes"/>
      <point x="245" y="591"/>
      <point x="286" y="644"/>
      <point x="418" y="644" type="curve" smooth="yes"/>
      <point x="438" y="644"/>
      <point x="456" y="643"/>
      <point x="471" y="640" type="curve"/>
      <point x="470" y="625"/>
      <point x="470" y="609"/>
      <point x="470" y="592" type="curve" smooth="yes"/>
      <point x="470" y="304" type="line"/>
      <point x="196" y="304" type="line"/>
    </contour>
  </outline>
</glyph>
<glyph name="aogonek" format="1">
  <advance width="610"/>
  <unicode hex="0105"/>
  <outline>
    <contour>
      <point x="68" y="160" type="curve" smooth="yes"/>
      <point x="68" y="44"/>
      <point x="146" y="-12"/>
      <point x="302" y="-12" type="curve" smooth="yes"/>
      <point x="338" y="-12"/>
      <point x="388" y="-6"/>
      <point x="436" y="4" type="curve"/>
      <point x="396" y="-34"/>
      <point x="357" y="-86"/>
      <point x="357" y="-156" type="curve" smooth="yes"/>
      <point x="357" y="-212"/>
      <point x="391" y="-248"/>
      <point x="454" y="-248" type="curve" smooth="yes"/>
      <point x="472" y="-248"/>
      <point x="488" y="-246"/>
      <point x="501" y="-240" type="curve"/>
      <point x="501" y="-176" type="line"/>
      <point x="499" y="-176" type="line"/>
      <point x="488" y="-182"/>
      <point x="476" y="-184"/>
      <point x="464" y="-184" type="curve" smooth="yes"/>
      <point x="439" y="-184"/>
      <point x="427" y="-164"/>
      <point x="427" y="-140" type="curve" smooth="yes" name="hr01"/>
      <point x="427" y="-104"/>
      <point x="448" y="-61"/>
      <point x="500" y="0" type="curve" smooth="yes"/>
      <point x="524" y="28" type="line"/>
      <point x="526" y="36" type="line"/>
      <point x="518" y="72"/>
      <point x="518" y="160"/>
      <point x="518" y="200" type="curve" smooth="yes" name="hr02"/>
      <point x="518" y="332" type="line" smooth="yes"/>
      <point x="518" y="520"/>
      <point x="414" y="556"/>
      <point x="282" y="556" type="curve" smooth="yes"/>
      <point x="230" y="556"/>
      <point x="166" y="546"/>
      <point x="118" y="526" type="curve"/>
      <point x="118" y="444" type="line"/>
      <point x="126" y="444" type="line"/>
      <point x="158" y="460"/>
      <point x="218" y="476"/>
      <point x="270" y="476" type="curve" smooth="yes"/>
      <point x="374" y="476"/>
      <point x="426" y="456"/>
      <point x="426" y="328" type="curve" smooth="yes"/>
      <point x="426" y="313" type="line"/>
      <point x="401" y="321"/>
      <point x="355" y="332"/>
      <point x="302" y="332" type="curve" smooth="yes"/>
      <point x="158" y="332"/>
      <point x="68" y="276"/>
    </contour>
    <contour>
      <point x="430" y="81" type="curve"/>
      <point x="392" y="70"/>
      <point x="350" y="64"/>
      <point x="306" y="64" type="curve" smooth="yes"/>
      <point x="210" y="64"/>
      <point x="158" y="92"/>
      <point x="158" y="160" type="curve" smooth="yes"/>
      <point x="158" y="232"/>
      <point x="210" y="256"/>
      <point x="318" y="256" type="curve" smooth="yes"/>
      <point x="360" y="256"/>
      <point x="398" y="248"/>
      <point x="426" y="241" type="curve"/>
      <point x="426" y="148" type="line" smooth="yes"/>
      <point x="426" y="123"/>
      <point x="427" y="100"/>
    </contour>
  </outline>
</glyph>
<glyph name="dcaron" format="1">
  <advance width="618"/>
  <unicode hex="010F"/>
  <outline>
    <contour>
      <point x="52" y="274" type="curve" smooth="yes" name="hr00"/>
      <point x="52" y="96"/>
      <point x="152" y="-12"/>
      <point x="332" y="-12" type="curve" smooth="yes"/>
      <point x="408" y="-12"/>
      <point x="472" y="6"/>
      <point x="528" y="28" type="curve"/>
      <point x="530" y="36" type="line"/>
      <point x="522" y="72"/>
      <point x="522" y="160"/>
      <point x="522" y="200" type="curve" smooth="yes"/>
      <point x="522" y="760" type="line"/>
      <point x="424" y="760" type="line"/>
      <point x="422" y="752" type="line"/>
      <point x="430" y="716"/>
      <point x="430" y="628"/>
      <point x="430" y="588" type="curve" smooth="yes"/>
      <point x="430" y="544" type="line"/>
      <point x="407" y="551"/>
      <point x="376" y="556"/>
      <point x="340" y="556" type="curve" smooth="yes"/>
      <point x="168" y="556"/>
      <point x="52" y="452"/>
    </contour>
    <contour>
      <point x="434" y="83" type="curve"/>
      <point x="408" y="74"/>
      <point x="377" y="68"/>
      <point x="340" y="68" type="curve" smooth="yes"/>
      <point x="214" y="68"/>
      <point x="146" y="132"/>
      <point x="146" y="274" type="curve" smooth="yes"/>
      <point x="146" y="404"/>
      <point x="216" y="476"/>
      <point x="346" y="476" type="curve" smooth="yes"/>
      <point x="384" y="476"/>
      <point x="412" y="469"/>
      <point x="430" y="463" type="curve"/>
      <point x="430" y="152" type="line" smooth="yes"/>
      <point x="430" y="127"/>
      <point x="431" y="103"/>
    </contour>
    <contour>
      <point x="610" y="662" type="curve"/>
      <point x="569" y="581" type="line"/>
      <point x="569" y="576" type="line"/>
      <point x="624" y="576" type="line"/>
      <point x="663" y="653" type="line"/>
      <point x="668" y="665"/>
      <point x="679" y="684"/>
      <point x="679" y="708" type="curve" smooth="yes"/>
      <point x="679" y="744"/>
      <point x="657" y="760"/>
      <point x="628" y="760" type="curve" smooth="yes"/>
      <point x="598" y="760"/>
      <point x="577" y="741"/>
      <point x="577" y="708" type="curve" smooth="yes"/>
      <point x="577" y="682"/>
      <point x="596" y="667"/>
    </contour>
  </outline>
</glyph>
<glyph name="dcroat" format="1">
  <advance width="618"/>
  <unicode hex="0111"/>
  <outline>
    <contour>
      <point x="300" y="624" type="line"/>
      <point x="430" y="624" type="line"/>
      <point x="430" y="544" type="line"/>
      <point x="407" y="551"/>
      <point x="376" y="556"/>
      <point x="340" y="556" type="curve" smooth="yes"/>
      <point x="168" y="556"/>
      <point x="52" y="452"/>
      <point x="52" y="274" type="curve" smooth="yes"/>
      <point x="52" y="96"/>
      <point x="152" y="-12"/>
      <point x="332" y="-12" type="curve" smooth="yes"/>
      <point x="408" y="-12"/>
      <point x="472" y="6"/>
      <point x="528" y="28" type="curve"/>
      <point x="530" y="36" type="line"/>
      <point x="522" y="72"/>
      <point x="522" y="160"/>
      <point x="522" y="200" type="curve" smooth="yes"/>
      <point x="522" y="624" type="line"/>
      <point x="596" y="624" type="line"/>
      <point x="596" y="688" type="line"/>
      <point x="522" y="688" type="line"/>
      <point x="522" y="760" type="line" name="hr01"/>
      <point x="424" y="760" type="line"/>
      <point x="422" y="752" type="line"/>
      <point x="425" y="737"/>
      <point x="427" y="713"/>
      <point x="428" y="688" type="curve" name="hr02"/>
      <point x="300" y="688" type="line"/>
    </contour>
    <contour>
      <point x="434" y="83" type="curve"/>
      <point x="408" y="74"/>
      <point x="377" y="68"/>
      <point x="340" y="68" type="curve" smooth="yes"/>
      <point x="214" y="68"/>
      <point x="146" y="132"/>
      <point x="146" y="274" type="curve" smooth="yes"/>
      <point x="146" y="404"/>
      <point x="216" y="476"/>
      <point x="346" y="476" type="curve" smooth="yes"/>
      <point x="384" y="476"/>
      <point x="412" y="469"/>
      <point x="430" y="463" type="curve"/>
      <point x="430" y="152" type="line" smooth="yes"/>
      <point x="430" y="127"/>
      <point x="431" y="103"/>
    </contour>
  </outline>
</glyph>
<glyph name="Eogonek" format="1">
  <advance width="620"/>
  <unicode hex="0118"/>
  <outline>
    <contour>
      <point x="96" y="0" type="line"/>
      <point x="494" y="0" type="line"/>
      <point x="458" y="-42"/>
      <point x="421" y="-88"/>
      <point x="421" y="-156" type="curve" smooth="yes"/>
      <point x="421" y="-212"/>
      <point x="455" y="-248"/>
      <point x="518" y="-248" type="curve" smooth="yes"/>
      <point x="536" y="-248"/>
      <point x="552" y="-246"/>
      <point x="565" y="-240" type="curve"/>
      <point x="565" y="-176" type="line"/>
      <point x="563" y="-176" type="line"/>
      <point x="552" y="-182"/>
      <point x="540" y="-184"/>
      <point x="528" y="-184" type="curve" smooth="yes"/>
      <point x="503" y="-184"/>
      <point x="491" y="-164"/>
      <point x="491" y="-140" type="curve" smooth="yes"/>
      <point x="491" y="-104"/>
      <point x="513" y="-62"/>
      <point x="564" y="0" type="curve" name="hr01"/>
      <point x="564" y="84" type="line"/>
      <point x="192" y="84" type="line"/>
      <point x="192" y="336" type="line"/>
      <point x="496" y="336" type="line"/>
      <point x="496" y="420" type="line"/>
      <point x="192" y="420" type="line"/>
      <point x="192" y="636" type="line"/>
      <point x="552" y="636" type="line"/>
      <point x="552" y="720" type="line"/>
      <point x="96" y="720" type="line"/>
    </contour>
  </outline>
</glyph>
<glyph name="eogonek" format="1">
  <advance width="597"/>
  <unicode hex="0119"/>
  <outline>
    <contour>
      <point x="346" y="-156" type="curve" smooth="yes"/>
      <point x="346" y="-212"/>
      <point x="380" y="-248"/>
      <point x="451" y="-248" type="curve" smooth="yes"/>
      <point x="473" y="-248"/>
      <point x="492" y="-244"/>
      <point x="506" y="-236" type="curve"/>
      <point x="506" y="-172" type="line"/>
      <point x="504" y="-172" type="line"/>
      <point x="489" y="-180"/>
      <point x="475" y="-184"/>
      <point x="461" y="-184" type="curve" smooth="yes"/>
      <point x="428" y="-184"/>
      <point x="416" y="-164"/>
      <point x="416" y="-140" type="curve" smooth="yes"/>
      <point x="416" y="-105"/>
      <point x="437" y="-64"/>
      <point x="508" y="22" type="curve" name="hr01"/>
      <point x="508" y="104" type="line"/>
      <point x="500" y="104" type="line"/>
      <point x="472" y="88"/>
      <point x="424" y="72"/>
      <point x="356" y="72" type="curve" smooth="yes"/>
      <point x="233" y="72"/>
      <point x="157" y="120"/>
      <point x="147" y="240" type="curve"/>
      <point x="543" y="240" type="line"/>
      <point x="544" y="268" type="line" smooth="yes" name="hr02"/>
      <point x="550" y="440"/>
      <point x="480" y="556"/>
      <point x="304" y="556" type="curve" smooth="yes"/>
      <point x="152" y="556"/>
      <point x="52" y="444"/>
      <point x="52" y="274" type="curve" smooth="yes"/>
      <point x="52" y="92"/>
      <point x="148" y="-8"/>
      <point x="352" y="-8" type="curve" smooth="yes"/>
      <point x="380" y="-8"/>
      <point x="404" y="-6"/>
      <point x="426" y="-2" type="curve"/>
      <point x="379" y="-55"/>
      <point x="346" y="-100"/>
    </contour>
    <contour>
      <point x="304" y="476" type="curve" smooth="yes"/>
      <point x="400" y="476"/>
      <point x="448" y="424"/>
      <point x="448" y="324" type="curve" smooth="yes" name="hr03"/>
      <point x="448" y="316" type="line"/>
      <point x="147" y="316" type="line"/>
      <point x="155" y="427"/>
      <point x="219" y="476"/>
    </contour>
  </outline>
</glyph>
<glyph name="Hbar" format="1">
  <advance width="736"/>
  <unicode hex="0126"/>
  <outline>
    <contour>
      <point x="12" y="544" type="line" name="hr00"/>
      <point x="96" y="544" type="line"/>
      <point x="96" y="0" type="line"/>
      <point x="192" y="0" type="line"/>
      <point x="192" y="332" type="line"/>
      <point x="544" y="332" type="line"/>
      <point x="544" y="0" type="line"/>
      <point x="640" y="0" type="line"/>
      <point x="640" y="544" type="line"/>
      <point x="724" y="544" type="line"/>
      <point x="724" y="616" type="line"/>
      <point x="640" y="616" type="line"/>
      <point x="640" y="720" type="line"/>
      <point x="544" y="720" type="line"/>
      <point x="544" y="616" type="line"/>
      <point x="192" y="616" type="line"/>
      <point x="192" y="720" type="line"/>
      <point x="96" y="720" type="line"/>
      <point x="96" y="616" type="line"/>
      <point x="12" y="616" type="line"/>
    </contour>
    <contour>
      <point x="192" y="544" type="line"/>
      <point x="544" y="544" type="line"/>
      <point x="544" y="416" type="line"/>
      <point x="192" y="416" type="line"/>
    </contour>
  </outline>
</glyph>
<glyph name="hbar" format="1">
  <advance width="636"/>
  <unicode hex="0127"/>
  <outline>
    <contour>
      <point x="456" y="0" type="line"/>
      <point x="548" y="0" type="line"/>
      <point x="548" y="320" type="line" smooth="yes"/>
      <point x="548" y="508"/>
      <point x="440" y="556"/>
      <point x="328" y="556" type="curve" smooth="yes"/>
      <point x="271" y="556"/>
      <point x="226" y="543"/>
      <point x="188" y="527" type="curve"/>
      <point x="188" y="624" type="line"/>
      <point x="320" y="624" type="line"/>
      <point x="320" y="688" type="line"/>
      <point x="188" y="688" type="line"/>
      <point x="188" y="760" type="line" name="hr01"/>
      <point x="90" y="760" type="line"/>
      <point x="88" y="752" type="line"/>
      <point x="91" y="737"/>
      <point x="93" y="713"/>
      <point x="94" y="688" type="curve" name="hr02"/>
      <point x="24" y="688" type="line"/>
      <point x="24" y="624" type="line"/>
      <point x="96" y="624" type="line"/>
      <point x="96" y="0" type="line"/>
      <point x="188" y="0" type="line"/>
      <point x="188" y="447" type="line"/>
      <point x="222" y="460"/>
      <point x="265" y="472"/>
      <point x="308" y="472" type="curve" smooth="yes"/>
      <point x="396" y="472"/>
      <point x="456" y="440"/>
      <point x="456" y="308" type="curve" smooth="yes"/>
    </contour>
  </outline>
</glyph>
<glyph name="Iogonek" format="1">
  <advance width="288"/>
  <unicode hex="012E"/>
  <outline>
    <contour>
      <point x="96" y="0" type="line"/>
      <point x="122" y="0" type="line"/>
      <point x="86" y="-42"/>
      <point x="49" y="-88"/>
      <point x="49" y="-156" type="curve" smooth="yes" name="hr01"/>
      <point x="49" y="-212"/>
      <point x="83" y="-248"/>
      <point x="146" y="-248" type="curve" smooth="yes"/>
      <point x="164" y="-248"/>
      <point x="180" y="-246"/>
      <point x="193" y="-240" type="curve"/>
      <point x="193" y="-176" type="line"/>
      <point x="191" y="-176" type="line"/>
      <point x="180" y="-182"/>
      <point x="168" y="-184"/>
      <point x="156" y="-184" type="curve" smooth="yes"/>
      <point x="131" y="-184"/>
      <point x="119" y="-164"/>
      <point x="119" y="-140" type="curve" smooth="yes"/>
      <point x="119" y="-104"/>
      <point x="141" y="-62"/>
      <point x="192" y="0" type="curve" name="hr02"/>
      <point x="192" y="720" type="line"/>
      <point x="96" y="720" type="line"/>
    </contour>
  </outline>
</glyph>
<glyph name="iogonek" format="1">
  <advance width="292"/>
  <unicode hex="012F"/>
  <outline>
    <contour>
      <point x="100" y="0" type="line"/>
      <point x="122" y="0" type="line"/>
      <point x="86" y="-42"/>
      <point x="49" y="-88"/>
      <point x="49" y="-156" type="curve" smooth="yes" name="hr01"/>
      <point x="49" y="-212"/>
      <point x="83" y="-248"/>
      <point x="146" y="-248" type="curve" smooth="yes"/>
      <point x="164" y="-248"/>
      <point x="180" y="-246"/>
      <point x="193" y="-240" type="curve"/>
      <point x="193" y="-176" type="line"/>
      <point x="191" y="-176" type="line"/>
      <point x="180" y="-182"/>
      <point x="168" y="-184"/>
      <point x="156" y="-184" type="curve" smooth="yes"/>
      <point x="131" y="-184"/>
      <point x="119" y="-164"/>
      <point x="119" y="-140" type="curve" smooth="yes"/>
      <point x="119" y="-104"/>
      <point x="141" y="-62"/>
      <point x="192" y="0" type="curve" name="hr02"/>
      <point x="192" y="544" type="line"/>
      <point x="94" y="544" type="line"/>
      <point x="92" y="536" type="line"/>
      <point x="100" y="500"/>
      <point x="100" y="412"/>
      <point x="100" y="372" type="curve" smooth="yes"/>
    </contour>
    <contour>
      <point x="144" y="640" type="curve" smooth="yes"/>
      <point x="178" y="640"/>
      <point x="204" y="664"/>
      <point x="204" y="700" type="curve" smooth="yes" name="hr03"/>
      <point x="204" y="736"/>
      <point x="178" y="760"/>
      <point x="144" y="760" type="curve" smooth="yes"/>
      <point x="110" y="760"/>
      <point x="84" y="736"/>
      <point x="84" y="700" type="curve" smooth="yes"/>
      <point x="84" y="664"/>
      <point x="110" y="640"/>
    </contour>
  </outline>
</glyph>
<glyph name="dotlessi" format="1">
  <advance width="284"/>
  <unicode hex="0131"/>
  <outline>
    <contour>
      <point x="96" y="0" type="line" name="hr00"/>
      <point x="188" y="0" type="line"/>
      <point x="188" y="544" type="line"/>
      <point x="90" y="544" type="line"/>
      <point x="88" y="536" type="line"/>
      <point x="96" y="500"/>
      <point x="96" y="412"/>
      <point x="96" y="372" type="curve" smooth="yes"/>
    </contour>
    <contour>
      <point x="142" y="544" type="move" name="top"/>
    </contour>
  </outline>
</glyph>
<glyph name="IJ" format="1">
  <advance width="700"/>
  <unicode hex="0132"/>
  <outline>
    <contour>
      <point x="96" y="0" type="line"/>
      <point x="192" y="0" type="line"/>
      <point x="192" y="720" type="line"/>
      <point x="96" y="720" type="line"/>
    </contour>
    <contour>
      <point x="300" y="0" type="line"/>
      <point x="324" y="-6"/>
      <point x="364" y="-12"/>
      <point x="400" y="-12" type="curve" smooth="yes" name="hr01"/>
      <point x="544" y="-12"/>
      <point x="620" y="72"/>
      <point x="620" y="204" type="curve" smooth="yes"/>
      <point x="620" y="720" type="line"/>
      <point x="524" y="720" type="line"/>
      <point x="524" y="192" type="line" smooth="yes"/>
      <point x="524" y="116"/>
      <point x="480" y="72"/>
      <point x="400" y="72" type="curve" smooth="yes"/>
      <point x="372" y="72"/>
      <point x="324" y="78"/>
      <point x="308" y="84" type="curve" name="hr02"/>
      <point x="300" y="84" type="line"/>
    </contour>
  </outline>
</glyph>
<glyph name="ij" format="1">
  <advance width="568"/>
  <unicode hex="0133"/>
  <outline>
    <contour>
      <point x="140" y="640" type="curve" smooth="yes"/>
      <point x="174" y="640"/>
      <point x="200" y="664"/>
      <point x="200" y="700" type="curve" smooth="yes"/>
      <point x="200" y="736"/>
      <point x="174" y="760"/>
      <point x="140" y="760" type="curve" smooth="yes"/>
      <point x="106" y="760"/>
      <point x="80" y="736"/>
      <point x="80" y="700" type="curve" smooth="yes"/>
      <point x="80" y="664"/>
      <point x="106" y="640"/>
    </contour>
    <contour>
      <point x="96" y="0" type="line" name="hr01"/>
      <point x="188" y="0" type="line"/>
      <point x="188" y="544" type="line"/>
      <point x="90" y="544" type="line"/>
      <point x="88" y="536" type="line"/>
      <point x="96" y="500"/>
      <point x="96" y="412"/>
      <point x="96" y="372" type="curve" smooth="yes"/>
    </contour>
    <contour>
      <point x="424" y="640" type="curve" smooth="yes"/>
      <point x="458" y="640"/>
      <point x="484" y="664"/>
      <point x="484" y="700" type="curve" smooth="yes"/>
      <point x="484" y="736"/>
      <point x="458" y="760"/>
      <point x="424" y="760" type="curve" smooth="yes"/>
      <point x="390" y="760"/>
      <point x="364" y="736"/>
      <point x="364" y="700" type="curve" smooth="yes"/>
      <point x="364" y="664"/>
      <point x="390" y="640"/>
    </contour>
    <contour>
      <point x="380" y="-52" type="line" smooth="yes" name="hr02"/>
      <point x="380" y="-124"/>
      <point x="340" y="-160"/>
      <point x="276" y="-160" type="curve" smooth="yes"/>
      <point x="248" y="-160"/>
      <point x="228" y="-154"/>
      <point x="212" y="-148" type="curve"/>
      <point x="204" y="-148" type="line"/>
      <point x="204" y="-228" type="line"/>
      <point x="220" y="-234"/>
      <point x="244" y="-240"/>
      <point x="280" y="-240" type="curve" smooth="yes"/>
      <point x="416" y="-240"/>
      <point x="472" y="-148"/>
      <point x="472" y="-48" type="curve" smooth="yes"/>
      <point x="472" y="544" type="line"/>
      <point x="374" y="544" type="line"/>
      <point x="372" y="536" type="line"/>
      <point x="380" y="500"/>
      <point x="380" y="412"/>
      <point x="380" y="372" type="curve" smooth="yes"/>
    </contour>
  </outline>
</glyph>
<glyph name="Lcaron" format="1">
  <advance width="532"/>
  <unicode hex="013D"/>
  <outline>
    <contour>
      <point x="96" y="0" type="line"/>
      <point x="500" y="0" type="line"/>
      <point x="500" y="84" type="line"/>
      <point x="192" y="84" type="line"/>
      <point x="192" y="720" type="line"/>
      <point x="96" y="720" type="line"/>
    </contour>
    <contour>
      <point x="346" y="634" type="curve"/>
      <point x="305" y="553" type="line"/>
      <point x="305" y="548" type="line" name="hr01"/>
      <point x="360" y="548" type="line"/>
      <point x="399" y="625" type="line"/>
      <point x="404" y="637"/>
      <point x="415" y="656"/>
      <point x="415" y="680" type="curve" smooth="yes"/>
      <point x="415" y="716"/>
      <point x="393" y="732"/>
      <point x="364" y="732" type="curve" smooth="yes"/>
      <point x="334" y="732"/>
      <point x="313" y="713"/>
      <point x="313" y="680" type="curve" smooth="yes"/>
      <point x="313" y="654"/>
      <point x="332" y="639"/>
    </contour>
  </outline>
</glyph>
<glyph name="lcaron" format="1">
  <advance width="284"/>
  <unicode hex="013E"/>
  <outline>
    <contour>
      <point x="96" y="0" type="line" name="hr00"/>
      <point x="188" y="0" type="line"/>
      <point x="188" y="760" type="line"/>
      <point x="90" y="760" type="line"/>
      <point x="88" y="752" type="line"/>
      <point x="96" y="716"/>
      <point x="96" y="628"/>
      <point x="96" y="588" type="curve" smooth="yes"/>
    </contour>
    <contour>
      <point x="276" y="662" type="curve"/>
      <point x="235" y="581" type="line"/>
      <point x="235" y="576" type="line"/>
      <point x="290" y="576" type="line"/>
      <point x="329" y="653" type="line"/>
      <point x="334" y="665"/>
      <point x="345" y="684"/>
      <point x="345" y="708" type="curve" smooth="yes"/>
      <point x="345" y="744"/>
      <point x="323" y="760"/>
      <point x="294" y="760" type="curve" smooth="yes"/>
      <point x="264" y="760"/>
      <point x="243" y="741"/>
      <point x="243" y="708" type="curve" smooth="yes"/>
      <point x="243" y="682"/>
      <point x="262" y="667"/>
    </contour>
  </outline>
</glyph>
<glyph name="Ldot" format="1">
  <advance width="532"/>
  <unicode hex="013F"/>
  <outline>
    <contour>
      <point x="96" y="0" type="line" name="hr00"/>
      <point x="500" y="0" type="line"/>
      <point x="500" y="84" type="line"/>
      <point x="192" y="84" type="line"/>
      <point x="192" y="720" type="line"/>
      <point x="96" y="720" type="line"/>
    </contour>
    <contour>
      <point x="356" y="332" type="curve" smooth="yes"/>
      <point x="390" y="332"/>
      <point x="416" y="354"/>
      <point x="416" y="392" type="curve" smooth="yes"/>
      <point x="416" y="429"/>
      <point x="390" y="452"/>
      <point x="356" y="452" type="curve" smooth="yes"/>
      <point x="322" y="452"/>
      <point x="296" y="429"/>
      <point x="296" y="392" type="curve" smooth="yes"/>
      <point x="296" y="354"/>
      <point x="322" y="332"/>
    </contour>
  </outline>
</glyph>
<glyph name="ldot" format="1">
  <advance width="374"/>
  <unicode hex="0140"/>
  <outline>
    <contour>
      <point x="96" y="0" type="line" name="hr00"/>
      <point x="188" y="0" type="line"/>
      <point x="188" y="760" type="line"/>
      <point x="90" y="760" type="line"/>
      <point x="88" y="752" type="line"/>
      <point x="96" y="716"/>
      <point x="96" y="628"/>
      <point x="96" y="588" type="curve" smooth="yes"/>
    </contour>
    <contour>
      <point x="322" y="300" type="curve" smooth="yes"/>
      <point x="356" y="300"/>
      <point x="382" y="322"/>
      <point x="382" y="360" type="curve" smooth="yes"/>
      <point x="382" y="397"/>
      <point x="356" y="420"/>
      <point x="322" y="420" type="curve" smooth="yes"/>
      <point x="288" y="420"/>
      <point x="262" y="397"/>
      <point x="262" y="360" type="curve" smooth="yes"/>
      <point x="262" y="322"/>
      <point x="288" y="300"/>
    </contour>
  </outline>
</glyph>
<glyph name="Lslash" format="1">
  <advance width="556"/>
  <unicode hex="0141"/>
  <outline>
    <contour>
      <point x="4" y="236" type="line"/>
      <point x="12" y="236" type="line"/>
      <point x="120" y="299" type="line" name="hr01"/>
      <point x="120" y="0" type="line"/>
      <point x="524" y="0" type="line"/>
      <point x="524" y="84" type="line"/>
      <point x="216" y="84" type="line"/>
      <point x="216" y="356" type="line"/>
      <point x="372" y="448" type="line"/>
      <point x="372" y="528" type="line"/>
      <point x="364" y="528" type="line"/>
      <point x="216" y="441" type="line"/>
      <point x="216" y="720" type="line"/>
      <point x="120" y="720" type="line"/>
      <point x="120" y="384" type="line"/>
      <point x="4" y="316" type="line" name="hr02"/>
    </contour>
  </outline>
</glyph>
<glyph name="lslash" format="1">
  <advance width="308"/>
  <unicode hex="0142"/>
  <outline>
    <contour>
      <point x="4" y="248" type="line"/>
      <point x="12" y="248" type="line"/>
      <point x="108" y="317" type="line" name="hr01"/>
      <point x="108" y="0" type="line"/>
      <point x="200" y="0" type="line"/>
      <point x="200" y="384" type="line"/>
      <point x="304" y="460" type="line" name="hr02"/>
      <point x="304" y="536" type="line"/>
      <point x="296" y="536" type="line"/>
      <point x="200" y="466" type="line" name="hr03"/>
      <point x="200" y="760" type="line"/>
      <point x="102" y="760" type="line"/>
      <point x="100" y="752" type="line"/>
      <point x="108" y="716"/>
      <point x="108" y="628"/>
      <point x="108" y="588" type="curve" smooth="yes" name="hr04"/>
      <point x="108" y="399" type="line"/>
      <point x="4" y="324" type="line" name="hr05"/>
    </contour>
  </outline>
</glyph>
<glyph name="napostrophe" format="1">
  <advance width="644"/>
  <unicode hex="0149"/>
  <outline>
    <contour>
      <point x="100" y="0" type="line"/>
      <point x="192" y="0" type="line"/>
      <point x="192" y="396" type="line" smooth="yes"/>
      <point x="192" y="419"/>
      <point x="191" y="441"/>
      <point x="189" y="459" type="curve"/>
      <point x="223" y="468"/>
      <point x="265" y="476"/>
      <point x="300" y="476" type="curve" smooth="yes"/>
      <point x="400" y="476"/>
      <point x="460" y="444"/>
      <point x="460" y="312" type="curve" smooth="yes"/>
      <point x="460" y="0" type="line"/>
      <point x="552" y="0" type="line"/>
      <point x="552" y="320" type="line" smooth="yes"/>
      <point x="552" y="508"/>
      <point x="444" y="556"/>
      <point x="312" y="556" type="curve" smooth="yes"/>
      <point x="260" y="556"/>
      <point x="146" y="536"/>
      <point x="94" y="516" type="curve"/>
      <point x="92" y="508" type="line"/>
      <point x="100" y="472"/>
      <point x="100" y="384"/>
      <point x="100" y="344" type="curve" smooth="yes"/>
    </contour>
    <contour>
      <point x="146" y="690" type="curve"/>
      <point x="105" y="609" type="line"/>
      <point x="105" y="604" type="line"/>
      <point x="160" y="604" type="line"/>
      <point x="199" y="681" type="line"/>
      <point x="204" y="693"/>
      <point x="215" y="712"/>
      <point x="215" y="736" type="curve" smooth="yes" name="hr01"/>
      <point x="215" y="772"/>
      <point x="193" y="788"/>
      <point x="164" y="788" type="curve" smooth="yes"/>
      <point x="134" y="788"/>
      <point x="113" y="769"/>
      <point x="113" y="736" type="curve" smooth="yes"/>
      <point x="113" y="710"/>
      <point x="132" y="695"/>
    </contour>
  </outline>
</glyph>
<glyph name="Eng" format="1">
  <advance width="736"/>
  <unicode hex="014A"/>
  <outline>
    <contour>
      <point x="96" y="0" type="line" name="hr00"/>
      <point x="192" y="0" type="line"/>
      <point x="192" y="568" type="line"/>
      <point x="544" y="196" type="line"/>
      <point x="544" y="-36" type="line" smooth="yes"/>
      <point x="544" y="-112"/>
      <point x="500" y="-156"/>
      <point x="420" y="-156" type="curve" smooth="yes"/>
      <point x="392" y="-156"/>
      <point x="344" y="-150"/>
      <point x="328" y="-144" type="curve"/>
      <point x="320" y="-144" type="line"/>
      <point x="320" y="-228" type="line"/>
      <point x="344" y="-234"/>
      <point x="384" y="-240"/>
      <point x="420" y="-240" type="curve" smooth="yes"/>
      <point x="564" y="-240"/>
      <point x="640" y="-156"/>
      <point x="640" y="-24" type="curve" smooth="yes"/>
      <point x="640" y="720" type="line"/>
      <point x="544" y="720" type="line"/>
      <point x="544" y="331" type="line"/>
      <point x="176" y="720" type="line"/>
      <point x="96" y="720" type="line"/>
    </contour>
  </outline>
</glyph>
<glyph name="eng" format="1">
  <advance width="632"/>
  <unicode hex="014B"/>
  <outline>
    <contour>
      <point x="456" y="-52" type="line" smooth="yes" name="hr00"/>
      <point x="456" y="-124"/>
      <point x="416" y="-160"/>
      <point x="352" y="-160" type="curve" smooth="yes"/>
      <point x="324" y="-160"/>
      <point x="304" y="-154"/>
      <point x="288" y="-148" type="curve"/>
      <point x="280" y="-148" type="line"/>
      <point x="280" y="-228" type="line"/>
      <point x="296" y="-234"/>
      <point x="320" y="-240"/>
      <point x="356" y="-240" type="curve" smooth="yes"/>
      <point x="492" y="-240"/>
      <point x="548" y="-148"/>
      <point x="548" y="-48" type="curve" smooth="yes"/>
      <point x="548" y="320" type="line" smooth="yes"/>
      <point x="548" y="508"/>
      <point x="440" y="556"/>
      <point x="308" y="556" type="curve" smooth="yes"/>
      <point x="256" y="556"/>
      <point x="142" y="536"/>
      <point x="90" y="516" type="curve"/>
      <point x="88" y="508" type="line"/>
      <point x="96" y="472"/>
      <point x="96" y="384"/>
      <point x="96" y="344" type="curve" smooth="yes"/>
      <point x="96" y="0" type="line"/>
      <point x="188" y="0" type="line"/>
      <point x="188" y="396" type="line" smooth="yes"/>
      <point x="188" y="419"/>
      <point x="187" y="441"/>
      <point x="185" y="459" type="curve"/>
      <point x="219" y="468"/>
      <point x="261" y="476"/>
      <point x="296" y="476" type="curve" smooth="yes"/>
      <point x="396" y="476"/>
      <point x="456" y="444"/>
      <point x="456" y="312" type="curve" smooth="yes"/>
    </contour>
  </outline>
</glyph>
<glyph name="OE" format="1">
  <advance width="1060"/>
  <unicode hex="0152"/>
  <outline>
    <contour>
      <point x="56" y="360" type="curve" smooth="yes"/>
      <point x="56" y="140"/>
      <point x="182" y="-12"/>
      <point x="392" y="-12" type="curve" smooth="yes"/>
      <point x="426" y="-12"/>
      <point x="458" y="-8"/>
      <point x="487" y="0" type="curve" name="hr01"/>
      <point x="1008" y="0" type="line"/>
      <point x="1008" y="84" type="line"/>
      <point x="631" y="84" type="line"/>
      <point x="689" y="145"/>
      <point x="723" y="232"/>
      <point x="727" y="336" type="curve"/>
      <point x="940" y="336" type="line"/>
      <point x="940" y="420" type="line"/>
      <point x="724" y="420" type="line"/>
      <point x="714" y="508"/>
      <point x="682" y="582"/>
      <point x="631" y="636" type="curve"/>
      <point x="996" y="636" type="line"/>
      <point x="996" y="720" type="line"/>
      <point x="487" y="720" type="line"/>
      <point x="458" y="728"/>
      <point x="426" y="732"/>
      <point x="392" y="732" type="curve" smooth="yes" name="hr02"/>
      <point x="184" y="732"/>
      <point x="56" y="580"/>
    </contour>
    <contour>
      <point x="156" y="360" type="curve" smooth="yes"/>
      <point x="156" y="544"/>
      <point x="248" y="644"/>
      <point x="392" y="644" type="curve" smooth="yes"/>
      <point x="536" y="644"/>
      <point x="628" y="544"/>
      <point x="628" y="360" type="curve" smooth="yes"/>
      <point x="628" y="176"/>
      <point x="536" y="76"/>
      <point x="392" y="76" type="curve" smooth="yes"/>
      <point x="248" y="76"/>
      <point x="156" y="176"/>
    </contour>
  </outline>
</glyph>
<glyph name="oe" format="1">
  <advance width="1004"/>
  <unicode hex="0153"/>
  <outline>
    <contour>
      <point x="53" y="274" type="curve" smooth="yes" name="hr00"/>
      <point x="53" y="96"/>
      <point x="151" y="-8"/>
      <point x="303" y="-8" type="curve" smooth="yes"/>
      <point x="391" y="-8"/>
      <point x="462" y="29"/>
      <point x="506" y="96" type="curve"/>
      <point x="553" y="28"/>
      <point x="636" y="-8"/>
      <point x="759" y="-8" type="curve" smooth="yes"/>
      <point x="831" y="-8"/>
      <point x="883" y="6"/>
      <point x="915" y="22" type="curve"/>
      <point x="915" y="104" type="line"/>
      <point x="907" y="104" type="line"/>
      <point x="879" y="88"/>
      <point x="831" y="72"/>
      <point x="763" y="72" type="curve" smooth="yes"/>
      <point x="640" y="72"/>
      <point x="564" y="120"/>
      <point x="554" y="240" type="curve"/>
      <point x="950" y="240" type="line"/>
      <point x="951" y="268" type="line" smooth="yes"/>
      <point x="957" y="440"/>
      <point x="887" y="556"/>
      <point x="711" y="556" type="curve" smooth="yes"/>
      <point x="622" y="556"/>
      <point x="550" y="517"/>
      <point x="507" y="451" type="curve"/>
      <point x="463" y="519"/>
      <point x="391" y="556"/>
      <point x="303" y="556" type="curve" smooth="yes"/>
      <point x="155" y="556"/>
      <point x="53" y="452"/>
    </contour>
    <contour>
      <point x="303" y="72" type="curve" smooth="yes"/>
      <point x="203" y="72"/>
      <point x="147" y="140"/>
      <point x="147" y="274" type="curve" smooth="yes"/>
      <point x="147" y="408"/>
      <point x="203" y="476"/>
      <point x="303" y="476" type="curve" smooth="yes"/>
      <point x="403" y="476"/>
      <point x="459" y="408"/>
      <point x="459" y="274" type="curve" smooth="yes"/>
      <point x="459" y="264" type="line" smooth="yes"/>
      <point x="456" y="136"/>
      <point x="400" y="72"/>
    </contour>
    <contour>
      <point x="711" y="476" type="curve" smooth="yes"/>
      <point x="807" y="476"/>
      <point x="855" y="424"/>
      <point x="855" y="324" type="curve" smooth="yes"/>
      <point x="855" y="316" type="line"/>
      <point x="554" y="316" type="line"/>
      <point x="562" y="427"/>
      <point x="626" y="476"/>
    </contour>
  </outline>
</glyph>
